{
.appVersion = "1342";
date = "2019-10-25 21:28:01 +0000";
disablesAutomaticAlignment = 1;
familyName = NerdfontsPL;
featurePrefixes = (
{
automatic = 1;
code = "languagesystem DFLT dflt;\012";
name = Languagesystems;
}
);
features = (
{
automatic = 1;
code = "feature rclt;\012";
name = aalt;
},
{
code = "sub uniE0A0 by uniE0A0.stypo;\012sub uniE0B0 by uniE0B0.stypo;\012sub uniE0B1 by uniE0B1.stypo;\012sub uniE0B2 by uniE0B2.stypo;\012sub uniE0B3 by uniE0B3.stypo;\012sub uniE0B4 by uniE0B4.stypo;\012sub uniE0B5 by uniE0B5.stypo;\012sub uniE0B6 by uniE0B6.stypo;\012sub uniE0B7 by uniE0B7.stypo;\012sub uniE0B8 by uniE0B8.stypo;\012sub uniE0B9 by uniE0B9.stypo;\012sub uniE0BA by uniE0BA.stypo;\012sub uniE0BB by uniE0BB.stypo;\012sub uniE0BC by uniE0BC.stypo;\012sub uniE0BD by uniE0BD.stypo;\012sub uniE0BE by uniE0BE.stypo;\012sub uniE0BF by uniE0BF.stypo;\012sub uniE0C0 by uniE0C0.stypo;\012sub uniE0C1 by uniE0C1.stypo;\012sub uniE0C2 by uniE0C2.stypo;\012sub uniE0C3 by uniE0C3.stypo;\012sub uniE0C4 by uniE0C4.stypo;\012sub uniE0C5 by uniE0C5.stypo;\012sub uniE0C6 by uniE0C6.stypo;\012sub uniE0C7 by uniE0C7.stypo;\012sub uniE0C8 by uniE0C8.stypo;\012sub uniE0CA by uniE0CA.stypo;\012sub uniE0CC by uniE0CC.stypo;\012sub uniE0CD by uniE0CD.stypo;\012sub uniE0CE by uniE0CE.stypo;\012sub uniE0CF by uniE0CF.stypo;\012sub uniE0D1 by uniE0D1.stypo;\012sub uniE0D2 by uniE0D2.stypo;\012sub uniE0D4 by uniE0D4.stypo;";
name = rclt;
}
);
fontMaster = (
{
ascender = 1568;
capHeight = 1420;
customParameters = (
{
name = typoAscender;
value = 1568;
},
{
name = typoDescender;
value = -480;
},
{
name = typoLineGap;
value = 410;
},
{
name = winAscent;
value = 1978;
},
{
name = winDescent;
value = 480;
},
{
name = hheaAscender;
value = 1978;
},
{
name = hheaDescender;
value = -480;
},
{
name = strikeoutPosition;
value = 636;
},
{
name = strikeoutSize;
value = 50;
}
);
descender = -480;
guideLines = (
{
position = "{1350, 1900}";
},
{
position = "{1198, 2226}";
}
);

glyphs = (
{
color = 2;
glyphname = uniE0A0;
lastChange = "2020-07-23 18:20:43 +0000";
layers = (
{
layerId = "F8C3375C-B372-4BAE-A3FB-5A8DC7FA7AB9";
paths = (
{
closed = 1;
nodes = (
"444 -480 LINE",
"444 48 LINE SMOOTH",
"444 307 OFFCURVE",
"527 350 OFFCURVE",
"788 528 CURVE SMOOTH",
"946 636 OFFCURVE",
"1001 742 OFFCURVE",
"1001 934 CURVE SMOOTH",
"1001 1576 LINE",
"1210 1576 LINE",
"919 1918 LINE",
"626 1576 LINE",
"835 1576 LINE",
"835 990 LINE SMOOTH",
"835 865 OFFCURVE",
"798 777 OFFCURVE",
"669 702 CURVE SMOOTH",
"216 439 OFFCURVE",
"168 348 OFFCURVE",
"168 48 CURVE",
"168 -480 LINE"
);
},
{
closed = 1;
nodes = (
"444 860 LINE",
"444 2226 LINE",
"168 2226 LINE",
"168 682 LINE"
);
}
);
width = 1200;
}
);
note = uniE0A0;
unicode = E0A0;
},
{
color = 2;
glyphname = uniE0A1;
lastChange = "2020-07-23 18:20:43 +0000";
layers = (
{
layerId = "F8C3375C-B372-4BAE-A3FB-5A8DC7FA7AB9";
paths = (
{
closed = 1;
nodes = (
"542 -231 LINE",
"542 -35 LINE",
"524 353 LINE",
"768 -231 LINE",
"934 -231 LINE",
"934 669 LINE",
"778 669 LINE",
"778 511 LINE",
"798 83 LINE",
"550 669 LINE",
"386 669 LINE",
"386 -231 LINE"
);
},
{
closed = 1;
nodes = (
"770 751 LINE",
"770 883 LINE",
"418 883 LINE",
"418 1651 LINE",
"266 1651 LINE",
"266 751 LINE"
);
}
);
width = 1200;
}
);
note = uniE0A1;
unicode = E0A1;
},
{
color = 2;
glyphname = uniE0A2;
lastChange = "2020-07-23 18:20:43 +0000";
layers = (
{
layerId = "F8C3375C-B372-4BAE-A3FB-5A8DC7FA7AB9";
paths = (
{
closed = 1;
nodes = (
"864 -52 LINE SMOOTH",
"959 -52 OFFCURVE",
"1006 -5 OFFCURVE",
"1006 89 CURVE SMOOTH",
"1006 777 LINE SMOOTH",
"1006 878 OFFCURVE",
"965 929 OFFCURVE",
"884 929 CURVE",
"884 1234 LINE SMOOTH",
"884 1445 OFFCURVE",
"790 1550 OFFCURVE",
"600 1550 CURVE SMOOTH",
"410 1550 OFFCURVE",
"316 1445 OFFCURVE",
"316 1234 CURVE SMOOTH",
"316 929 LINE",
"235 929 OFFCURVE",
"194 878 OFFCURVE",
"194 777 CURVE SMOOTH",
"194 89 LINE SMOOTH",
"194 -5 OFFCURVE",
"241 -52 OFFCURVE",
"334 -52 CURVE"
);
},
{
closed = 1;
nodes = (
"542 507 LINE",
"498 530 OFFCURVE",
"476 567 OFFCURVE",
"476 618 CURVE SMOOTH",
"476 688 OFFCURVE",
"531 743 OFFCURVE",
"599 743 CURVE SMOOTH",
"666 743 OFFCURVE",
"722 693 OFFCURVE",
"722 618 CURVE SMOOTH",
"722 567 OFFCURVE",
"700 530 OFFCURVE",
"656 507 CURVE",
"656 184 LINE",
"542 184 LINE"
);
},
{
closed = 1;
nodes = (
"452 1234 LINE SMOOTH",
"452 1359 OFFCURVE",
"501 1421 OFFCURVE",
"600 1421 CURVE SMOOTH",
"699 1421 OFFCURVE",
"748 1359 OFFCURVE",
"748 1234 CURVE SMOOTH",
"748 929 LINE",
"452 929 LINE"
);
}
);
width = 1200;
}
);
note = uniE0A2;
unicode = E0A2;
},
{
color = 2;
glyphname = uniE0A3;
lastChange = "2020-07-23 18:20:43 +0000";
layers = (
{
layerId = "F8C3375C-B372-4BAE-A3FB-5A8DC7FA7AB9";
paths = (
{
closed = 1;
nodes = (
"542 -231 LINE",
"542 -35 LINE",
"524 353 LINE",
"768 -231 LINE",
"934 -231 LINE",
"934 669 LINE",
"778 669 LINE",
"778 511 LINE",
"798 83 LINE",
"550 669 LINE",
"386 669 LINE",
"386 -231 LINE"
);
},
{
closed = 1;
nodes = (
"770 751 LINE",
"770 883 LINE",
"418 883 LINE",
"418 1519 LINE",
"770 1519 LINE",
"770 1651 LINE",
"266 1651 LINE",
"266 751 LINE"
);
}
);
width = 1200;
}
);
note = uniE0A3;
unicode = E0A3;
},
{
color = 4;
glyphname = uniE0B0;
lastChange = "2021-10-18 18:00:38 +0000";
layers = (
{
layerId = "F8C3375C-B372-4BAE-A3FB-5A8DC7FA7AB9";
paths = (
{
closed = 1;
nodes = (
"1200 873 LINE",
"0 2226 LINE",
"0 -480 LINE"
);
},
{
closed = 1;
nodes = (
"0 -480 LINE",
"0 2226 LINE",
"-100 2226 LINE",
"-100 -480 LINE"
);
}
);
width = 1200;
}
);
note = uniE0B0;
unicode = E0B0;
},
{
color = 2;
glyphname = uniE0B1;
lastChange = "2020-07-23 18:20:43 +0000";
layers = (
{
layerId = "F8C3375C-B372-4BAE-A3FB-5A8DC7FA7AB9";
paths = (
{
closed = 1;
nodes = (
"1200 873 LINE",
"103 2226 LINE",
"0 2119 LINE",
"1000 873 LINE",
"0 -372 LINE",
"103 -480 LINE"
);
}
);
width = 1200;
}
);
note = uniE0B1;
unicode = E0B1;
},
{
color = 4;
glyphname = uniE0B2;
lastChange = "2021-10-18 18:00:38 +0000";
layers = (
{
layerId = "F8C3375C-B372-4BAE-A3FB-5A8DC7FA7AB9";
paths = (
{
closed = 1;
nodes = (
"1200 2226 LINE",
"0 873 LINE",
"1200 -480 LINE"
);
},
{
closed = 1;
nodes = (
"1300 -480 LINE",
"1300 2226 LINE",
"1200 2226 LINE",
"1200 -480 LINE"
);
}
);
width = 1200;
}
);
note = uniE0B2;
unicode = E0B2;
},
{
color = 2;
glyphname = uniE0B3;
lastChange = "2020-07-23 18:20:43 +0000";
layers = (
{
layerId = "F8C3375C-B372-4BAE-A3FB-5A8DC7FA7AB9";
paths = (
{
closed = 1;
nodes = (
"1200 -372 LINE",
"200 873 LINE",
"1200 2119 LINE",
"1097 2226 LINE",
"0 873 LINE",
"1097 -480 LINE"
);
}
);
width = 1200;
}
);
note = uniE0B3;
unicode = E0B3;
},
{
color = 4;
glyphname = uniE0B4;
lastChange = "2021-10-18 18:00:38 +0000";
layers = (
{
background = {
paths = (
{
closed = 1;
nodes = (
"0 2226 LINE",
"-200 1973 LINE",
"-200 -227 LINE",
"0 -480 LINE"
);
}
);
};
layerId = "F8C3375C-B372-4BAE-A3FB-5A8DC7FA7AB9";
paths = (
{
closed = 1;
nodes = (
"723 -480 OFFCURVE",
"1200 57 OFFCURVE",
"1200 873 CURVE SMOOTH",
"1200 1689 OFFCURVE",
"723 2226 OFFCURVE",
"0 2226 CURVE",
"0 -480 LINE"
);
},
{
closed = 1;
nodes = (
"0 -480 LINE",
"0 2226 LINE",
"-100 2226 LINE",
"-100 -480 LINE"
);
}
);
width = 1200;
}
);
note = uniE0B4;
unicode = E0B4;
},
{
color = 2;
glyphname = uniE0B5;
lastChange = "2020-07-23 18:20:43 +0000";
layers = (
{
layerId = "F8C3375C-B372-4BAE-A3FB-5A8DC7FA7AB9";
paths = (
{
closed = 1;
nodes = (
"238 -480 LINE",
"818 -273 OFFCURVE",
"1200 264 OFFCURVE",
"1200 873 CURVE SMOOTH",
"1200 1480 OFFCURVE",
"818 2017 OFFCURVE",
"238 2226 CURVE",
"0 2226 LINE",
"580 2012 OFFCURVE",
"962 1475 OFFCURVE",
"962 873 CURVE SMOOTH",
"962 269 OFFCURVE",
"580 -268 OFFCURVE",
"0 -480 CURVE"
);
}
);
width = 1200;
}
);
note = uniE0B5;
unicode = E0B5;
},
{
color = 4;
glyphname = uniE0B6;
lastChange = "2021-10-18 18:00:38 +0000";
layers = (
{
background = {
paths = (
{
closed = 1;
nodes = (
"1400 -227 LINE",
"1400 1973 LINE",
"1200 2226 LINE",
"1200 -480 LINE"
);
}
);
};
layerId = "F8C3375C-B372-4BAE-A3FB-5A8DC7FA7AB9";
paths = (
{
closed = 1;
nodes = (
"1200 2226 LINE",
"477 2226 OFFCURVE",
"0 1689 OFFCURVE",
"0 873 CURVE SMOOTH",
"0 57 OFFCURVE",
"477 -480 OFFCURVE",
"1200 -480 CURVE"
);
},
{
closed = 1;
nodes = (
"1300 -480 LINE",
"1300 2226 LINE",
"1200 2226 LINE",
"1200 -480 LINE"
);
}
);
width = 1200;
}
);
note = uniE0B6;
unicode = E0B6;
},
{
color = 2;
glyphname = uniE0B7;
lastChange = "2020-07-23 18:20:43 +0000";
layers = (
{
layerId = "F8C3375C-B372-4BAE-A3FB-5A8DC7FA7AB9";
paths = (
{
closed = 1;
nodes = (
"1200 -480 LINE",
"620 -268 OFFCURVE",
"238 269 OFFCURVE",
"238 873 CURVE SMOOTH",
"238 1475 OFFCURVE",
"620 2012 OFFCURVE",
"1200 2226 CURVE",
"962 2226 LINE",
"382 2017 OFFCURVE",
"0 1480 OFFCURVE",
"0 873 CURVE SMOOTH",
"0 264 OFFCURVE",
"382 -273 OFFCURVE",
"962 -480 CURVE"
);
}
);
width = 1200;
}
);
note = uniE0B7;
unicode = E0B7;
},
{
color = 4;
glyphname = uniE0B8;
lastChange = "2021-10-18 18:05:44 +0000";
layers = (
{
layerId = "F8C3375C-B372-4BAE-A3FB-5A8DC7FA7AB9";
paths = (
{
closed = 1;
nodes = (
"1200 -480 LINE",
"0 2226 LINE",
"0 -480 LINE"
);
},
{
closed = 1;
nodes = (
"0 2226 LINE",
"-100 2226 LINE",
"-100 -480 LINE",
"0 -480 LINE"
);
}
);
width = 1200;
}
);
note = uniE0B8;
unicode = E0B8;
},
{
color = 2;
glyphname = uniE0B9;
lastChange = "2020-07-23 18:20:43 +0000";
layers = (
{
layerId = "F8C3375C-B372-4BAE-A3FB-5A8DC7FA7AB9";
paths = (
{
closed = 1;
nodes = (
"1200 -480 LINE",
"56 2226 LINE",
"0 2226 LINE",
"1144 -480 LINE"
);
}
);
width = 1200;
}
);
note = uniE0B9;
unicode = E0B9;
},
{
color = 4;
glyphname = uniE0BA;
lastChange = "2021-10-18 18:05:49 +0000";
layers = (
{
layerId = "F8C3375C-B372-4BAE-A3FB-5A8DC7FA7AB9";
paths = (
{
closed = 1;
nodes = (
"1200 -480 LINE",
"1200 2226 LINE",
"0 -480 LINE"
);
},
{
closed = 1;
nodes = (
"1300 -480 LINE",
"1300 2226 LINE",
"1200 2226 LINE",
"1200 -480 LINE"
);
}
);
width = 1200;
}
);
note = uniE0BA;
unicode = E0BA;
},
{
color = 2;
glyphname = uniE0BB;
lastChange = "2020-07-23 18:20:43 +0000";
layers = (
{
layerId = "F8C3375C-B372-4BAE-A3FB-5A8DC7FA7AB9";
paths = (
{
closed = 1;
nodes = (
"56 -480 LINE",
"1200 2226 LINE",
"1144 2226 LINE",
"0 -480 LINE"
);
}
);
width = 1200;
}
);
note = uniE0BB;
unicode = E0BB;
},
{
color = 4;
glyphname = uniE0BC;
lastChange = "2021-10-18 18:05:43 +0000";
layers = (
{
layerId = "F8C3375C-B372-4BAE-A3FB-5A8DC7FA7AB9";
paths = (
{
closed = 1;
nodes = (
"1200 2226 LINE",
"0 2226 LINE",
"0 -480 LINE"
);
},
{
closed = 1;
nodes = (
"0 2226 LINE",
"-100 2226 LINE",
"-100 -480 LINE",
"0 -480 LINE"
);
}
);
width = 1200;
}
);
note = uniE0BC;
unicode = E0BC;
},
{
color = 2;
glyphname = uniE0BD;
lastChange = "2020-07-23 18:20:43 +0000";
layers = (
{
layerId = "F8C3375C-B372-4BAE-A3FB-5A8DC7FA7AB9";
paths = (
{
closed = 1;
nodes = (
"56 -480 LINE",
"1200 2226 LINE",
"1144 2226 LINE",
"0 -480 LINE"
);
}
);
width = 1200;
}
);
note = uniE0BD;
unicode = E0BD;
},
{
color = 4;
glyphname = uniE0BE;
lastChange = "2021-10-18 18:05:47 +0000";
layers = (
{
layerId = "F8C3375C-B372-4BAE-A3FB-5A8DC7FA7AB9";
paths = (
{
closed = 1;
nodes = (
"1200 2226 LINE",
"0 2226 LINE",
"1200 -480 LINE"
);
},
{
closed = 1;
nodes = (
"1300 -480 LINE",
"1300 2226 LINE",
"1200 2226 LINE",
"1200 -480 LINE"
);
}
);
width = 1200;
}
);
note = uniE0BE;
unicode = E0BE;
},
{
color = 2;
glyphname = uniE0BF;
lastChange = "2020-07-23 18:20:43 +0000";
layers = (
{
layerId = "F8C3375C-B372-4BAE-A3FB-5A8DC7FA7AB9";
paths = (
{
closed = 1;
nodes = (
"1200 -480 LINE",
"56 2226 LINE",
"0 2226 LINE",
"1144 -480 LINE"
);
}
);
width = 1200;
}
);
note = uniE0BF;
unicode = E0BF;
},
{
color = 4;
glyphname = uniE0C0;
lastChange = "2021-10-18 18:05:38 +0000";
layers = (
{
background = {
paths = (
{
closed = 1;
nodes = (
"31 -480 OFFCURVE",
"56 -444 OFFCURVE",
"79 -397 CURVE SMOOTH",
"92 -370 OFFCURVE",
"105 -344 OFFCURVE",
"119 -318 CURVE SMOOTH",
"141 -274 OFFCURVE",
"166 -240 OFFCURVE",
"187 -240 CURVE SMOOTH",
"191 -240 OFFCURVE",
"195 -241 OFFCURVE",
"199 -244 CURVE SMOOTH",
"208 -250 OFFCURVE",
"219 -255 OFFCURVE",
"230 -255 CURVE SMOOTH",
"249 -255 OFFCURVE",
"264 -246 OFFCURVE",
"284 -233 CURVE SMOOTH",
"295 -225 OFFCURVE",
"304 -218 OFFCURVE",
"313 -211 CURVE SMOOTH",
"330 -197 OFFCURVE",
"354 -179 OFFCURVE",
"371 -170 CURVE",
"364 -166 OFFCURVE",
"353 -160 OFFCURVE",
"338 -154 CURVE SMOOTH",
"308 -141 OFFCURVE",
"287 -128 OFFCURVE",
"268 -97 CURVE SMOOTH",
"244 -61 OFFCURVE",
"225 -40 OFFCURVE",
"206 -40 CURVE SMOOTH",
"190 -40 OFFCURVE",
"173 -54 OFFCURVE",
"152 -85 CURVE",
"152 -64 LINE SMOOTH",
"152 58 OFFCURVE",
"188 165 OFFCURVE",
"225 205 CURVE SMOOTH",
"235 217 OFFCURVE",
"247 224 OFFCURVE",
"259 224 CURVE SMOOTH",
"288 224 OFFCURVE",
"309 202 OFFCURVE",
"337 170 CURVE SMOOTH",
"350 156 OFFCURVE",
"363 142 OFFCURVE",
"374 127 CURVE SMOOTH",
"397 98 OFFCURVE",
"427 77 OFFCURVE",
"448 77 CURVE SMOOTH",
"508 77 OFFCURVE",
"578 109 OFFCURVE",
"624 186 CURVE",
"596 162 OFFCURVE",
"570 150 OFFCURVE",
"547 150 CURVE SMOOTH",
"536 150 OFFCURVE",
"526 154 OFFCURVE",
"516 158 CURVE SMOOTH",
"491 170 OFFCURVE",
"471 207 OFFCURVE",
"461 242 CURVE SMOOTH",
"451 276 OFFCURVE",
"433 333 OFFCURVE",
"420 365 CURVE SMOOTH",
"414 380 LINE",
"430 394 OFFCURVE",
"439 405 OFFCURVE",
"450 424 CURVE SMOOTH",
"465 450 OFFCURVE",
"475 478 OFFCURVE",
"491 515 CURVE SMOOTH",
"496 527 OFFCURVE",
"503 531 OFFCURVE",
"511 531 CURVE SMOOTH",
"526 531 OFFCURVE",
"544 515 OFFCURVE",
"561 497 CURVE SMOOTH",
"572 485 OFFCURVE",
"582 474 OFFCURVE",
"591 461 CURVE SMOOTH",
"611 437 OFFCURVE",
"637 404 OFFCURVE",
"654 388 CURVE SMOOTH",
"666 377 OFFCURVE",
"677 370 OFFCURVE",
"688 367 CURVE SMOOTH",
"694 366 OFFCURVE",
"699 365 OFFCURVE",
"704 365 CURVE SMOOTH",
"722 365 OFFCURVE",
"739 371 OFFCURVE",
"746 371 CURVE SMOOTH",
"769 371 OFFCURVE",
"812 417 OFFCURVE",
"842 452 CURVE SMOOTH",
"858 470 OFFCURVE",
"889 510 OFFCURVE",
"905 530 CURVE SMOOTH",
"968 609 LINE",
"895 561 OFFCURVE",
"824 527 OFFCURVE",
"784 527 CURVE SMOOTH",
"774 527 OFFCURVE",
"766 529 OFFCURVE",
"760 533 CURVE",
"758 538 OFFCURVE",
"690 596 OFFCURVE",
"682 608 CURVE SMOOTH",
"674 623 OFFCURVE",
"659 649 OFFCURVE",
"638 688 CURVE SMOOTH",
"605 749 OFFCURVE",
"577 794 OFFCURVE",
"560 788 CURVE SMOOTH",
"546 783 LINE",
"556 810 LINE SMOOTH",
"564 833 OFFCURVE",
"570 853 OFFCURVE",
"578 869 CURVE SMOOTH",
"593 902 OFFCURVE",
"610 922 OFFCURVE",
"623 935 CURVE SMOOTH",
"636 947 OFFCURVE",
"659 953 OFFCURVE",
"671 955 CURVE SMOOTH",
"686 957 OFFCURVE",
"709 958 OFFCURVE",
"725 960 CURVE SMOOTH",
"769 968 OFFCURVE",
"801 996 OFFCURVE",
"847 1058 CURVE",
"835 1050 OFFCURVE",
"823 1048 OFFCURVE",
"812 1048 CURVE SMOOTH",
"801 1048 OFFCURVE",
"792 1050 OFFCURVE",
"782 1057 CURVE",
"778 1060 OFFCURVE",
"771 1063 OFFCURVE",
"761 1066 CURVE SMOOTH",
"752 1070 OFFCURVE",
"744 1074 OFFCURVE",
"736 1077 CURVE SMOOTH",
"712 1089 OFFCURVE",
"683 1110 OFFCURVE",
"667 1152 CURVE SMOOTH",
"661 1168 LINE",
"685 1186 OFFCURVE",
"701 1209 OFFCURVE",
"721 1237 CURVE SMOOTH",
"732 1254 OFFCURVE",
"766 1319 OFFCURVE",
"777 1338 CURVE SMOOTH",
"795 1374 OFFCURVE",
"815 1399 OFFCURVE",
"836 1415 CURVE SMOOTH",
"860 1432 OFFCURVE",
"881 1437 OFFCURVE",
"903 1437 CURVE SMOOTH",
"922 1437 OFFCURVE",
"941 1433 OFFCURVE",
"962 1427 CURVE SMOOTH",
"999 1417 OFFCURVE",
"1035 1405 OFFCURVE",
"1070 1405 CURVE SMOOTH",
"1075 1405 OFFCURVE",
"1081 1405 OFFCURVE",
"1085 1406 CURVE",
"1125 1410 OFFCURVE",
"1166 1450 OFFCURVE",
"1200 1534 CURVE",
"1174 1493 OFFCURVE",
"1146 1478 OFFCURVE",
"1121 1478 CURVE SMOOTH",
"1105 1478 OFFCURVE",
"1085 1486 OFFCURVE",
"1064 1506 CURVE SMOOTH",
"1031 1536 OFFCURVE",
"1009 1565 OFFCURVE",
"972 1619 CURVE SMOOTH",
"914 1703 OFFCURVE",
"858 1745 OFFCURVE",
"802 1745 CURVE SMOOTH",
"771 1745 OFFCURVE",
"741 1733 OFFCURVE",
"711 1707 CURVE SMOOTH",
"678 1678 OFFCURVE",
"636 1609 OFFCURVE",
"604 1563 CURVE SMOOTH",
"578 1524 OFFCURVE",
"544 1490 OFFCURVE",
"513 1490 CURVE SMOOTH",
"505 1490 OFFCURVE",
"497 1492 OFFCURVE",
"489 1498 CURVE SMOOTH",
"445 1521 OFFCURVE",
"417 1592 OFFCURVE",
"417 1674 CURVE SMOOTH",
"417 1742 OFFCURVE",
"437 1805 OFFCURVE",
"474 1841 CURVE",
"481 1850 OFFCURVE",
"493 1861 OFFCURVE",
"507 1875 CURVE SMOOTH",
"521 1888 OFFCURVE",
"532 1899 OFFCURVE",
"540 1906 CURVE SMOOTH",
"548 1914 OFFCURVE",
"557 1924 OFFCURVE",
"567 1939 CURVE SMOOTH",
"588 1965 OFFCURVE",
"605 1998 OFFCURVE",
"622 2041 CURVE",
"590 1990 OFFCURVE",
"562 1957 OFFCURVE",
"531 1957 CURVE SMOOTH",
"512 1957 OFFCURVE",
"492 1969 OFFCURVE",
"470 1997 CURVE SMOOTH",
"448 2025 OFFCURVE",
"427 2038 OFFCURVE",
"407 2038 CURVE SMOOTH",
"374 2038 OFFCURVE",
"346 2004 OFFCURVE",
"308 1928 CURVE SMOOTH",
"297 1907 OFFCURVE",
"254 1821 OFFCURVE",
"236 1798 CURVE SMOOTH",
"214 1769 LINE SMOOTH",
"205 1758 OFFCURVE",
"197 1752 OFFCURVE",
"190 1749 CURVE SMOOTH",
"184 1747 OFFCURVE",
"179 1745 OFFCURVE",
"174 1745 CURVE SMOOTH",
"158 1745 OFFCURVE",
"145 1758 OFFCURVE",
"133 1801 CURVE SMOOTH",
"130 1813 OFFCURVE",
"129 1824 OFFCURVE",
"129 1835 CURVE SMOOTH",
"129 1855 OFFCURVE",
"134 1875 OFFCURVE",
"143 1894 CURVE SMOOTH",
"149 1907 OFFCURVE",
"162 1927 OFFCURVE",
"182 1953 CURVE SMOOTH",
"201 1978 OFFCURVE",
"212 1998 OFFCURVE",
"216 2010 CURVE SMOOTH",
"226 2044 OFFCURVE",
"230 2060 OFFCURVE",
"230 2058 CURVE",
"241 2095 OFFCURVE",
"258 2153 OFFCURVE",
"271 2174 CURVE SMOOTH",
"285 2195 OFFCURVE",
"301 2209 OFFCURVE",
"321 2206 CURVE",
"303 2232 OFFCURVE",
"285 2245 OFFCURVE",
"266 2245 CURVE SMOOTH",
"241 2245 OFFCURVE",
"216 2221 OFFCURVE",
"190 2175 CURVE SMOOTH",
"181 2159 OFFCURVE",
"173 2145 OFFCURVE",
"166 2136 CURVE SMOOTH",
"152 2115 OFFCURVE",
"132 2088 OFFCURVE",
"115 2081 CURVE SMOOTH",
"109 2077 OFFCURVE",
"104 2075 OFFCURVE",
"98 2075 CURVE SMOOTH",
"78 2075 OFFCURVE",
"60 2095 OFFCURVE",
"42 2144 CURVE",
"36 2166 OFFCURVE",
"26 2198 OFFCURVE",
"22 2209 CURVE SMOOTH",
"18 2221 OFFCURVE",
"11 2223 OFFCURVE",
"0 2226 CURVE",
"0 -480 LINE",
"10 -480 LINE"
);
},
{
closed = 1;
nodes = (
"0 2226 LINE",
"-100 2226 LINE",
"-100 -480 LINE",
"0 -480 LINE"
);
}
);
};
layerId = "F8C3375C-B372-4BAE-A3FB-5A8DC7FA7AB9";
paths = (
{
closed = 1;
nodes = (
"31 -480 OFFCURVE",
"56 -444 OFFCURVE",
"79 -397 CURVE SMOOTH",
"92 -370 OFFCURVE",
"105 -344 OFFCURVE",
"119 -318 CURVE SMOOTH",
"141 -274 OFFCURVE",
"166 -240 OFFCURVE",
"187 -240 CURVE SMOOTH",
"191 -240 OFFCURVE",
"195 -241 OFFCURVE",
"199 -244 CURVE SMOOTH",
"208 -250 OFFCURVE",
"219 -255 OFFCURVE",
"230 -255 CURVE SMOOTH",
"249 -255 OFFCURVE",
"264 -246 OFFCURVE",
"284 -233 CURVE SMOOTH",
"295 -225 OFFCURVE",
"304 -218 OFFCURVE",
"313 -211 CURVE SMOOTH",
"330 -197 OFFCURVE",
"354 -179 OFFCURVE",
"371 -170 CURVE",
"364 -166 OFFCURVE",
"353 -160 OFFCURVE",
"338 -154 CURVE SMOOTH",
"308 -141 OFFCURVE",
"287 -128 OFFCURVE",
"268 -97 CURVE SMOOTH",
"244 -61 OFFCURVE",
"225 -40 OFFCURVE",
"206 -40 CURVE SMOOTH",
"190 -40 OFFCURVE",
"173 -54 OFFCURVE",
"152 -85 CURVE",
"152 -64 LINE SMOOTH",
"152 58 OFFCURVE",
"188 165 OFFCURVE",
"225 205 CURVE SMOOTH",
"235 217 OFFCURVE",
"247 224 OFFCURVE",
"259 224 CURVE SMOOTH",
"288 224 OFFCURVE",
"309 202 OFFCURVE",
"337 170 CURVE SMOOTH",
"350 156 OFFCURVE",
"363 142 OFFCURVE",
"374 127 CURVE SMOOTH",
"397 98 OFFCURVE",
"427 77 OFFCURVE",
"448 77 CURVE SMOOTH",
"508 77 OFFCURVE",
"578 109 OFFCURVE",
"624 186 CURVE",
"596 162 OFFCURVE",
"570 150 OFFCURVE",
"547 150 CURVE SMOOTH",
"536 150 OFFCURVE",
"526 154 OFFCURVE",
"516 158 CURVE SMOOTH",
"491 170 OFFCURVE",
"471 207 OFFCURVE",
"461 242 CURVE SMOOTH",
"451 276 OFFCURVE",
"433 333 OFFCURVE",
"420 365 CURVE SMOOTH",
"414 380 LINE",
"430 394 OFFCURVE",
"439 405 OFFCURVE",
"450 424 CURVE SMOOTH",
"465 450 OFFCURVE",
"475 478 OFFCURVE",
"491 515 CURVE SMOOTH",
"496 527 OFFCURVE",
"503 531 OFFCURVE",
"511 531 CURVE SMOOTH",
"526 531 OFFCURVE",
"544 515 OFFCURVE",
"561 497 CURVE SMOOTH",
"572 485 OFFCURVE",
"582 474 OFFCURVE",
"591 461 CURVE SMOOTH",
"611 437 OFFCURVE",
"637 404 OFFCURVE",
"654 388 CURVE SMOOTH",
"666 377 OFFCURVE",
"677 370 OFFCURVE",
"688 367 CURVE SMOOTH",
"694 366 OFFCURVE",
"699 365 OFFCURVE",
"704 365 CURVE SMOOTH",
"722 365 OFFCURVE",
"739 371 OFFCURVE",
"746 371 CURVE SMOOTH",
"769 371 OFFCURVE",
"812 417 OFFCURVE",
"842 452 CURVE SMOOTH",
"858 470 OFFCURVE",
"889 510 OFFCURVE",
"905 530 CURVE SMOOTH",
"968 609 LINE",
"895 561 OFFCURVE",
"824 527 OFFCURVE",
"784 527 CURVE SMOOTH",
"774 527 OFFCURVE",
"766 529 OFFCURVE",
"760 533 CURVE",
"758 538 OFFCURVE",
"690 596 OFFCURVE",
"682 608 CURVE SMOOTH",
"674 623 OFFCURVE",
"659 649 OFFCURVE",
"638 688 CURVE SMOOTH",
"605 749 OFFCURVE",
"577 794 OFFCURVE",
"560 788 CURVE SMOOTH",
"546 783 LINE",
"556 810 LINE SMOOTH",
"564 833 OFFCURVE",
"570 853 OFFCURVE",
"578 869 CURVE SMOOTH",
"593 902 OFFCURVE",
"610 922 OFFCURVE",
"623 935 CURVE SMOOTH",
"636 947 OFFCURVE",
"659 953 OFFCURVE",
"671 955 CURVE SMOOTH",
"686 957 OFFCURVE",
"709 958 OFFCURVE",
"725 960 CURVE SMOOTH",
"769 968 OFFCURVE",
"801 996 OFFCURVE",
"847 1058 CURVE",
"835 1050 OFFCURVE",
"823 1048 OFFCURVE",
"812 1048 CURVE SMOOTH",
"801 1048 OFFCURVE",
"792 1050 OFFCURVE",
"782 1057 CURVE",
"778 1060 OFFCURVE",
"771 1063 OFFCURVE",
"761 1066 CURVE SMOOTH",
"752 1070 OFFCURVE",
"744 1074 OFFCURVE",
"736 1077 CURVE SMOOTH",
"712 1089 OFFCURVE",
"683 1110 OFFCURVE",
"667 1152 CURVE SMOOTH",
"661 1168 LINE",
"685 1186 OFFCURVE",
"701 1209 OFFCURVE",
"721 1237 CURVE SMOOTH",
"732 1254 OFFCURVE",
"766 1319 OFFCURVE",
"777 1338 CURVE SMOOTH",
"795 1374 OFFCURVE",
"815 1399 OFFCURVE",
"836 1415 CURVE SMOOTH",
"860 1432 OFFCURVE",
"881 1437 OFFCURVE",
"903 1437 CURVE SMOOTH",
"922 1437 OFFCURVE",
"941 1433 OFFCURVE",
"962 1427 CURVE SMOOTH",
"999 1417 OFFCURVE",
"1035 1405 OFFCURVE",
"1070 1405 CURVE SMOOTH",
"1075 1405 OFFCURVE",
"1081 1405 OFFCURVE",
"1085 1406 CURVE",
"1125 1410 OFFCURVE",
"1166 1450 OFFCURVE",
"1200 1534 CURVE",
"1174 1493 OFFCURVE",
"1146 1478 OFFCURVE",
"1121 1478 CURVE SMOOTH",
"1105 1478 OFFCURVE",
"1085 1486 OFFCURVE",
"1064 1506 CURVE SMOOTH",
"1031 1536 OFFCURVE",
"1009 1565 OFFCURVE",
"972 1619 CURVE SMOOTH",
"914 1703 OFFCURVE",
"858 1745 OFFCURVE",
"802 1745 CURVE SMOOTH",
"771 1745 OFFCURVE",
"741 1733 OFFCURVE",
"711 1707 CURVE SMOOTH",
"678 1678 OFFCURVE",
"636 1609 OFFCURVE",
"604 1563 CURVE SMOOTH",
"578 1524 OFFCURVE",
"544 1490 OFFCURVE",
"513 1490 CURVE SMOOTH",
"505 1490 OFFCURVE",
"497 1492 OFFCURVE",
"489 1498 CURVE SMOOTH",
"445 1521 OFFCURVE",
"417 1592 OFFCURVE",
"417 1674 CURVE SMOOTH",
"417 1742 OFFCURVE",
"437 1805 OFFCURVE",
"474 1841 CURVE",
"481 1850 OFFCURVE",
"493 1861 OFFCURVE",
"507 1875 CURVE SMOOTH",
"521 1888 OFFCURVE",
"532 1899 OFFCURVE",
"540 1906 CURVE SMOOTH",
"548 1914 OFFCURVE",
"557 1924 OFFCURVE",
"567 1939 CURVE SMOOTH",
"588 1965 OFFCURVE",
"605 1998 OFFCURVE",
"622 2041 CURVE",
"590 1990 OFFCURVE",
"562 1957 OFFCURVE",
"531 1957 CURVE SMOOTH",
"512 1957 OFFCURVE",
"492 1969 OFFCURVE",
"470 1997 CURVE SMOOTH",
"448 2025 OFFCURVE",
"427 2038 OFFCURVE",
"407 2038 CURVE SMOOTH",
"374 2038 OFFCURVE",
"346 2004 OFFCURVE",
"308 1928 CURVE SMOOTH",
"297 1907 OFFCURVE",
"254 1821 OFFCURVE",
"236 1798 CURVE SMOOTH",
"214 1769 LINE SMOOTH",
"205 1758 OFFCURVE",
"197 1752 OFFCURVE",
"190 1749 CURVE SMOOTH",
"184 1747 OFFCURVE",
"179 1745 OFFCURVE",
"174 1745 CURVE SMOOTH",
"158 1745 OFFCURVE",
"145 1758 OFFCURVE",
"133 1801 CURVE SMOOTH",
"130 1813 OFFCURVE",
"129 1824 OFFCURVE",
"129 1835 CURVE SMOOTH",
"129 1855 OFFCURVE",
"134 1875 OFFCURVE",
"143 1894 CURVE SMOOTH",
"149 1907 OFFCURVE",
"162 1927 OFFCURVE",
"182 1953 CURVE SMOOTH",
"201 1978 OFFCURVE",
"212 1998 OFFCURVE",
"216 2010 CURVE SMOOTH",
"226 2044 OFFCURVE",
"230 2060 OFFCURVE",
"230 2058 CURVE",
"241 2095 OFFCURVE",
"258 2153 OFFCURVE",
"271 2174 CURVE SMOOTH",
"285 2195 OFFCURVE",
"301 2209 OFFCURVE",
"321 2206 CURVE",
"303 2232 OFFCURVE",
"285 2245 OFFCURVE",
"266 2245 CURVE SMOOTH",
"241 2245 OFFCURVE",
"216 2221 OFFCURVE",
"190 2175 CURVE SMOOTH",
"181 2159 OFFCURVE",
"173 2145 OFFCURVE",
"166 2136 CURVE SMOOTH",
"152 2115 OFFCURVE",
"132 2088 OFFCURVE",
"115 2081 CURVE SMOOTH",
"109 2077 OFFCURVE",
"104 2075 OFFCURVE",
"98 2075 CURVE SMOOTH",
"78 2075 OFFCURVE",
"60 2095 OFFCURVE",
"42 2144 CURVE",
"36 2166 OFFCURVE",
"26 2198 OFFCURVE",
"22 2209 CURVE SMOOTH",
"18 2221 OFFCURVE",
"11 2223 OFFCURVE",
"0 2226 CURVE",
"0 -480 LINE",
"10 -480 LINE"
);
},
{
closed = 1;
nodes = (
"0 2226 LINE",
"-100 2226 LINE",
"-100 -480 LINE",
"0 -480 LINE"
);
}
);
width = 1200;
}
);
note = uniE0C0;
unicode = E0C0;
},
{
color = 2;
glyphname = uniE0C1;
lastChange = "2020-07-23 18:20:43 +0000";
layers = (
{
layerId = "F8C3375C-B372-4BAE-A3FB-5A8DC7FA7AB9";
paths = (
{
closed = 1;
nodes = (
"84 -480 OFFCURVE",
"135 -251 OFFCURVE",
"187 -251 CURVE SMOOTH",
"196 -251 OFFCURVE",
"207 -264 OFFCURVE",
"227 -264 CURVE SMOOTH",
"276 -264 OFFCURVE",
"339 -187 OFFCURVE",
"364 -183 CURVE",
"399 -62 LINE",
"360 -40 OFFCURVE",
"328 -33 OFFCURVE",
"301 8 CURVE SMOOTH",
"288 28 OFFCURVE",
"265 64 OFFCURVE",
"240 64 CURVE SMOOTH",
"220 64 OFFCURVE",
"203 47 OFFCURVE",
"191 31 CURVE",
"191 43 LINE SMOOTH",
"191 86 OFFCURVE",
"200 190 OFFCURVE",
"255 190 CURVE SMOOTH",
"310 190 OFFCURVE",
"372 52 OFFCURVE",
"438 52 CURVE SMOOTH",
"516 52 OFFCURVE",
"573 97 OFFCURVE",
"617 166 CURVE SMOOTH",
"636 196 OFFCURVE",
"637 244 OFFCURVE",
"639 278 CURVE",
"618 261 OFFCURVE",
"593 247 OFFCURVE",
"566 247 CURVE SMOOTH",
"495 247 OFFCURVE",
"479 359 OFFCURVE",
"461 416 CURVE",
"471 439 OFFCURVE",
"481 461 OFFCURVE",
"491 484 CURVE",
"493 484 OFFCURVE",
"494 485 OFFCURVE",
"496 485 CURVE SMOOTH",
"544 485 OFFCURVE",
"613 327 OFFCURVE",
"685 327 CURVE SMOOTH",
"796 327 OFFCURVE",
"871 492 OFFCURVE",
"944 565 CURVE",
"953 604 OFFCURVE",
"961 643 OFFCURVE",
"971 683 CURVE",
"930 656 OFFCURVE",
"843 604 OFFCURVE",
"795 604 CURVE SMOOTH",
"788 604 OFFCURVE",
"780 604 OFFCURVE",
"774 610 CURVE SMOOTH",
"750 630 OFFCURVE",
"717 652 OFFCURVE",
"700 681 CURVE SMOOTH",
"675 719 OFFCURVE",
"623 831 OFFCURVE",
"592 853 CURVE",
"619 893 OFFCURVE",
"665 886 OFFCURVE",
"704 894 CURVE SMOOTH",
"755 904 OFFCURVE",
"796 950 OFFCURVE",
"828 993 CURVE SMOOTH",
"839 1007 OFFCURVE",
"855 1089 OFFCURVE",
"854 1110 CURVE",
"843 1107 OFFCURVE",
"834 1102 OFFCURVE",
"822 1102 CURVE SMOOTH",
"795 1102 OFFCURVE",
"724 1141 OFFCURVE",
"706 1162 CURVE",
"741 1218 OFFCURVE",
"779 1332 OFFCURVE",
"849 1332 CURVE SMOOTH",
"902 1332 OFFCURVE",
"950 1305 OFFCURVE",
"1001 1305 CURVE SMOOTH",
"1097 1305 OFFCURVE",
"1146 1385 OFFCURVE",
"1182 1471 CURVE SMOOTH",
"1190 1490 OFFCURVE",
"1200 1517 OFFCURVE",
"1200 1538 CURVE SMOOTH",
"1200 1544 OFFCURVE",
"1200 1551 OFFCURVE",
"1196 1554 CURVE",
"1188 1557 LINE",
"1173 1534 OFFCURVE",
"1152 1513 OFFCURVE",
"1125 1513 CURVE SMOOTH",
"1019 1513 OFFCURVE",
"955 1767 OFFCURVE",
"813 1767 CURVE SMOOTH",
"673 1767 OFFCURVE",
"620 1524 OFFCURVE",
"538 1524 CURVE SMOOTH",
"473 1524 OFFCURVE",
"446 1628 OFFCURVE",
"446 1684 CURVE SMOOTH",
"446 1689 OFFCURVE",
"447 1710 OFFCURVE",
"449 1714 CURVE SMOOTH",
"455 1731 OFFCURVE",
"540 1808 OFFCURVE",
"559 1831 CURVE SMOOTH",
"588 1866 OFFCURVE",
"609 1919 OFFCURVE",
"626 1962 CURVE SMOOTH",
"633 1980 OFFCURVE",
"643 2006 OFFCURVE",
"643 2026 CURVE SMOOTH",
"643 2031 OFFCURVE",
"643 2037 OFFCURVE",
"638 2040 CURVE",
"629 2038 LINE",
"616 2012 OFFCURVE",
"582 1967 OFFCURVE",
"551 1967 CURVE SMOOTH",
"504 1967 OFFCURVE",
"486 2045 OFFCURVE",
"433 2045 CURVE SMOOTH",
"341 2045 OFFCURVE",
"279 1765 OFFCURVE",
"208 1765 CURVE SMOOTH",
"186 1765 OFFCURVE",
"173 1805 OFFCURVE",
"170 1824 CURVE",
"208 1868 OFFCURVE",
"224 1894 OFFCURVE",
"242 1952 CURVE SMOOTH",
"253 1987 OFFCURVE",
"260 2029 OFFCURVE",
"274 2061 CURVE SMOOTH",
"283 2083 OFFCURVE",
"295 2083 OFFCURVE",
"314 2083 CURVE",
"352 2204 LINE",
"338 2223 OFFCURVE",
"320 2241 OFFCURVE",
"296 2241 CURVE SMOOTH",
"224 2241 OFFCURVE",
"192 2081 OFFCURVE",
"134 2081 CURVE SMOOTH",
"77 2081 OFFCURVE",
"83 2225 OFFCURVE",
"41 2225 CURVE SMOOTH",
"23 2225 OFFCURVE",
"0 2130 OFFCURVE",
"0 2113 CURVE SMOOTH",
"0 2108 OFFCURVE",
"2 2104 OFFCURVE",
"5 2102 CURVE",
"40 2103 OFFCURVE",
"39 1957 OFFCURVE",
"99 1957 CURVE SMOOTH",
"162 1957 OFFCURVE",
"200 2119 OFFCURVE",
"262 2119 CURVE SMOOTH",
"264 2119 OFFCURVE",
"267 2118 OFFCURVE",
"269 2118 CURVE",
"251 2075 OFFCURVE",
"243 2021 OFFCURVE",
"224 1981 CURVE SMOOTH",
"208 1949 OFFCURVE",
"180 1922 OFFCURVE",
"163 1888 CURVE SMOOTH",
"142 1846 OFFCURVE",
"125 1791 OFFCURVE",
"125 1742 CURVE SMOOTH",
"125 1712 OFFCURVE",
"136 1645 OFFCURVE",
"171 1645 CURVE SMOOTH",
"256 1645 OFFCURVE",
"322 1923 OFFCURVE",
"397 1923 CURVE SMOOTH",
"437 1923 OFFCURVE",
"457 1871 OFFCURVE",
"489 1852 CURVE",
"433 1791 OFFCURVE",
"402 1668 OFFCURVE",
"402 1584 CURVE SMOOTH",
"402 1524 OFFCURVE",
"426 1401 OFFCURVE",
"498 1401 CURVE SMOOTH",
"603 1401 OFFCURVE",
"643 1644 OFFCURVE",
"778 1644 CURVE SMOOTH",
"876 1644 OFFCURVE",
"931 1524 OFFCURVE",
"989 1456 CURVE",
"973 1465 OFFCURVE",
"923 1473 OFFCURVE",
"904 1473 CURVE SMOOTH",
"791 1473 OFFCURVE",
"759 1274 OFFCURVE",
"673 1216 CURVE",
"661 1188 OFFCURVE",
"636 1136 OFFCURVE",
"636 1107 CURVE SMOOTH",
"636 1075 OFFCURVE",
"675 1028 OFFCURVE",
"700 1013 CURVE",
"608 1004 OFFCURVE",
"578 912 OFFCURVE",
"549 826 CURVE SMOOTH",
"541 802 OFFCURVE",
"524 761 OFFCURVE",
"524 735 CURVE SMOOTH",
"524 732 OFFCURVE",
"524 725 OFFCURVE",
"529 725 CURVE SMOOTH",
"535 725 OFFCURVE",
"541 732 OFFCURVE",
"547 732 CURVE SMOOTH",
"566 732 OFFCURVE",
"643 587 OFFCURVE",
"660 560 CURVE SMOOTH",
"679 532 OFFCURVE",
"698 515 OFFCURVE",
"725 497 CURVE SMOOTH",
"737 487 OFFCURVE",
"744 480 OFFCURVE",
"760 480 CURVE SMOOTH",
"778 480 OFFCURVE",
"795 486 OFFCURVE",
"812 493 CURVE",
"781 461 OFFCURVE",
"758 451 OFFCURVE",
"715 451 CURVE SMOOTH",
"650 451 OFFCURVE",
"595 611 OFFCURVE",
"538 611 CURVE SMOOTH",
"499 611 OFFCURVE",
"482 521 OFFCURVE",
"462 492 CURVE SMOOTH",
"455 480 OFFCURVE",
"441 473 OFFCURVE",
"435 463 CURVE SMOOTH",
"421 440 OFFCURVE",
"398 384 OFFCURVE",
"398 357 CURVE SMOOTH",
"398 352 OFFCURVE",
"455 188 OFFCURVE",
"460 176 CURVE",
"404 193 OFFCURVE",
"360 316 OFFCURVE",
"295 316 CURVE SMOOTH",
"252 316 OFFCURVE",
"222 254 OFFCURVE",
"206 217 CURVE SMOOTH",
"169 132 OFFCURVE",
"147 36 OFFCURVE",
"147 -59 CURVE SMOOTH",
"147 -69 OFFCURVE",
"145 -98 OFFCURVE",
"152 -102 CURVE",
"162 -98 OFFCURVE",
"176 -61 OFFCURVE",
"202 -61 CURVE SMOOTH",
"236 -61 OFFCURVE",
"257 -118 OFFCURVE",
"281 -137 CURVE",
"275 -139 OFFCURVE",
"268 -140 OFFCURVE",
"262 -140 CURVE SMOOTH",
"243 -140 OFFCURVE",
"232 -127 OFFCURVE",
"218 -127 CURVE SMOOTH",
"143 -127 OFFCURVE",
"107 -354 OFFCURVE",
"41 -354 CURVE SMOOTH",
"24 -354 OFFCURVE",
"0 -447 OFFCURVE",
"0 -465 CURVE SMOOTH",
"0 -469 OFFCURVE",
"2 -473 OFFCURVE",
"4 -477 CURVE",
"8 -479 OFFCURVE",
"12 -480 OFFCURVE",
"16 -480 CURVE",
"16 -480 LINE"
);
}
);
width = 1200;
}
);
note = uniE0C1;
unicode = E0C1;
},
{
color = 4;
glyphname = uniE0C2;
lastChange = "2021-10-18 18:05:29 +0000";
layers = (
{
layerId = "F8C3375C-B372-4BAE-A3FB-5A8DC7FA7AB9";
paths = (
{
closed = 1;
nodes = (
"1200 -480 LINE",
"1200 2226 LINE",
"1189 2223 OFFCURVE",
"1182 2221 OFFCURVE",
"1178 2209 CURVE SMOOTH",
"1174 2198 OFFCURVE",
"1164 2166 OFFCURVE",
"1158 2144 CURVE",
"1140 2095 OFFCURVE",
"1122 2075 OFFCURVE",
"1102 2075 CURVE SMOOTH",
"1096 2075 OFFCURVE",
"1091 2077 OFFCURVE",
"1085 2081 CURVE SMOOTH",
"1068 2088 OFFCURVE",
"1048 2115 OFFCURVE",
"1034 2136 CURVE SMOOTH",
"1027 2145 OFFCURVE",
"1019 2159 OFFCURVE",
"1010 2175 CURVE SMOOTH",
"984 2221 OFFCURVE",
"959 2245 OFFCURVE",
"934 2245 CURVE SMOOTH",
"915 2245 OFFCURVE",
"897 2232 OFFCURVE",
"879 2206 CURVE",
"899 2209 OFFCURVE",
"915 2195 OFFCURVE",
"929 2174 CURVE SMOOTH",
"942 2153 OFFCURVE",
"959 2095 OFFCURVE",
"970 2058 CURVE",
"970 2060 OFFCURVE",
"974 2044 OFFCURVE",
"984 2010 CURVE SMOOTH",
"988 1998 OFFCURVE",
"999 1978 OFFCURVE",
"1018 1953 CURVE SMOOTH",
"1038 1927 OFFCURVE",
"1051 1907 OFFCURVE",
"1057 1894 CURVE SMOOTH",
"1066 1875 OFFCURVE",
"1071 1855 OFFCURVE",
"1071 1835 CURVE SMOOTH",
"1071 1824 OFFCURVE",
"1070 1813 OFFCURVE",
"1067 1801 CURVE SMOOTH",
"1055 1758 OFFCURVE",
"1042 1745 OFFCURVE",
"1026 1745 CURVE SMOOTH",
"1021 1745 OFFCURVE",
"1016 1747 OFFCURVE",
"1010 1749 CURVE SMOOTH",
"1003 1752 OFFCURVE",
"995 1758 OFFCURVE",
"986 1769 CURVE SMOOTH",
"964 1798 LINE SMOOTH",
"946 1821 OFFCURVE",
"903 1907 OFFCURVE",
"892 1928 CURVE SMOOTH",
"854 2004 OFFCURVE",
"826 2038 OFFCURVE",
"793 2038 CURVE SMOOTH",
"773 2038 OFFCURVE",
"752 2025 OFFCURVE",
"730 1997 CURVE SMOOTH",
"708 1969 OFFCURVE",
"688 1957 OFFCURVE",
"669 1957 CURVE SMOOTH",
"638 1957 OFFCURVE",
"610 1990 OFFCURVE",
"578 2041 CURVE",
"595 1998 OFFCURVE",
"612 1965 OFFCURVE",
"633 1939 CURVE SMOOTH",
"643 1924 OFFCURVE",
"652 1914 OFFCURVE",
"660 1906 CURVE SMOOTH",
"668 1899 OFFCURVE",
"679 1888 OFFCURVE",
"693 1875 CURVE SMOOTH",
"707 1861 OFFCURVE",
"719 1850 OFFCURVE",
"726 1841 CURVE",
"763 1805 OFFCURVE",
"783 1742 OFFCURVE",
"783 1674 CURVE SMOOTH",
"783 1592 OFFCURVE",
"755 1521 OFFCURVE",
"711 1498 CURVE SMOOTH",
"703 1492 OFFCURVE",
"695 1490 OFFCURVE",
"687 1490 CURVE SMOOTH",
"656 1490 OFFCURVE",
"622 1524 OFFCURVE",
"596 1563 CURVE SMOOTH",
"564 1609 OFFCURVE",
"522 1678 OFFCURVE",
"489 1707 CURVE SMOOTH",
"459 1733 OFFCURVE",
"429 1745 OFFCURVE",
"398 1745 CURVE SMOOTH",
"342 1745 OFFCURVE",
"286 1703 OFFCURVE",
"228 1619 CURVE SMOOTH",
"191 1565 OFFCURVE",
"169 1536 OFFCURVE",
"136 1506 CURVE SMOOTH",
"115 1486 OFFCURVE",
"95 1478 OFFCURVE",
"79 1478 CURVE SMOOTH",
"54 1478 OFFCURVE",
"26 1493 OFFCURVE",
"0 1534 CURVE",
"34 1450 OFFCURVE",
"75 1410 OFFCURVE",
"115 1406 CURVE",
"119 1405 OFFCURVE",
"125 1405 OFFCURVE",
"130 1405 CURVE SMOOTH",
"165 1405 OFFCURVE",
"201 1417 OFFCURVE",
"238 1427 CURVE SMOOTH",
"259 1433 OFFCURVE",
"278 1437 OFFCURVE",
"297 1437 CURVE SMOOTH",
"319 1437 OFFCURVE",
"340 1432 OFFCURVE",
"364 1415 CURVE SMOOTH",
"385 1399 OFFCURVE",
"405 1374 OFFCURVE",
"423 1338 CURVE SMOOTH",
"434 1319 OFFCURVE",
"468 1254 OFFCURVE",
"479 1237 CURVE SMOOTH",
"499 1209 OFFCURVE",
"515 1186 OFFCURVE",
"539 1168 CURVE",
"533 1152 LINE SMOOTH",
"517 1110 OFFCURVE",
"488 1089 OFFCURVE",
"464 1077 CURVE SMOOTH",
"456 1074 OFFCURVE",
"448 1070 OFFCURVE",
"439 1066 CURVE SMOOTH",
"429 1063 OFFCURVE",
"422 1060 OFFCURVE",
"418 1057 CURVE",
"408 1050 OFFCURVE",
"399 1048 OFFCURVE",
"388 1048 CURVE SMOOTH",
"377 1048 OFFCURVE",
"365 1050 OFFCURVE",
"353 1058 CURVE",
"399 996 OFFCURVE",
"431 968 OFFCURVE",
"475 960 CURVE SMOOTH",
"491 958 OFFCURVE",
"514 957 OFFCURVE",
"529 955 CURVE SMOOTH",
"541 953 OFFCURVE",
"564 947 OFFCURVE",
"577 935 CURVE SMOOTH",
"590 922 OFFCURVE",
"607 902 OFFCURVE",
"622 869 CURVE SMOOTH",
"630 853 OFFCURVE",
"636 833 OFFCURVE",
"644 810 CURVE SMOOTH",
"654 783 LINE",
"640 788 LINE SMOOTH",
"623 794 OFFCURVE",
"595 749 OFFCURVE",
"562 688 CURVE SMOOTH",
"541 649 OFFCURVE",
"526 623 OFFCURVE",
"518 608 CURVE SMOOTH",
"510 596 OFFCURVE",
"442 538 OFFCURVE",
"440 533 CURVE",
"434 529 OFFCURVE",
"426 527 OFFCURVE",
"416 527 CURVE SMOOTH",
"376 527 OFFCURVE",
"305 561 OFFCURVE",
"232 609 CURVE",
"295 530 LINE SMOOTH",
"311 510 OFFCURVE",
"342 470 OFFCURVE",
"358 452 CURVE SMOOTH",
"388 417 OFFCURVE",
"431 371 OFFCURVE",
"454 371 CURVE SMOOTH",
"461 371 OFFCURVE",
"478 365 OFFCURVE",
"496 365 CURVE SMOOTH",
"501 365 OFFCURVE",
"506 366 OFFCURVE",
"512 367 CURVE SMOOTH",
"523 370 OFFCURVE",
"534 377 OFFCURVE",
"546 388 CURVE SMOOTH",
"563 404 OFFCURVE",
"589 437 OFFCURVE",
"609 461 CURVE SMOOTH",
"618 474 OFFCURVE",
"628 485 OFFCURVE",
"639 497 CURVE SMOOTH",
"656 515 OFFCURVE",
"674 531 OFFCURVE",
"689 531 CURVE SMOOTH",
"697 531 OFFCURVE",
"704 527 OFFCURVE",
"709 515 CURVE SMOOTH",
"725 478 OFFCURVE",
"735 450 OFFCURVE",
"750 424 CURVE SMOOTH",
"761 405 OFFCURVE",
"770 394 OFFCURVE",
"786 380 CURVE",
"780 365 LINE SMOOTH",
"767 333 OFFCURVE",
"749 276 OFFCURVE",
"739 242 CURVE SMOOTH",
"729 207 OFFCURVE",
"709 170 OFFCURVE",
"684 158 CURVE SMOOTH",
"674 154 OFFCURVE",
"664 150 OFFCURVE",
"653 150 CURVE SMOOTH",
"630 150 OFFCURVE",
"604 162 OFFCURVE",
"576 186 CURVE",
"622 109 OFFCURVE",
"692 77 OFFCURVE",
"752 77 CURVE SMOOTH",
"773 77 OFFCURVE",
"803 98 OFFCURVE",
"826 127 CURVE SMOOTH",
"837 142 OFFCURVE",
"850 156 OFFCURVE",
"863 170 CURVE SMOOTH",
"891 202 OFFCURVE",
"912 224 OFFCURVE",
"941 224 CURVE SMOOTH",
"953 224 OFFCURVE",
"965 217 OFFCURVE",
"975 205 CURVE SMOOTH",
"1012 165 OFFCURVE",
"1048 58 OFFCURVE",
"1048 -64 CURVE SMOOTH",
"1048 -85 LINE",
"1027 -54 OFFCURVE",
"1010 -40 OFFCURVE",
"994 -40 CURVE SMOOTH",
"975 -40 OFFCURVE",
"956 -61 OFFCURVE",
"932 -97 CURVE SMOOTH",
"913 -128 OFFCURVE",
"892 -141 OFFCURVE",
"862 -154 CURVE SMOOTH",
"847 -160 OFFCURVE",
"836 -166 OFFCURVE",
"829 -170 CURVE",
"846 -179 OFFCURVE",
"870 -197 OFFCURVE",
"887 -211 CURVE SMOOTH",
"896 -218 OFFCURVE",
"905 -225 OFFCURVE",
"916 -233 CURVE SMOOTH",
"936 -246 OFFCURVE",
"951 -255 OFFCURVE",
"970 -255 CURVE SMOOTH",
"981 -255 OFFCURVE",
"992 -250 OFFCURVE",
"1001 -244 CURVE SMOOTH",
"1005 -241 OFFCURVE",
"1009 -240 OFFCURVE",
"1013 -240 CURVE SMOOTH",
"1034 -240 OFFCURVE",
"1059 -274 OFFCURVE",
"1081 -318 CURVE SMOOTH",
"1095 -344 OFFCURVE",
"1108 -370 OFFCURVE",
"1121 -397 CURVE SMOOTH",
"1144 -444 OFFCURVE",
"1169 -480 OFFCURVE",
"1190 -480 CURVE"
);
},
{
closed = 1;
nodes = (
"1300 -480 LINE",
"1300 2226 LINE",
"1200 2226 LINE",
"1200 -480 LINE"
);
}
);
width = 1200;
}
);
note = uniE0C2;
unicode = E0C2;
},
{
color = 2;
glyphname = uniE0C3;
lastChange = "2020-07-23 18:20:43 +0000";
layers = (
{
layerId = "F8C3375C-B372-4BAE-A3FB-5A8DC7FA7AB9";
paths = (
{
closed = 1;
nodes = (
"1189 -480 OFFCURVE",
"1193 -479 OFFCURVE",
"1197 -477 CURVE",
"1199 -473 OFFCURVE",
"1200 -469 OFFCURVE",
"1200 -465 CURVE SMOOTH",
"1200 -438 OFFCURVE",
"1181 -355 OFFCURVE",
"1154 -355 CURVE SMOOTH",
"1106 -355 OFFCURVE",
"1052 -127 OFFCURVE",
"983 -127 CURVE SMOOTH",
"969 -127 OFFCURVE",
"957 -140 OFFCURVE",
"939 -140 CURVE SMOOTH",
"933 -140 OFFCURVE",
"926 -139 OFFCURVE",
"920 -137 CURVE",
"943 -119 OFFCURVE",
"966 -61 OFFCURVE",
"998 -61 CURVE SMOOTH",
"1024 -61 OFFCURVE",
"1039 -98 OFFCURVE",
"1049 -102 CURVE",
"1050 -102 LINE",
"1056 -97 OFFCURVE",
"1054 -79 OFFCURVE",
"1054 -72 CURVE SMOOTH",
"1054 -61 LINE SMOOTH",
"1054 33 OFFCURVE",
"1031 133 OFFCURVE",
"995 217 CURVE SMOOTH",
"979 255 OFFCURVE",
"948 316 OFFCURVE",
"905 316 CURVE SMOOTH",
"845 316 OFFCURVE",
"796 196 OFFCURVE",
"741 176 CURVE",
"746 187 OFFCURVE",
"803 354 OFFCURVE",
"803 357 CURVE SMOOTH",
"803 387 OFFCURVE",
"780 436 OFFCURVE",
"766 464 CURVE",
"752 476 OFFCURVE",
"738 489 OFFCURVE",
"731 506 CURVE SMOOTH",
"719 536 OFFCURVE",
"696 611 OFFCURVE",
"662 611 CURVE SMOOTH",
"607 611 OFFCURVE",
"552 452 OFFCURVE",
"485 452 CURVE SMOOTH",
"443 452 OFFCURVE",
"420 463 OFFCURVE",
"389 493 CURVE",
"405 488 OFFCURVE",
"423 481 OFFCURVE",
"440 481 CURVE SMOOTH",
"531 481 OFFCURVE",
"620 732 OFFCURVE",
"653 732 CURVE SMOOTH",
"657 732 OFFCURVE",
"666 727 OFFCURVE",
"672 725 CURVE",
"675 728 OFFCURVE",
"677 732 OFFCURVE",
"677 735 CURVE SMOOTH",
"677 789 OFFCURVE",
"614 936 OFFCURVE",
"578 979 CURVE SMOOTH",
"558 1003 OFFCURVE",
"530 1010 OFFCURVE",
"501 1014 CURVE",
"526 1028 OFFCURVE",
"565 1076 OFFCURVE",
"565 1108 CURVE SMOOTH",
"565 1137 OFFCURVE",
"540 1191 OFFCURVE",
"527 1216 CURVE",
"442 1277 OFFCURVE",
"411 1474 OFFCURVE",
"298 1474 CURVE SMOOTH",
"268 1474 OFFCURVE",
"240 1467 OFFCURVE",
"212 1456 CURVE",
"270 1525 OFFCURVE",
"325 1645 OFFCURVE",
"423 1645 CURVE SMOOTH",
"559 1645 OFFCURVE",
"598 1401 OFFCURVE",
"703 1401 CURVE SMOOTH",
"775 1401 OFFCURVE",
"799 1525 OFFCURVE",
"799 1584 CURVE SMOOTH",
"799 1666 OFFCURVE",
"767 1795 OFFCURVE",
"711 1853 CURVE",
"742 1872 OFFCURVE",
"765 1923 OFFCURVE",
"803 1923 CURVE SMOOTH",
"878 1923 OFFCURVE",
"947 1648 OFFCURVE",
"1023 1648 CURVE SMOOTH",
"1032 1648 OFFCURVE",
"1040 1654 OFFCURVE",
"1047 1661 CURVE",
"1047 1661 OFFCURVE",
"1047 1659 OFFCURVE",
"1048 1659 CURVE SMOOTH",
"1062 1659 OFFCURVE",
"1076 1726 OFFCURVE",
"1076 1742 CURVE SMOOTH",
"1076 1791 OFFCURVE",
"1059 1847 OFFCURVE",
"1038 1889 CURVE SMOOTH",
"1021 1923 OFFCURVE",
"993 1949 OFFCURVE",
"976 1982 CURVE SMOOTH",
"960 2014 OFFCURVE",
"948 2079 OFFCURVE",
"932 2118 CURVE",
"939 2119 LINE",
"1002 2119 OFFCURVE",
"1038 1957 OFFCURVE",
"1101 1957 CURVE SMOOTH",
"1153 1957 OFFCURVE",
"1160 2060 OFFCURVE",
"1180 2094 CURVE SMOOTH",
"1185 2102 OFFCURVE",
"1188 2102 OFFCURVE",
"1196 2102 CURVE",
"1199 2104 OFFCURVE",
"1200 2109 OFFCURVE",
"1200 2113 CURVE SMOOTH",
"1200 2131 OFFCURVE",
"1179 2226 OFFCURVE",
"1160 2226 CURVE SMOOTH",
"1117 2226 OFFCURVE",
"1124 2081 OFFCURVE",
"1067 2081 CURVE SMOOTH",
"1009 2081 OFFCURVE",
"976 2242 OFFCURVE",
"904 2242 CURVE SMOOTH",
"881 2242 OFFCURVE",
"862 2223 OFFCURVE",
"849 2205 CURVE",
"887 2083 LINE",
"906 2083 OFFCURVE",
"917 2084 OFFCURVE",
"926 2062 CURVE SMOOTH",
"965 1963 OFFCURVE",
"954 1911 OFFCURVE",
"1031 1825 CURVE",
"1026 1805 OFFCURVE",
"1018 1766 OFFCURVE",
"993 1766 CURVE SMOOTH",
"922 1766 OFFCURVE",
"859 2046 OFFCURVE",
"768 2046 CURVE SMOOTH",
"715 2046 OFFCURVE",
"696 1967 OFFCURVE",
"650 1967 CURVE SMOOTH",
"619 1967 OFFCURVE",
"586 2012 OFFCURVE",
"572 2039 CURVE",
"563 2041 LINE",
"558 2038 OFFCURVE",
"558 2032 OFFCURVE",
"558 2027 CURVE SMOOTH",
"558 2007 OFFCURVE",
"568 1981 OFFCURVE",
"575 1962 CURVE SMOOTH",
"593 1916 OFFCURVE",
"612 1871 OFFCURVE",
"642 1832 CURVE SMOOTH",
"662 1806 OFFCURVE",
"746 1733 OFFCURVE",
"752 1715 CURVE SMOOTH",
"754 1709 OFFCURVE",
"754 1692 OFFCURVE",
"754 1685 CURVE SMOOTH",
"754 1629 OFFCURVE",
"728 1525 OFFCURVE",
"664 1525 CURVE SMOOTH",
"580 1525 OFFCURVE",
"528 1767 OFFCURVE",
"388 1767 CURVE SMOOTH",
"246 1767 OFFCURVE",
"181 1515 OFFCURVE",
"78 1515 CURVE SMOOTH",
"51 1515 OFFCURVE",
"28 1534 OFFCURVE",
"13 1557 CURVE",
"5 1554 LINE",
"1 1550 OFFCURVE",
"0 1545 OFFCURVE",
"0 1539 CURVE SMOOTH",
"0 1519 OFFCURVE",
"12 1490 OFFCURVE",
"19 1472 CURVE SMOOTH",
"53 1388 OFFCURVE",
"102 1307 OFFCURVE",
"194 1307 CURVE SMOOTH",
"245 1307 OFFCURVE",
"293 1333 OFFCURVE",
"343 1333 CURVE SMOOTH",
"430 1333 OFFCURVE",
"451 1225 OFFCURVE",
"495 1163 CURVE",
"476 1140 OFFCURVE",
"406 1102 OFFCURVE",
"379 1102 CURVE SMOOTH",
"367 1102 OFFCURVE",
"357 1108 OFFCURVE",
"346 1110 CURVE",
"350 1081 OFFCURVE",
"358 1014 OFFCURVE",
"373 994 CURVE SMOOTH",
"492 835 OFFCURVE",
"558 926 OFFCURVE",
"609 853 CURVE",
"576 834 OFFCURVE",
"527 719 OFFCURVE",
"501 681 CURVE SMOOTH",
"483 654 OFFCURVE",
"451 631 OFFCURVE",
"427 610 CURVE SMOOTH",
"421 604 OFFCURVE",
"413 604 OFFCURVE",
"406 604 CURVE SMOOTH",
"358 604 OFFCURVE",
"271 657 OFFCURVE",
"230 683 CURVE",
"241 646 OFFCURVE",
"249 603 OFFCURVE",
"256 565 CURVE",
"261 561 OFFCURVE",
"320 487 OFFCURVE",
"329 475 CURVE SMOOTH",
"379 410 OFFCURVE",
"434 327 OFFCURVE",
"518 327 CURVE SMOOTH",
"584 327 OFFCURVE",
"659 486 OFFCURVE",
"704 486 CURVE SMOOTH",
"706 486 OFFCURVE",
"707 485 OFFCURVE",
"709 485 CURVE",
"719 463 OFFCURVE",
"728 436 OFFCURVE",
"740 416 CURVE",
"722 359 OFFCURVE",
"704 247 OFFCURVE",
"635 247 CURVE SMOOTH",
"608 247 OFFCURVE",
"583 261 OFFCURVE",
"562 278 CURVE",
"562 243 OFFCURVE",
"566 196 OFFCURVE",
"584 166 CURVE SMOOTH",
"627 98 OFFCURVE",
"686 52 OFFCURVE",
"763 52 CURVE SMOOTH",
"831 52 OFFCURVE",
"888 190 OFFCURVE",
"948 190 CURVE SMOOTH",
"1001 190 OFFCURVE",
"1010 83 OFFCURVE",
"1010 42 CURVE SMOOTH",
"1010 31 LINE",
"998 47 OFFCURVE",
"981 64 OFFCURVE",
"961 64 CURVE SMOOTH",
"936 64 OFFCURVE",
"913 28 OFFCURVE",
"900 8 CURVE SMOOTH",
"872 -33 OFFCURVE",
"841 -39 OFFCURVE",
"801 -62 CURVE",
"837 -183 LINE",
"864 -188 OFFCURVE",
"923 -264 OFFCURVE",
"975 -264 CURVE SMOOTH",
"993 -264 OFFCURVE",
"1005 -251 OFFCURVE",
"1014 -251 CURVE SMOOTH",
"1066 -251 OFFCURVE",
"1117 -480 OFFCURVE",
"1185 -480 CURVE",
"1185 -480 LINE"
);
}
);
width = 1200;
}
);
note = uniE0C3;
unicode = E0C3;
},
{
color = 2;
glyphname = uniE0C4;
lastChange = "2020-07-23 18:20:43 +0000";
layers = (
{
layerId = "F8C3375C-B372-4BAE-A3FB-5A8DC7FA7AB9";
paths = (
{
closed = 1;
nodes = (
"596 885 LINE SMOOTH",
"603 885 OFFCURVE",
"610 893 OFFCURVE",
"610 913 CURVE SMOOTH",
"610 1122 LINE SMOOTH",
"610 1135 OFFCURVE",
"604 1150 OFFCURVE",
"596 1150 CURVE",
"596 1150 LINE",
"487 1150 LINE SMOOTH",
"480 1150 OFFCURVE",
"473 1139 OFFCURVE",
"473 1122 CURVE SMOOTH",
"473 913 LINE SMOOTH",
"473 898 OFFCURVE",
"479 885 OFFCURVE",
"487 885 CURVE SMOOTH"
);
},
{
closed = 1;
nodes = (
"108 -475 LINE",
"108 -264 LINE",
"0 -264 LINE",
"0 -264 LINE",
"0 -475 LINE"
);
},
{
closed = 1;
nodes = (
"273 -475 LINE",
"273 -264 LINE",
"165 -264 LINE",
"165 -264 LINE",
"165 -475 LINE"
);
},
{
closed = 1;
nodes = (
"108 -189 LINE",
"108 21 LINE",
"0 21 LINE",
"0 21 LINE",
"0 -189 LINE"
);
},
{
closed = 1;
nodes = (
"273 -189 LINE",
"273 21 LINE",
"165 21 LINE",
"165 21 LINE",
"165 -189 LINE"
);
},
{
closed = 1;
nodes = (
"596 -480 LINE SMOOTH",
"597 -480 OFFCURVE",
"599 -478 OFFCURVE",
"599 -475 CURVE SMOOTH",
"599 -264 LINE SMOOTH",
"599 -260 OFFCURVE",
"597 -258 OFFCURVE",
"596 -258 CURVE",
"596 -258 LINE",
"487 -258 LINE SMOOTH",
"486 -258 OFFCURVE",
"485 -260 OFFCURVE",
"485 -264 CURVE SMOOTH",
"485 -475 LINE SMOOTH",
"485 -478 OFFCURVE",
"486 -480 OFFCURVE",
"487 -480 CURVE SMOOTH"
);
},
{
closed = 1;
nodes = (
"490 -270 LINE",
"593 -270 LINE",
"593 -270 LINE",
"593 -469 LINE",
"490 -469 LINE"
);
},
{
closed = 1;
nodes = (
"108 92 LINE",
"108 301 LINE",
"0 301 LINE",
"0 301 LINE",
"0 92 LINE"
);
},
{
closed = 1;
nodes = (
"431 -189 LINE",
"431 21 LINE",
"323 21 LINE",
"323 21 LINE",
"323 -189 LINE"
);
},
{
closed = 1;
nodes = (
"273 92 LINE",
"273 301 LINE",
"165 301 LINE",
"165 301 LINE",
"165 92 LINE"
);
},
{
closed = 1;
nodes = (
"108 373 LINE",
"108 584 LINE",
"0 584 LINE",
"0 584 LINE",
"0 373 LINE"
);
},
{
closed = 1;
nodes = (
"431 92 LINE",
"431 301 LINE",
"323 301 LINE",
"323 301 LINE",
"323 92 LINE"
);
},
{
closed = 1;
nodes = (
"273 373 LINE",
"273 584 LINE",
"165 584 LINE",
"165 584 LINE",
"165 373 LINE"
);
},
{
closed = 1;
nodes = (
"596 88 LINE SMOOTH",
"597 88 OFFCURVE",
"599 90 OFFCURVE",
"599 92 CURVE SMOOTH",
"599 301 LINE SMOOTH",
"599 305 OFFCURVE",
"597 307 OFFCURVE",
"596 307 CURVE",
"596 307 LINE",
"487 307 LINE SMOOTH",
"486 307 OFFCURVE",
"485 305 OFFCURVE",
"485 301 CURVE SMOOTH",
"485 92 LINE SMOOTH",
"485 90 OFFCURVE",
"486 88 OFFCURVE",
"487 88 CURVE SMOOTH"
);
},
{
closed = 1;
nodes = (
"490 295 LINE",
"593 295 LINE",
"593 295 LINE",
"593 98 LINE",
"490 98 LINE"
);
},
{
closed = 1;
nodes = (
"108 646 LINE",
"108 855 LINE",
"0 855 LINE",
"0 855 LINE",
"0 646 LINE"
);
},
{
closed = 1;
nodes = (
"273 646 LINE",
"273 855 LINE",
"165 855 LINE",
"165 855 LINE",
"165 646 LINE"
);
},
{
closed = 1;
nodes = (
"900 88 LINE SMOOTH",
"902 88 OFFCURVE",
"903 90 OFFCURVE",
"903 92 CURVE SMOOTH",
"903 301 LINE SMOOTH",
"903 305 OFFCURVE",
"902 307 OFFCURVE",
"900 307 CURVE",
"900 307 LINE",
"792 307 LINE SMOOTH",
"790 307 OFFCURVE",
"789 305 OFFCURVE",
"789 301 CURVE SMOOTH",
"789 92 LINE SMOOTH",
"789 90 OFFCURVE",
"790 88 OFFCURVE",
"792 88 CURVE SMOOTH"
);
},
{
closed = 1;
nodes = (
"795 295 LINE",
"897 295 LINE",
"897 295 LINE",
"897 98 LINE",
"795 98 LINE"
);
},
{
closed = 1;
nodes = (
"108 913 LINE",
"108 1122 LINE",
"0 1122 LINE",
"0 1122 LINE",
"0 913 LINE"
);
},
{
closed = 1;
nodes = (
"431 646 LINE",
"431 855 LINE",
"323 855 LINE",
"323 855 LINE",
"323 646 LINE"
);
},
{
closed = 1;
nodes = (
"745 353 LINE SMOOTH",
"751 353 OFFCURVE",
"757 362 OFFCURVE",
"757 373 CURVE SMOOTH",
"757 584 LINE SMOOTH",
"757 595 OFFCURVE",
"752 607 OFFCURVE",
"745 607 CURVE",
"745 607 LINE",
"637 607 LINE SMOOTH",
"632 607 OFFCURVE",
"625 598 OFFCURVE",
"625 584 CURVE SMOOTH",
"625 373 LINE SMOOTH",
"625 365 OFFCURVE",
"630 353 OFFCURVE",
"637 353 CURVE SMOOTH"
);
},
{
closed = 1;
nodes = (
"649 562 LINE",
"734 562 LINE",
"734 562 LINE",
"734 397 LINE",
"649 397 LINE"
);
},
{
closed = 1;
nodes = (
"273 913 LINE",
"273 1122 LINE",
"165 1122 LINE",
"165 1122 LINE",
"165 913 LINE"
);
},
{
closed = 1;
nodes = (
"596 646 LINE",
"596 646 LINE",
"596 855 LINE",
"487 855 LINE",
"487 646 LINE"
);
},
{
closed = 1;
nodes = (
"108 1177 LINE",
"108 1388 LINE",
"0 1388 LINE",
"0 1388 LINE",
"0 1177 LINE"
);
},
{
closed = 1;
nodes = (
"431 913 LINE",
"431 1122 LINE",
"323 1122 LINE",
"323 1122 LINE",
"323 913 LINE"
);
},
{
closed = 1;
nodes = (
"745 646 LINE",
"745 855 LINE",
"637 855 LINE",
"637 855 LINE",
"637 646 LINE"
);
},
{
closed = 1;
nodes = (
"1047 369 LINE SMOOTH",
"1049 369 OFFCURVE",
"1050 370 OFFCURVE",
"1050 373 CURVE SMOOTH",
"1050 584 LINE SMOOTH",
"1050 588 OFFCURVE",
"1049 591 OFFCURVE",
"1047 591 CURVE",
"1047 591 LINE",
"939 591 LINE SMOOTH",
"938 591 OFFCURVE",
"936 588 OFFCURVE",
"936 584 CURVE SMOOTH",
"936 373 LINE SMOOTH",
"936 370 OFFCURVE",
"938 369 OFFCURVE",
"939 369 CURVE SMOOTH"
);
},
{
closed = 1;
nodes = (
"942 578 LINE",
"1045 578 LINE",
"1045 578 LINE",
"1045 381 LINE",
"942 381 LINE"
);
},
{
closed = 1;
nodes = (
"273 1177 LINE",
"273 1388 LINE",
"165 1388 LINE",
"165 1388 LINE",
"165 1177 LINE"
);
},
{
closed = 1;
nodes = (
"502 1094 LINE",
"581 1094 LINE",
"581 1094 LINE",
"581 940 LINE",
"502 940 LINE"
);
},
{
closed = 1;
nodes = (
"108 1437 LINE",
"108 1645 LINE",
"0 1645 LINE",
"0 1645 LINE",
"0 1437 LINE"
);
},
{
closed = 1;
nodes = (
"431 1177 LINE",
"431 1388 LINE",
"323 1388 LINE",
"323 1388 LINE",
"323 1177 LINE"
);
},
{
closed = 1;
nodes = (
"745 913 LINE",
"745 913 LINE",
"745 1122 LINE",
"637 1122 LINE",
"637 913 LINE"
);
},
{
closed = 1;
nodes = (
"273 1437 LINE",
"273 1645 LINE",
"165 1645 LINE",
"165 1645 LINE",
"165 1437 LINE"
);
},
{
closed = 1;
nodes = (
"900 906 LINE SMOOTH",
"902 906 OFFCURVE",
"903 908 OFFCURVE",
"903 913 CURVE SMOOTH",
"903 1122 LINE SMOOTH",
"903 1125 OFFCURVE",
"902 1127 OFFCURVE",
"900 1127 CURVE",
"900 1127 LINE",
"792 1127 LINE SMOOTH",
"790 1127 OFFCURVE",
"789 1125 OFFCURVE",
"789 1122 CURVE SMOOTH",
"789 913 LINE SMOOTH",
"789 908 OFFCURVE",
"790 906 OFFCURVE",
"792 906 CURVE SMOOTH"
);
},
{
closed = 1;
nodes = (
"795 1117 LINE",
"897 1117 LINE",
"897 1117 LINE",
"897 919 LINE",
"795 919 LINE"
);
},
{
closed = 1;
nodes = (
"108 1710 LINE",
"108 1919 LINE",
"0 1919 LINE",
"0 1919 LINE",
"0 1710 LINE"
);
},
{
closed = 1;
nodes = (
"431 1437 LINE",
"431 1645 LINE",
"323 1645 LINE",
"323 1645 LINE",
"323 1437 LINE"
);
},
{
closed = 1;
nodes = (
"745 1154 LINE SMOOTH",
"751 1154 OFFCURVE",
"757 1164 OFFCURVE",
"757 1177 CURVE SMOOTH",
"757 1388 LINE SMOOTH",
"757 1397 OFFCURVE",
"752 1411 OFFCURVE",
"745 1411 CURVE",
"745 1411 LINE",
"637 1411 LINE SMOOTH",
"632 1411 OFFCURVE",
"625 1400 OFFCURVE",
"625 1388 CURVE SMOOTH",
"625 1177 LINE SMOOTH",
"625 1167 OFFCURVE",
"630 1154 OFFCURVE",
"637 1154 CURVE SMOOTH"
);
},
{
closed = 1;
nodes = (
"649 1364 LINE",
"734 1364 LINE",
"734 1364 LINE",
"734 1200 LINE",
"649 1200 LINE"
);
},
{
closed = 1;
nodes = (
"273 1710 LINE",
"273 1919 LINE",
"165 1919 LINE",
"165 1919 LINE",
"165 1710 LINE"
);
},
{
closed = 1;
nodes = (
"596 1437 LINE",
"596 1645 LINE",
"487 1645 LINE",
"487 1645 LINE",
"487 1437 LINE"
);
},
{
closed = 1;
nodes = (
"108 1998 LINE",
"108 2209 LINE",
"0 2209 LINE",
"0 2209 LINE",
"0 1998 LINE"
);
},
{
closed = 1;
nodes = (
"431 1710 LINE",
"431 1919 LINE",
"323 1919 LINE",
"323 1919 LINE",
"323 1710 LINE"
);
},
{
closed = 1;
nodes = (
"745 1414 LINE SMOOTH",
"751 1414 OFFCURVE",
"757 1424 OFFCURVE",
"757 1437 CURVE SMOOTH",
"757 1645 LINE SMOOTH",
"757 1655 OFFCURVE",
"752 1668 OFFCURVE",
"745 1668 CURVE",
"745 1668 LINE",
"637 1668 LINE SMOOTH",
"632 1668 OFFCURVE",
"625 1657 OFFCURVE",
"625 1645 CURVE SMOOTH",
"625 1437 LINE SMOOTH",
"625 1426 OFFCURVE",
"630 1414 OFFCURVE",
"637 1414 CURVE SMOOTH"
);
},
{
closed = 1;
nodes = (
"649 1623 LINE",
"734 1623 LINE",
"734 1623 LINE",
"734 1460 LINE",
"649 1460 LINE"
);
},
{
closed = 1;
nodes = (
"273 1998 LINE",
"273 2209 LINE",
"165 2209 LINE",
"165 2209 LINE",
"165 1998 LINE"
);
},
{
closed = 1;
nodes = (
"596 1710 LINE",
"596 1710 LINE",
"596 1919 LINE",
"487 1919 LINE",
"487 1710 LINE"
);
},
{
closed = 1;
nodes = (
"431 1998 LINE",
"431 2209 LINE",
"323 2209 LINE",
"323 2209 LINE",
"323 1998 LINE"
);
},
{
closed = 1;
nodes = (
"593 1983 LINE SMOOTH",
"597 1983 OFFCURVE",
"602 1991 OFFCURVE",
"602 1998 CURVE SMOOTH",
"602 2209 LINE SMOOTH",
"602 2217 OFFCURVE",
"598 2226 OFFCURVE",
"593 2226 CURVE SMOOTH",
"485 2226 LINE SMOOTH",
"481 2226 OFFCURVE",
"476 2218 OFFCURVE",
"476 2209 CURVE SMOOTH",
"476 1998 LINE SMOOTH",
"476 1992 OFFCURVE",
"480 1983 OFFCURVE",
"485 1983 CURVE",
"485 1983 LINE"
);
},
{
closed = 1;
nodes = (
"494 2193 LINE",
"585 2193 LINE",
"585 2016 LINE",
"494 2016 LINE",
"494 2016 LINE"
);
},
{
closed = 1;
nodes = (
"900 1710 LINE",
"900 1710 LINE",
"900 1919 LINE",
"792 1919 LINE",
"792 1710 LINE"
);
},
{
closed = 1;
nodes = (
"745 1998 LINE",
"745 1998 LINE",
"745 2209 LINE",
"637 2209 LINE",
"637 1998 LINE"
);
},
{
closed = 1;
nodes = (
"900 1998 LINE",
"900 1998 LINE",
"900 2209 LINE",
"792 2209 LINE",
"792 1998 LINE"
);
},
{
closed = 1;
nodes = (
"1197 1703 LINE SMOOTH",
"1199 1703 OFFCURVE",
"1200 1705 OFFCURVE",
"1200 1710 CURVE SMOOTH",
"1200 1919 LINE SMOOTH",
"1200 1922 OFFCURVE",
"1199 1923 OFFCURVE",
"1197 1923 CURVE",
"1197 1923 LINE",
"1089 1923 LINE SMOOTH",
"1087 1923 OFFCURVE",
"1086 1922 OFFCURVE",
"1086 1919 CURVE SMOOTH",
"1086 1710 LINE SMOOTH",
"1086 1705 OFFCURVE",
"1087 1703 OFFCURVE",
"1089 1703 CURVE SMOOTH"
);
},
{
closed = 1;
nodes = (
"1092 1914 LINE",
"1194 1914 LINE",
"1194 1914 LINE",
"1194 1716 LINE",
"1092 1716 LINE"
);
},
{
closed = 1;
nodes = (
"1197 1994 LINE SMOOTH",
"1199 1994 OFFCURVE",
"1200 1995 OFFCURVE",
"1200 1998 CURVE SMOOTH",
"1200 2209 LINE SMOOTH",
"1200 2213 OFFCURVE",
"1199 2215 OFFCURVE",
"1197 2215 CURVE",
"1197 2215 LINE",
"1089 2215 LINE SMOOTH",
"1087 2215 OFFCURVE",
"1086 2213 OFFCURVE",
"1086 2209 CURVE SMOOTH",
"1086 1998 LINE SMOOTH",
"1086 1995 OFFCURVE",
"1087 1994 OFFCURVE",
"1089 1994 CURVE SMOOTH"
);
},
{
closed = 1;
nodes = (
"1092 2203 LINE",
"1194 2203 LINE",
"1194 2203 LINE",
"1194 2002 LINE",
"1092 2002 LINE"
);
}
);
width = 1200;
}
);
note = uniE0C4;
unicode = E0C4;
},
{
color = 2;
glyphname = uniE0C5;
lastChange = "2020-07-23 18:20:43 +0000";
layers = (
{
layerId = "F8C3375C-B372-4BAE-A3FB-5A8DC7FA7AB9";
paths = (
{
closed = 1;
nodes = (
"713 884 LINE SMOOTH",
"721 884 OFFCURVE",
"727 898 OFFCURVE",
"727 913 CURVE SMOOTH",
"727 1122 LINE SMOOTH",
"727 1138 OFFCURVE",
"720 1150 OFFCURVE",
"713 1150 CURVE",
"713 1150 LINE",
"604 1150 LINE SMOOTH",
"596 1150 OFFCURVE",
"590 1135 OFFCURVE",
"590 1122 CURVE SMOOTH",
"590 913 LINE SMOOTH",
"590 895 OFFCURVE",
"597 884 OFFCURVE",
"604 884 CURVE SMOOTH"
);
},
{
closed = 1;
nodes = (
"713 -480 LINE SMOOTH",
"714 -480 OFFCURVE",
"715 -478 OFFCURVE",
"715 -474 CURVE SMOOTH",
"715 -264 LINE SMOOTH",
"715 -261 OFFCURVE",
"714 -258 OFFCURVE",
"713 -258 CURVE",
"713 -258 LINE",
"604 -258 LINE SMOOTH",
"603 -258 OFFCURVE",
"601 -261 OFFCURVE",
"601 -264 CURVE SMOOTH",
"601 -474 LINE SMOOTH",
"601 -478 OFFCURVE",
"603 -480 OFFCURVE",
"604 -480 CURVE SMOOTH"
);
},
{
closed = 1;
nodes = (
"607 -270 LINE",
"710 -270 LINE",
"710 -270 LINE",
"710 -469 LINE",
"607 -469 LINE"
);
},
{
closed = 1;
nodes = (
"408 87 LINE SMOOTH",
"410 87 OFFCURVE",
"411 90 OFFCURVE",
"411 92 CURVE SMOOTH",
"411 302 LINE SMOOTH",
"411 306 OFFCURVE",
"410 308 OFFCURVE",
"408 308 CURVE",
"408 308 LINE",
"300 308 LINE SMOOTH",
"298 308 OFFCURVE",
"297 306 OFFCURVE",
"297 302 CURVE SMOOTH",
"297 92 LINE SMOOTH",
"297 90 OFFCURVE",
"298 87 OFFCURVE",
"300 87 CURVE SMOOTH"
);
},
{
closed = 1;
nodes = (
"303 297 LINE",
"405 297 LINE",
"405 297 LINE",
"405 98 LINE",
"303 98 LINE"
);
},
{
closed = 1;
nodes = (
"1035 -474 LINE",
"1035 -264 LINE",
"927 -264 LINE",
"927 -264 LINE",
"927 -474 LINE"
);
},
{
closed = 1;
nodes = (
"261 369 LINE SMOOTH",
"262 369 OFFCURVE",
"264 370 OFFCURVE",
"264 374 CURVE SMOOTH",
"264 584 LINE SMOOTH",
"264 588 OFFCURVE",
"262 590 OFFCURVE",
"261 590 CURVE",
"261 590 LINE",
"153 590 LINE SMOOTH",
"151 590 OFFCURVE",
"150 588 OFFCURVE",
"150 584 CURVE SMOOTH",
"150 374 LINE SMOOTH",
"150 370 OFFCURVE",
"151 369 OFFCURVE",
"153 369 CURVE SMOOTH"
);
},
{
closed = 1;
nodes = (
"155 579 LINE",
"258 579 LINE",
"258 579 LINE",
"258 381 LINE",
"155 381 LINE"
);
},
{
closed = 1;
nodes = (
"877 -189 LINE",
"877 20 LINE",
"769 20 LINE",
"769 20 LINE",
"769 -189 LINE"
);
},
{
closed = 1;
nodes = (
"1200 -474 LINE",
"1200 -264 LINE",
"1092 -264 LINE",
"1092 -264 LINE",
"1092 -474 LINE"
);
},
{
closed = 1;
nodes = (
"713 87 LINE SMOOTH",
"714 87 OFFCURVE",
"715 90 OFFCURVE",
"715 92 CURVE SMOOTH",
"715 302 LINE SMOOTH",
"715 306 OFFCURVE",
"714 308 OFFCURVE",
"713 308 CURVE",
"713 308 LINE",
"604 308 LINE SMOOTH",
"603 308 OFFCURVE",
"601 306 OFFCURVE",
"601 302 CURVE SMOOTH",
"601 92 LINE SMOOTH",
"601 90 OFFCURVE",
"603 87 OFFCURVE",
"604 87 CURVE SMOOTH"
);
},
{
closed = 1;
nodes = (
"607 297 LINE",
"710 297 LINE",
"710 297 LINE",
"710 98 LINE",
"607 98 LINE"
);
},
{
closed = 1;
nodes = (
"1035 -189 LINE",
"1035 20 LINE",
"927 20 LINE",
"927 20 LINE",
"927 -189 LINE"
);
},
{
closed = 1;
nodes = (
"563 352 LINE SMOOTH",
"570 352 OFFCURVE",
"575 365 OFFCURVE",
"575 374 CURVE SMOOTH",
"575 584 LINE SMOOTH",
"575 598 OFFCURVE",
"568 608 OFFCURVE",
"563 608 CURVE",
"563 608 LINE",
"455 608 LINE SMOOTH",
"448 608 OFFCURVE",
"443 594 OFFCURVE",
"443 584 CURVE SMOOTH",
"443 374 LINE SMOOTH",
"443 361 OFFCURVE",
"449 352 OFFCURVE",
"455 352 CURVE SMOOTH"
);
},
{
closed = 1;
nodes = (
"466 561 LINE",
"551 561 LINE",
"551 561 LINE",
"551 398 LINE",
"466 398 LINE"
);
},
{
closed = 1;
nodes = (
"877 92 LINE",
"877 302 LINE",
"769 302 LINE",
"769 302 LINE",
"769 92 LINE"
);
},
{
closed = 1;
nodes = (
"1200 -189 LINE",
"1200 20 LINE",
"1092 20 LINE",
"1092 20 LINE",
"1092 -189 LINE"
);
},
{
closed = 1;
nodes = (
"1035 92 LINE",
"1035 302 LINE",
"927 302 LINE",
"927 302 LINE",
"927 92 LINE"
);
},
{
closed = 1;
nodes = (
"563 648 LINE",
"563 856 LINE",
"455 856 LINE",
"455 856 LINE",
"455 648 LINE"
);
},
{
closed = 1;
nodes = (
"1200 92 LINE",
"1200 302 LINE",
"1092 302 LINE",
"1092 302 LINE",
"1092 92 LINE"
);
},
{
closed = 1;
nodes = (
"408 906 LINE SMOOTH",
"410 906 OFFCURVE",
"411 908 OFFCURVE",
"411 913 CURVE SMOOTH",
"411 1122 LINE SMOOTH",
"411 1125 OFFCURVE",
"410 1128 OFFCURVE",
"408 1128 CURVE",
"408 1128 LINE",
"300 1128 LINE SMOOTH",
"298 1128 OFFCURVE",
"297 1125 OFFCURVE",
"297 1122 CURVE SMOOTH",
"297 913 LINE SMOOTH",
"297 908 OFFCURVE",
"298 906 OFFCURVE",
"300 906 CURVE SMOOTH"
);
},
{
closed = 1;
nodes = (
"303 1116 LINE",
"405 1116 LINE",
"405 1116 LINE",
"405 918 LINE",
"303 918 LINE"
);
},
{
closed = 1;
nodes = (
"713 648 LINE",
"713 648 LINE",
"713 856 LINE",
"604 856 LINE",
"604 648 LINE"
);
},
{
closed = 1;
nodes = (
"1035 374 LINE",
"1035 584 LINE",
"927 584 LINE",
"927 584 LINE",
"927 374 LINE"
);
},
{
closed = 1;
nodes = (
"563 913 LINE",
"563 913 LINE",
"563 1122 LINE",
"455 1122 LINE",
"455 913 LINE"
);
},
{
closed = 1;
nodes = (
"877 648 LINE",
"877 856 LINE",
"769 856 LINE",
"769 856 LINE",
"769 648 LINE"
);
},
{
closed = 1;
nodes = (
"1200 374 LINE",
"1200 584 LINE",
"1092 584 LINE",
"1092 584 LINE",
"1092 374 LINE"
);
},
{
closed = 1;
nodes = (
"619 1094 LINE",
"698 1094 LINE",
"698 1094 LINE",
"698 940 LINE",
"619 940 LINE"
);
},
{
closed = 1;
nodes = (
"1035 648 LINE",
"1035 856 LINE",
"927 856 LINE",
"927 856 LINE",
"927 648 LINE"
);
},
{
closed = 1;
nodes = (
"563 1155 LINE SMOOTH",
"570 1155 OFFCURVE",
"575 1167 OFFCURVE",
"575 1177 CURVE SMOOTH",
"575 1387 LINE SMOOTH",
"575 1401 OFFCURVE",
"568 1411 OFFCURVE",
"563 1411 CURVE",
"563 1411 LINE",
"455 1411 LINE SMOOTH",
"448 1411 OFFCURVE",
"443 1397 OFFCURVE",
"443 1387 CURVE SMOOTH",
"443 1177 LINE SMOOTH",
"443 1164 OFFCURVE",
"449 1155 OFFCURVE",
"455 1155 CURVE SMOOTH"
);
},
{
closed = 1;
nodes = (
"466 1364 LINE",
"551 1364 LINE",
"551 1364 LINE",
"551 1200 LINE",
"466 1200 LINE"
);
},
{
closed = 1;
nodes = (
"877 913 LINE",
"877 1122 LINE",
"769 1122 LINE",
"769 1122 LINE",
"769 913 LINE"
);
},
{
closed = 1;
nodes = (
"111 1703 LINE SMOOTH",
"113 1703 OFFCURVE",
"114 1705 OFFCURVE",
"114 1710 CURVE SMOOTH",
"114 1919 LINE SMOOTH",
"114 1922 OFFCURVE",
"113 1925 OFFCURVE",
"111 1925 CURVE",
"111 1925 LINE",
"3 1925 LINE SMOOTH",
"1 1925 OFFCURVE",
"0 1922 OFFCURVE",
"0 1919 CURVE SMOOTH",
"0 1710 LINE SMOOTH",
"0 1705 OFFCURVE",
"1 1703 OFFCURVE",
"3 1703 CURVE SMOOTH"
);
},
{
closed = 1;
nodes = (
"6 1913 LINE",
"108 1913 LINE",
"108 1913 LINE",
"108 1715 LINE",
"6 1715 LINE"
);
},
{
closed = 1;
nodes = (
"1200 648 LINE",
"1200 856 LINE",
"1092 856 LINE",
"1092 856 LINE",
"1092 648 LINE"
);
},
{
closed = 1;
nodes = (
"1035 913 LINE",
"1035 1122 LINE",
"927 1122 LINE",
"927 1122 LINE",
"927 913 LINE"
);
},
{
closed = 1;
nodes = (
"563 1413 LINE SMOOTH",
"570 1413 OFFCURVE",
"575 1426 OFFCURVE",
"575 1436 CURVE SMOOTH",
"575 1646 LINE SMOOTH",
"575 1658 OFFCURVE",
"568 1668 OFFCURVE",
"563 1668 CURVE",
"563 1668 LINE",
"455 1668 LINE SMOOTH",
"448 1668 OFFCURVE",
"443 1655 OFFCURVE",
"443 1646 CURVE SMOOTH",
"443 1436 LINE SMOOTH",
"443 1422 OFFCURVE",
"449 1413 OFFCURVE",
"455 1413 CURVE SMOOTH"
);
},
{
closed = 1;
nodes = (
"466 1622 LINE",
"551 1622 LINE",
"551 1622 LINE",
"551 1459 LINE",
"466 1459 LINE"
);
},
{
closed = 1;
nodes = (
"877 1177 LINE",
"877 1387 LINE",
"769 1387 LINE",
"769 1387 LINE",
"769 1177 LINE"
);
},
{
closed = 1;
nodes = (
"111 1994 LINE SMOOTH",
"113 1994 OFFCURVE",
"114 1996 OFFCURVE",
"114 2000 CURVE SMOOTH",
"114 2209 LINE SMOOTH",
"114 2212 OFFCURVE",
"113 2215 OFFCURVE",
"111 2215 CURVE",
"111 2215 LINE",
"3 2215 LINE SMOOTH",
"1 2215 OFFCURVE",
"0 2212 OFFCURVE",
"0 2209 CURVE SMOOTH",
"0 2000 LINE SMOOTH",
"0 1996 OFFCURVE",
"1 1994 OFFCURVE",
"3 1994 CURVE SMOOTH"
);
},
{
closed = 1;
nodes = (
"6 2203 LINE",
"108 2203 LINE",
"108 2203 LINE",
"108 2004 LINE",
"6 2004 LINE"
);
},
{
closed = 1;
nodes = (
"1200 913 LINE",
"1200 1122 LINE",
"1092 1122 LINE",
"1092 1122 LINE",
"1092 913 LINE"
);
},
{
closed = 1;
nodes = (
"408 1710 LINE",
"408 1710 LINE",
"408 1919 LINE",
"300 1919 LINE",
"300 1710 LINE"
);
},
{
closed = 1;
nodes = (
"713 1436 LINE",
"713 1646 LINE",
"604 1646 LINE",
"604 1646 LINE",
"604 1436 LINE"
);
},
{
closed = 1;
nodes = (
"1035 1177 LINE",
"1035 1387 LINE",
"927 1387 LINE",
"927 1387 LINE",
"927 1177 LINE"
);
},
{
closed = 1;
nodes = (
"877 1436 LINE",
"877 1646 LINE",
"769 1646 LINE",
"769 1646 LINE",
"769 1436 LINE"
);
},
{
closed = 1;
nodes = (
"1200 1177 LINE",
"1200 1387 LINE",
"1092 1387 LINE",
"1092 1387 LINE",
"1092 1177 LINE"
);
},
{
closed = 1;
nodes = (
"408 2000 LINE",
"408 2000 LINE",
"408 2209 LINE",
"300 2209 LINE",
"300 2000 LINE"
);
},
{
closed = 1;
nodes = (
"713 1710 LINE",
"713 1710 LINE",
"713 1919 LINE",
"604 1919 LINE",
"604 1710 LINE"
);
},
{
closed = 1;
nodes = (
"1035 1436 LINE",
"1035 1646 LINE",
"927 1646 LINE",
"927 1646 LINE",
"927 1436 LINE"
);
},
{
closed = 1;
nodes = (
"563 2000 LINE",
"563 2000 LINE",
"563 2209 LINE",
"455 2209 LINE",
"455 2000 LINE"
);
},
{
closed = 1;
nodes = (
"877 1710 LINE",
"877 1919 LINE",
"769 1919 LINE",
"769 1919 LINE",
"769 1710 LINE"
);
},
{
closed = 1;
nodes = (
"1200 1436 LINE",
"1200 1646 LINE",
"1092 1646 LINE",
"1092 1646 LINE",
"1092 1436 LINE"
);
},
{
closed = 1;
nodes = (
"715 1983 LINE SMOOTH",
"720 1983 OFFCURVE",
"724 1992 OFFCURVE",
"724 2000 CURVE SMOOTH",
"724 2209 LINE SMOOTH",
"724 2218 OFFCURVE",
"719 2226 OFFCURVE",
"715 2226 CURVE SMOOTH",
"607 2226 LINE SMOOTH",
"602 2226 OFFCURVE",
"598 2217 OFFCURVE",
"598 2209 CURVE SMOOTH",
"598 2000 LINE SMOOTH",
"598 1991 OFFCURVE",
"603 1983 OFFCURVE",
"607 1983 CURVE",
"607 1983 LINE"
);
},
{
closed = 1;
nodes = (
"615 2192 LINE",
"706 2192 LINE",
"706 2016 LINE",
"615 2016 LINE",
"615 2016 LINE"
);
},
{
closed = 1;
nodes = (
"1035 1710 LINE",
"1035 1919 LINE",
"927 1919 LINE",
"927 1919 LINE",
"927 1710 LINE"
);
},
{
closed = 1;
nodes = (
"877 2000 LINE",
"877 2209 LINE",
"769 2209 LINE",
"769 2209 LINE",
"769 2000 LINE"
);
},
{
closed = 1;
nodes = (
"1200 1710 LINE",
"1200 1919 LINE",
"1092 1919 LINE",
"1092 1919 LINE",
"1092 1710 LINE"
);
},
{
closed = 1;
nodes = (
"1035 2000 LINE",
"1035 2209 LINE",
"927 2209 LINE",
"927 2209 LINE",
"927 2000 LINE"
);
},
{
closed = 1;
nodes = (
"1200 2000 LINE",
"1200 2209 LINE",
"1200 2209 LINE",
"1092 2209 LINE",
"1092 2000 LINE"
);
}
);
width = 1200;
}
);
note = uniE0C5;
unicode = E0C5;
},
{
color = 2;
glyphname = uniE0C6;
lastChange = "2020-07-23 18:20:43 +0000";
layers = (
{
layerId = "F8C3375C-B372-4BAE-A3FB-5A8DC7FA7AB9";
paths = (
{
closed = 1;
nodes = (
"944 287 LINE SMOOTH",
"956 287 OFFCURVE",
"968 307 OFFCURVE",
"968 328 CURVE SMOOTH",
"968 632 LINE SMOOTH",
"968 651 OFFCURVE",
"957 673 OFFCURVE",
"944 673 CURVE",
"944 673 LINE",
"773 673 LINE SMOOTH",
"763 673 OFFCURVE",
"750 654 OFFCURVE",
"750 632 CURVE SMOOTH",
"750 328 LINE SMOOTH",
"750 309 OFFCURVE",
"760 287 OFFCURVE",
"773 287 CURVE SMOOTH"
);
},
{
closed = 1;
nodes = (
"172 -446 LINE",
"172 -143 LINE",
"0 -143 LINE",
"0 -143 LINE",
"0 -446 LINE"
);
},
{
closed = 1;
nodes = (
"433 -446 LINE",
"433 -143 LINE",
"261 -143 LINE",
"261 -143 LINE",
"261 -446 LINE"
);
},
{
closed = 1;
nodes = (
"172 -54 LINE",
"172 249 LINE",
"0 249 LINE",
"0 249 LINE",
"0 -54 LINE"
);
},
{
closed = 1;
nodes = (
"433 -54 LINE",
"433 249 LINE",
"261 249 LINE",
"261 249 LINE",
"261 -54 LINE"
);
},
{
closed = 1;
nodes = (
"172 328 LINE",
"172 632 LINE",
"0 632 LINE",
"0 632 LINE",
"0 328 LINE"
);
},
{
closed = 1;
nodes = (
"683 -81 LINE SMOOTH",
"690 -81 OFFCURVE",
"698 -70 OFFCURVE",
"698 -54 CURVE SMOOTH",
"698 249 LINE SMOOTH",
"698 261 OFFCURVE",
"691 275 OFFCURVE",
"683 275 CURVE",
"683 275 LINE",
"512 275 LINE SMOOTH",
"504 275 OFFCURVE",
"496 264 OFFCURVE",
"496 249 CURVE SMOOTH",
"496 -54 LINE SMOOTH",
"496 -67 OFFCURVE",
"502 -81 OFFCURVE",
"512 -81 CURVE SMOOTH"
);
},
{
closed = 1;
nodes = (
"527 222 LINE",
"667 222 LINE",
"667 222 LINE",
"667 -27 LINE",
"527 -27 LINE"
);
},
{
closed = 1;
nodes = (
"1181 -480 LINE SMOOTH",
"1191 -480 OFFCURVE",
"1200 -466 OFFCURVE",
"1200 -446 CURVE SMOOTH",
"1200 -143 LINE SMOOTH",
"1200 -129 OFFCURVE",
"1192 -112 OFFCURVE",
"1181 -112 CURVE",
"1181 -112 LINE",
"1010 -112 LINE SMOOTH",
"1001 -112 OFFCURVE",
"992 -125 OFFCURVE",
"992 -143 CURVE SMOOTH",
"992 -446 LINE SMOOTH",
"992 -463 OFFCURVE",
"1000 -480 OFFCURVE",
"1010 -480 CURVE SMOOTH"
);
},
{
closed = 1;
nodes = (
"1029 -178 LINE",
"1163 -178 LINE",
"1163 -178 LINE",
"1163 -415 LINE",
"1029 -415 LINE"
);
},
{
closed = 1;
nodes = (
"433 328 LINE",
"433 632 LINE",
"261 632 LINE",
"261 632 LINE",
"261 328 LINE"
);
},
{
closed = 1;
nodes = (
"172 713 LINE",
"172 1016 LINE",
"0 1016 LINE",
"0 1016 LINE",
"0 713 LINE"
);
},
{
closed = 1;
nodes = (
"172 1084 LINE",
"172 1389 LINE",
"0 1389 LINE",
"0 1389 LINE",
"0 1084 LINE"
);
},
{
closed = 1;
nodes = (
"796 590 LINE",
"921 590 LINE",
"921 590 LINE",
"921 372 LINE",
"796 372 LINE"
);
},
{
closed = 1;
nodes = (
"683 713 LINE",
"683 1016 LINE",
"512 1016 LINE",
"512 1016 LINE",
"512 713 LINE"
);
},
{
closed = 1;
nodes = (
"433 1084 LINE",
"433 1389 LINE",
"261 1389 LINE",
"261 1389 LINE",
"261 1084 LINE"
);
},
{
closed = 1;
nodes = (
"172 1480 LINE",
"172 1783 LINE",
"0 1783 LINE",
"0 1783 LINE",
"0 1480 LINE"
);
},
{
closed = 1;
nodes = (
"683 1071 LINE SMOOTH",
"687 1071 OFFCURVE",
"691 1077 OFFCURVE",
"691 1084 CURVE SMOOTH",
"691 1389 LINE SMOOTH",
"691 1394 OFFCURVE",
"688 1403 OFFCURVE",
"683 1403 CURVE SMOOTH",
"512 1403 LINE SMOOTH",
"508 1403 OFFCURVE",
"504 1394 OFFCURVE",
"504 1389 CURVE SMOOTH",
"504 1084 LINE SMOOTH",
"504 1079 OFFCURVE",
"507 1071 OFFCURVE",
"512 1071 CURVE",
"512 1071 LINE"
);
},
{
closed = 1;
nodes = (
"519 1374 LINE",
"675 1374 LINE",
"675 1099 LINE",
"519 1099 LINE",
"519 1099 LINE"
);
},
{
closed = 1;
nodes = (
"433 1480 LINE",
"433 1783 LINE",
"261 1783 LINE",
"261 1783 LINE",
"261 1480 LINE"
);
},
{
closed = 1;
nodes = (
"172 1899 LINE",
"172 2202 LINE",
"0 2202 LINE",
"0 2202 LINE",
"0 1899 LINE"
);
},
{
closed = 1;
nodes = (
"683 1480 LINE",
"683 1783 LINE",
"512 1783 LINE",
"512 1783 LINE",
"512 1480 LINE"
);
},
{
closed = 1;
nodes = (
"1181 1053 LINE SMOOTH",
"1191 1053 OFFCURVE",
"1200 1067 OFFCURVE",
"1200 1084 CURVE SMOOTH",
"1200 1389 LINE SMOOTH",
"1200 1404 OFFCURVE",
"1192 1420 OFFCURVE",
"1181 1420 CURVE",
"1181 1420 LINE",
"1010 1420 LINE SMOOTH",
"1002 1420 OFFCURVE",
"992 1406 OFFCURVE",
"992 1389 CURVE SMOOTH",
"992 1084 LINE SMOOTH",
"992 1070 OFFCURVE",
"1000 1053 OFFCURVE",
"1010 1053 CURVE SMOOTH"
);
},
{
closed = 1;
nodes = (
"1029 1355 LINE",
"1163 1355 LINE",
"1163 1355 LINE",
"1163 1117 LINE",
"1029 1117 LINE"
);
},
{
closed = 1;
nodes = (
"433 1899 LINE",
"433 2202 LINE",
"261 2202 LINE",
"261 2202 LINE",
"261 1899 LINE"
);
},
{
closed = 1;
nodes = (
"944 1467 LINE SMOOTH",
"949 1467 OFFCURVE",
"952 1472 OFFCURVE",
"952 1480 CURVE SMOOTH",
"952 1783 LINE SMOOTH",
"952 1791 OFFCURVE",
"949 1796 OFFCURVE",
"944 1796 CURVE",
"944 1796 LINE",
"773 1796 LINE SMOOTH",
"770 1796 OFFCURVE",
"765 1791 OFFCURVE",
"765 1783 CURVE SMOOTH",
"765 1480 LINE SMOOTH",
"765 1473 OFFCURVE",
"769 1467 OFFCURVE",
"773 1467 CURVE SMOOTH"
);
},
{
closed = 1;
nodes = (
"781 1769 LINE",
"937 1769 LINE",
"937 1769 LINE",
"937 1493 LINE",
"781 1493 LINE"
);
},
{
closed = 1;
nodes = (
"683 1885 LINE SMOOTH",
"687 1885 OFFCURVE",
"691 1892 OFFCURVE",
"691 1899 CURVE SMOOTH",
"691 2202 LINE SMOOTH",
"691 2208 OFFCURVE",
"688 2215 OFFCURVE",
"683 2215 CURVE SMOOTH",
"512 2215 LINE SMOOTH",
"508 2215 OFFCURVE",
"504 2208 OFFCURVE",
"504 2202 CURVE SMOOTH",
"504 1899 LINE SMOOTH",
"504 1892 OFFCURVE",
"507 1885 OFFCURVE",
"512 1885 CURVE",
"512 1885 LINE"
);
},
{
closed = 1;
nodes = (
"519 2187 LINE",
"675 2187 LINE",
"675 1912 LINE",
"519 1912 LINE",
"519 1912 LINE"
);
},
{
closed = 1;
nodes = (
"940 1874 LINE SMOOTH",
"947 1874 OFFCURVE",
"955 1885 OFFCURVE",
"955 1899 CURVE SMOOTH",
"955 2202 LINE SMOOTH",
"955 2213 OFFCURVE",
"949 2226 OFFCURVE",
"940 2226 CURVE SMOOTH",
"769 2226 LINE SMOOTH",
"763 2226 OFFCURVE",
"755 2215 OFFCURVE",
"755 2202 CURVE SMOOTH",
"755 1899 LINE SMOOTH",
"755 1887 OFFCURVE",
"761 1874 OFFCURVE",
"769 1874 CURVE",
"769 1874 LINE"
);
},
{
closed = 1;
nodes = (
"784 2176 LINE",
"927 2176 LINE",
"927 1924 LINE",
"784 1924 LINE",
"784 1924 LINE"
);
}
);
width = 1200;
}
);
note = uniE0C6;
unicode = E0C6;
},
{
color = 2;
glyphname = uniE0C7;
lastChange = "2020-07-23 18:20:43 +0000";
layers = (
{
layerId = "F8C3375C-B372-4BAE-A3FB-5A8DC7FA7AB9";
paths = (
{
closed = 1;
nodes = (
"428 287 LINE SMOOTH",
"440 287 OFFCURVE",
"450 309 OFFCURVE",
"450 330 CURVE SMOOTH",
"450 632 LINE SMOOTH",
"450 654 OFFCURVE",
"438 673 OFFCURVE",
"428 673 CURVE",
"428 673 LINE",
"256 673 LINE SMOOTH",
"243 673 OFFCURVE",
"232 650 OFFCURVE",
"232 632 CURVE SMOOTH",
"232 330 LINE SMOOTH",
"232 306 OFFCURVE",
"245 287 OFFCURVE",
"256 287 CURVE SMOOTH"
);
},
{
closed = 1;
nodes = (
"190 -480 LINE SMOOTH",
"200 -480 OFFCURVE",
"209 -463 OFFCURVE",
"209 -446 CURVE SMOOTH",
"209 -145 LINE SMOOTH",
"209 -128 OFFCURVE",
"198 -112 OFFCURVE",
"190 -112 CURVE",
"190 -112 LINE",
"19 -112 LINE SMOOTH",
"8 -112 OFFCURVE",
"0 -129 OFFCURVE",
"0 -145 CURVE SMOOTH",
"0 -446 LINE SMOOTH",
"0 -465 OFFCURVE",
"9 -480 OFFCURVE",
"19 -480 CURVE SMOOTH"
);
},
{
closed = 1;
nodes = (
"37 -176 LINE",
"172 -176 LINE",
"172 -176 LINE",
"172 -415 LINE",
"37 -415 LINE"
);
},
{
closed = 1;
nodes = (
"939 -446 LINE",
"939 -145 LINE",
"767 -145 LINE",
"767 -145 LINE",
"767 -446 LINE"
);
},
{
closed = 1;
nodes = (
"688 -81 LINE SMOOTH",
"698 -81 OFFCURVE",
"704 -67 OFFCURVE",
"704 -54 CURVE SMOOTH",
"704 249 LINE SMOOTH",
"704 264 OFFCURVE",
"696 276 OFFCURVE",
"688 276 CURVE",
"688 276 LINE",
"517 276 LINE SMOOTH",
"508 276 OFFCURVE",
"502 261 OFFCURVE",
"502 249 CURVE SMOOTH",
"502 -54 LINE SMOOTH",
"502 -71 OFFCURVE",
"510 -81 OFFCURVE",
"517 -81 CURVE SMOOTH"
);
},
{
closed = 1;
nodes = (
"533 222 LINE",
"674 222 LINE",
"674 222 LINE",
"674 -26 LINE",
"533 -26 LINE"
);
},
{
closed = 1;
nodes = (
"1200 -446 LINE",
"1200 -145 LINE",
"1029 -145 LINE",
"1029 -145 LINE",
"1029 -446 LINE"
);
},
{
closed = 1;
nodes = (
"279 591 LINE",
"404 591 LINE",
"404 591 LINE",
"404 369 LINE",
"279 369 LINE"
);
},
{
closed = 1;
nodes = (
"939 -54 LINE",
"939 249 LINE",
"767 249 LINE",
"767 249 LINE",
"767 -54 LINE"
);
},
{
closed = 1;
nodes = (
"1200 -54 LINE",
"1200 249 LINE",
"1029 249 LINE",
"1029 249 LINE",
"1029 -54 LINE"
);
},
{
closed = 1;
nodes = (
"939 330 LINE",
"939 632 LINE",
"767 632 LINE",
"767 632 LINE",
"767 330 LINE"
);
},
{
closed = 1;
nodes = (
"190 1053 LINE SMOOTH",
"200 1053 OFFCURVE",
"209 1071 OFFCURVE",
"209 1084 CURVE SMOOTH",
"209 1389 LINE SMOOTH",
"209 1406 OFFCURVE",
"198 1421 OFFCURVE",
"190 1421 CURVE",
"190 1421 LINE",
"19 1421 LINE SMOOTH",
"8 1421 OFFCURVE",
"0 1403 OFFCURVE",
"0 1389 CURVE SMOOTH",
"0 1084 LINE SMOOTH",
"0 1066 OFFCURVE",
"9 1053 OFFCURVE",
"19 1053 CURVE SMOOTH"
);
},
{
closed = 1;
nodes = (
"37 1356 LINE",
"172 1356 LINE",
"172 1356 LINE",
"172 1117 LINE",
"37 1117 LINE"
);
},
{
closed = 1;
nodes = (
"688 713 LINE",
"688 1015 LINE",
"517 1015 LINE",
"517 1015 LINE",
"517 713 LINE"
);
},
{
closed = 1;
nodes = (
"1200 330 LINE",
"1200 632 LINE",
"1029 632 LINE",
"1029 632 LINE",
"1029 330 LINE"
);
},
{
closed = 1;
nodes = (
"688 1072 LINE SMOOTH",
"693 1072 OFFCURVE",
"696 1079 OFFCURVE",
"696 1084 CURVE SMOOTH",
"696 1389 LINE SMOOTH",
"696 1395 OFFCURVE",
"693 1402 OFFCURVE",
"688 1402 CURVE SMOOTH",
"517 1402 LINE SMOOTH",
"513 1402 OFFCURVE",
"509 1394 OFFCURVE",
"509 1389 CURVE SMOOTH",
"509 1084 LINE SMOOTH",
"509 1077 OFFCURVE",
"514 1072 OFFCURVE",
"517 1072 CURVE",
"517 1072 LINE"
);
},
{
closed = 1;
nodes = (
"525 1374 LINE",
"681 1374 LINE",
"681 1098 LINE",
"525 1098 LINE",
"525 1098 LINE"
);
},
{
closed = 1;
nodes = (
"428 1468 LINE SMOOTH",
"432 1468 OFFCURVE",
"435 1476 OFFCURVE",
"435 1479 CURVE SMOOTH",
"435 1783 LINE SMOOTH",
"435 1791 OFFCURVE",
"431 1796 OFFCURVE",
"428 1796 CURVE",
"428 1796 LINE",
"256 1796 LINE SMOOTH",
"251 1796 OFFCURVE",
"248 1791 OFFCURVE",
"248 1783 CURVE SMOOTH",
"248 1479 LINE SMOOTH",
"248 1472 OFFCURVE",
"253 1468 OFFCURVE",
"256 1468 CURVE SMOOTH"
);
},
{
closed = 1;
nodes = (
"263 1770 LINE",
"420 1770 LINE",
"420 1770 LINE",
"420 1493 LINE",
"263 1493 LINE"
);
},
{
closed = 1;
nodes = (
"1200 713 LINE",
"1200 1015 LINE",
"1029 1015 LINE",
"1029 1015 LINE",
"1029 713 LINE"
);
},
{
closed = 1;
nodes = (
"939 1084 LINE",
"939 1389 LINE",
"767 1389 LINE",
"767 1389 LINE",
"767 1084 LINE"
);
},
{
closed = 1;
nodes = (
"688 1479 LINE",
"688 1783 LINE",
"517 1783 LINE",
"517 1783 LINE",
"517 1479 LINE"
);
},
{
closed = 1;
nodes = (
"1200 1084 LINE",
"1200 1389 LINE",
"1029 1389 LINE",
"1029 1389 LINE",
"1029 1084 LINE"
);
},
{
closed = 1;
nodes = (
"431 1874 LINE SMOOTH",
"439 1874 OFFCURVE",
"445 1887 OFFCURVE",
"445 1900 CURVE SMOOTH",
"445 2202 LINE SMOOTH",
"445 2216 OFFCURVE",
"437 2226 OFFCURVE",
"431 2226 CURVE SMOOTH",
"260 2226 LINE SMOOTH",
"252 2226 OFFCURVE",
"246 2215 OFFCURVE",
"246 2202 CURVE SMOOTH",
"246 1900 LINE SMOOTH",
"246 1886 OFFCURVE",
"253 1874 OFFCURVE",
"260 1874 CURVE",
"260 1874 LINE"
);
},
{
closed = 1;
nodes = (
"273 2176 LINE",
"417 2176 LINE",
"417 1924 LINE",
"273 1924 LINE",
"273 1924 LINE"
);
},
{
closed = 1;
nodes = (
"939 1479 LINE",
"939 1783 LINE",
"767 1783 LINE",
"767 1783 LINE",
"767 1479 LINE"
);
},
{
closed = 1;
nodes = (
"688 1885 LINE SMOOTH",
"693 1885 OFFCURVE",
"696 1892 OFFCURVE",
"696 1900 CURVE SMOOTH",
"696 2202 LINE SMOOTH",
"696 2209 OFFCURVE",
"693 2216 OFFCURVE",
"688 2216 CURVE SMOOTH",
"517 2216 LINE SMOOTH",
"513 2216 OFFCURVE",
"509 2208 OFFCURVE",
"509 2202 CURVE SMOOTH",
"509 1900 LINE SMOOTH",
"509 1892 OFFCURVE",
"514 1885 OFFCURVE",
"517 1885 CURVE",
"517 1885 LINE"
);
},
{
closed = 1;
nodes = (
"525 2187 LINE",
"681 2187 LINE",
"681 1912 LINE",
"525 1912 LINE",
"525 1912 LINE"
);
},
{
closed = 1;
nodes = (
"1200 1479 LINE",
"1200 1783 LINE",
"1029 1783 LINE",
"1029 1783 LINE",
"1029 1479 LINE"
);
},
{
closed = 1;
nodes = (
"939 1900 LINE",
"939 2202 LINE",
"767 2202 LINE",
"767 2202 LINE",
"767 1900 LINE"
);
},
{
closed = 1;
nodes = (
"1200 1900 LINE",
"1200 2202 LINE",
"1200 2202 LINE",
"1029 2202 LINE",
"1029 1900 LINE"
);
}
);
width = 1200;
}
);
note = uniE0C7;
unicode = E0C7;
},
{
color = 4;
glyphname = uniE0C8;
lastChange = "2021-10-18 18:04:57 +0000";
layers = (
{
layerId = "F8C3375C-B372-4BAE-A3FB-5A8DC7FA7AB9";
paths = (
{
closed = 1;
nodes = (
"45 -480 OFFCURVE",
"63 -480 OFFCURVE",
"102 -457 CURVE SMOOTH",
"111 -452 OFFCURVE",
"120 -445 OFFCURVE",
"130 -440 CURVE SMOOTH",
"151 -433 OFFCURVE",
"169 -445 OFFCURVE",
"198 -428 CURVE SMOOTH",
"236 -405 OFFCURVE",
"220 -403 OFFCURVE",
"268 -403 CURVE SMOOTH",
"270 -403 OFFCURVE",
"280 -397 OFFCURVE",
"282 -396 CURVE SMOOTH",
"298 -388 OFFCURVE",
"321 -388 OFFCURVE",
"338 -387 CURVE SMOOTH",
"348 -386 OFFCURVE",
"350 -373 OFFCURVE",
"350 -363 CURVE SMOOTH",
"350 -325 OFFCURVE",
"311 -345 OFFCURVE",
"288 -337 CURVE",
"279 -328 OFFCURVE",
"271 -315 OFFCURVE",
"259 -308 CURVE SMOOTH",
"239 -299 OFFCURVE",
"226 -288 OFFCURVE",
"204 -284 CURVE SMOOTH",
"202 -284 OFFCURVE",
"198 -281 OFFCURVE",
"196 -278 CURVE",
"188 -257 OFFCURVE",
"144 -275 OFFCURVE",
"144 -251 CURVE SMOOTH",
"144 -242 OFFCURVE",
"160 -234 OFFCURVE",
"165 -232 CURVE SMOOTH",
"178 -228 OFFCURVE",
"190 -224 OFFCURVE",
"204 -224 CURVE SMOOTH",
"220 -224 OFFCURVE",
"232 -208 OFFCURVE",
"247 -206 CURVE SMOOTH",
"260 -204 OFFCURVE",
"289 -199 OFFCURVE",
"301 -192 CURVE SMOOTH",
"309 -186 OFFCURVE",
"314 -176 OFFCURVE",
"324 -174 CURVE",
"330 -175 OFFCURVE",
"339 -176 OFFCURVE",
"346 -176 CURVE SMOOTH",
"362 -176 OFFCURVE",
"371 -173 OFFCURVE",
"371 -154 CURVE SMOOTH",
"371 -143 OFFCURVE",
"367 -133 OFFCURVE",
"363 -122 CURVE",
"376 -104 OFFCURVE",
"532 -105 OFFCURVE",
"560 -96 CURVE SMOOTH",
"573 -92 OFFCURVE",
"593 -88 OFFCURVE",
"607 -88 CURVE SMOOTH",
"623 -88 OFFCURVE",
"640 -83 OFFCURVE",
"640 -63 CURVE SMOOTH",
"640 -30 OFFCURVE",
"618 -42 OFFCURVE",
"602 -29 CURVE",
"588 -24 OFFCURVE",
"581 -27 OFFCURVE",
"568 -27 CURVE SMOOTH",
"567 -27 OFFCURVE",
"563 -25 OFFCURVE",
"562 -25 CURVE",
"555 -18 OFFCURVE",
"538 -5 OFFCURVE",
"528 -5 CURVE SMOOTH",
"518 -5 OFFCURVE",
"508 -12 OFFCURVE",
"498 -12 CURVE SMOOTH",
"495 -12 OFFCURVE",
"491 -10 OFFCURVE",
"488 -8 CURVE",
"479 5 OFFCURVE",
"463 8 OFFCURVE",
"450 8 CURVE SMOOTH",
"444 8 OFFCURVE",
"440 4 OFFCURVE",
"434 2 CURVE",
"431 3 OFFCURVE",
"429 7 OFFCURVE",
"427 9 CURVE SMOOTH",
"412 26 OFFCURVE",
"380 11 OFFCURVE",
"363 23 CURVE SMOOTH",
"319 56 OFFCURVE",
"322 43 OFFCURVE",
"273 43 CURVE SMOOTH",
"265 43 OFFCURVE",
"219 50 OFFCURVE",
"222 65 CURVE SMOOTH",
"224 74 LINE",
"238 84 OFFCURVE",
"289 82 OFFCURVE",
"307 88 CURVE SMOOTH",
"317 91 OFFCURVE",
"326 96 OFFCURVE",
"334 104 CURVE SMOOTH",
"353 123 OFFCURVE",
"375 125 OFFCURVE",
"397 135 CURVE SMOOTH",
"401 136 OFFCURVE",
"411 141 OFFCURVE",
"415 141 CURVE",
"420 137 OFFCURVE",
"432 131 OFFCURVE",
"438 131 CURVE SMOOTH",
"442 131 OFFCURVE",
"446 133 OFFCURVE",
"449 136 CURVE SMOOTH",
"460 144 OFFCURVE",
"468 140 OFFCURVE",
"479 144 CURVE",
"501 144 OFFCURVE",
"535 157 OFFCURVE",
"535 186 CURVE SMOOTH",
"535 201 OFFCURVE",
"476 222 OFFCURVE",
"462 222 CURVE SMOOTH",
"454 222 OFFCURVE",
"446 218 OFFCURVE",
"439 218 CURVE SMOOTH",
"423 218 OFFCURVE",
"408 226 OFFCURVE",
"391 226 CURVE SMOOTH",
"374 226 OFFCURVE",
"357 231 OFFCURVE",
"340 231 CURVE SMOOTH",
"325 231 OFFCURVE",
"240 275 OFFCURVE",
"240 291 CURVE SMOOTH",
"240 315 OFFCURVE",
"294 361 OFFCURVE",
"315 361 CURVE SMOOTH",
"325 361 OFFCURVE",
"333 367 OFFCURVE",
"340 375 CURVE SMOOTH",
"343 377 OFFCURVE",
"350 386 OFFCURVE",
"355 388 CURVE SMOOTH",
"413 402 OFFCURVE",
"470 408 OFFCURVE",
"528 417 CURVE SMOOTH",
"556 423 OFFCURVE",
"602 441 OFFCURVE",
"620 441 CURVE SMOOTH",
"628 441 OFFCURVE",
"636 438 OFFCURVE",
"644 438 CURVE SMOOTH",
"668 438 OFFCURVE",
"695 463 OFFCURVE",
"720 463 CURVE SMOOTH",
"730 463 OFFCURVE",
"731 471 OFFCURVE",
"739 475 CURVE",
"749 472 OFFCURVE",
"759 464 OFFCURVE",
"770 464 CURVE SMOOTH",
"786 464 OFFCURVE",
"857 474 OFFCURVE",
"868 483 CURVE SMOOTH",
"872 485 OFFCURVE",
"876 486 OFFCURVE",
"880 486 CURVE SMOOTH",
"890 486 OFFCURVE",
"899 484 OFFCURVE",
"909 483 CURVE",
"912 484 OFFCURVE",
"916 485 OFFCURVE",
"919 485 CURVE SMOOTH",
"925 485 OFFCURVE",
"932 482 OFFCURVE",
"938 482 CURVE SMOOTH",
"966 482 OFFCURVE",
"1016 499 OFFCURVE",
"1046 505 CURVE SMOOTH",
"1066 508 OFFCURVE",
"1084 513 OFFCURVE",
"1104 513 CURVE SMOOTH",
"1123 513 OFFCURVE",
"1141 522 OFFCURVE",
"1164 522 CURVE SMOOTH",
"1189 522 OFFCURVE",
"1200 527 OFFCURVE",
"1200 556 CURVE SMOOTH",
"1200 596 OFFCURVE",
"1128 583 OFFCURVE",
"1105 583 CURVE",
"1105 583 LINE",
"1073 583 OFFCURVE",
"1046 599 OFFCURVE",
"1016 599 CURVE SMOOTH",
"1010 599 OFFCURVE",
"983 590 OFFCURVE",
"974 588 CURVE",
"955 592 OFFCURVE",
"938 604 OFFCURVE",
"917 604 CURVE SMOOTH",
"902 604 OFFCURVE",
"886 602 OFFCURVE",
"871 600 CURVE SMOOTH",
"862 600 OFFCURVE",
"853 594 OFFCURVE",
"844 594 CURVE SMOOTH",
"841 594 OFFCURVE",
"838 596 OFFCURVE",
"836 598 CURVE SMOOTH",
"811 624 OFFCURVE",
"794 630 OFFCURVE",
"760 630 CURVE SMOOTH",
"744 630 OFFCURVE",
"749 651 OFFCURVE",
"703 651 CURVE SMOOTH",
"681 651 OFFCURVE",
"662 666 OFFCURVE",
"640 666 CURVE SMOOTH",
"631 666 OFFCURVE",
"621 659 OFFCURVE",
"612 659 CURVE SMOOTH",
"607 659 OFFCURVE",
"602 663 OFFCURVE",
"598 667 CURVE SMOOTH",
"586 679 OFFCURVE",
"555 674 OFFCURVE",
"540 674 CURVE SMOOTH",
"536 674 OFFCURVE",
"531 674 OFFCURVE",
"527 675 CURVE",
"513 687 OFFCURVE",
"480 682 OFFCURVE",
"462 693 CURVE SMOOTH",
"455 697 OFFCURVE",
"451 706 OFFCURVE",
"443 706 CURVE SMOOTH",
"435 706 OFFCURVE",
"427 701 OFFCURVE",
"419 701 CURVE SMOOTH",
"413 701 OFFCURVE",
"406 706 OFFCURVE",
"399 706 CURVE SMOOTH",
"392 706 OFFCURVE",
"384 705 OFFCURVE",
"377 705 CURVE SMOOTH",
"342 705 OFFCURVE",
"307 708 OFFCURVE",
"273 708 CURVE SMOOTH",
"262 708 OFFCURVE",
"261 714 OFFCURVE",
"257 725 CURVE",
"260 730 OFFCURVE",
"276 733 OFFCURVE",
"281 734 CURVE SMOOTH",
"336 746 OFFCURVE",
"382 767 OFFCURVE",
"433 791 CURVE SMOOTH",
"446 797 OFFCURVE",
"460 820 OFFCURVE",
"477 817 CURVE SMOOTH",
"482 816 OFFCURVE",
"486 816 OFFCURVE",
"491 816 CURVE SMOOTH",
"504 816 OFFCURVE",
"517 829 OFFCURVE",
"528 829 CURVE SMOOTH",
"536 829 OFFCURVE",
"549 829 OFFCURVE",
"557 832 CURVE SMOOTH",
"563 833 OFFCURVE",
"568 839 OFFCURVE",
"568 848 CURVE SMOOTH",
"568 878 OFFCURVE",
"547 884 OFFCURVE",
"525 887 CURVE SMOOTH",
"503 888 OFFCURVE",
"487 903 OFFCURVE",
"466 906 CURVE SMOOTH",
"457 907 OFFCURVE",
"447 903 OFFCURVE",
"438 903 CURVE SMOOTH",
"429 903 OFFCURVE",
"385 912 OFFCURVE",
"376 915 CURVE SMOOTH",
"370 918 OFFCURVE",
"332 939 OFFCURVE",
"326 938 CURVE SMOOTH",
"322 937 OFFCURVE",
"319 934 OFFCURVE",
"315 934 CURVE SMOOTH",
"301 934 OFFCURVE",
"287 939 OFFCURVE",
"273 940 CURVE",
"268 947 LINE",
"278 964 OFFCURVE",
"320 957 OFFCURVE",
"335 957 CURVE SMOOTH",
"359 957 OFFCURVE",
"380 976 OFFCURVE",
"405 979 CURVE SMOOTH",
"416 980 OFFCURVE",
"447 989 OFFCURVE",
"447 1005 CURVE SMOOTH",
"447 1032 OFFCURVE",
"390 1041 OFFCURVE",
"372 1041 CURVE SMOOTH",
"353 1041 OFFCURVE",
"341 1052 OFFCURVE",
"323 1052 CURVE SMOOTH",
"241 1052 OFFCURVE",
"256 1069 OFFCURVE",
"235 1131 CURVE SMOOTH",
"231 1144 OFFCURVE",
"215 1178 OFFCURVE",
"215 1188 CURVE SMOOTH",
"215 1235 OFFCURVE",
"248 1263 OFFCURVE",
"279 1290 CURVE SMOOTH",
"292 1304 OFFCURVE",
"315 1299 OFFCURVE",
"327 1312 CURVE SMOOTH",
"330 1315 OFFCURVE",
"379 1329 OFFCURVE",
"388 1331 CURVE",
"395 1329 OFFCURVE",
"403 1326 OFFCURVE",
"410 1326 CURVE SMOOTH",
"425 1326 OFFCURVE",
"428 1345 OFFCURVE",
"445 1345 CURVE SMOOTH",
"458 1345 OFFCURVE",
"459 1335 OFFCURVE",
"475 1335 CURVE SMOOTH",
"486 1335 OFFCURVE",
"528 1356 OFFCURVE",
"541 1364 CURVE SMOOTH",
"575 1379 OFFCURVE",
"614 1378 OFFCURVE",
"648 1391 CURVE SMOOTH",
"657 1395 OFFCURVE",
"663 1403 OFFCURVE",
"663 1413 CURVE SMOOTH",
"663 1461 OFFCURVE",
"625 1453 OFFCURVE",
"597 1453 CURVE SMOOTH",
"577 1453 OFFCURVE",
"565 1484 OFFCURVE",
"512 1484 CURVE SMOOTH",
"504 1484 OFFCURVE",
"499 1479 OFFCURVE",
"492 1478 CURVE",
"485 1484 OFFCURVE",
"488 1489 OFFCURVE",
"477 1493 CURVE SMOOTH",
"464 1496 OFFCURVE",
"442 1501 OFFCURVE",
"431 1509 CURVE SMOOTH",
"428 1511 OFFCURVE",
"425 1514 OFFCURVE",
"421 1514 CURVE SMOOTH",
"415 1514 OFFCURVE",
"410 1506 OFFCURVE",
"404 1504 CURVE",
"395 1511 OFFCURVE",
"357 1567 OFFCURVE",
"339 1551 CURVE",
"303 1551 OFFCURVE",
"245 1590 OFFCURVE",
"206 1590 CURVE SMOOTH",
"194 1590 OFFCURVE",
"175 1601 OFFCURVE",
"175 1615 CURVE SMOOTH",
"175 1654 OFFCURVE",
"235 1670 OFFCURVE",
"262 1670 CURVE SMOOTH",
"281 1670 OFFCURVE",
"343 1683 OFFCURVE",
"362 1686 CURVE SMOOTH",
"379 1690 OFFCURVE",
"402 1713 OFFCURVE",
"416 1713 CURVE",
"424 1710 LINE",
"435 1700 OFFCURVE",
"450 1696 OFFCURVE",
"465 1696 CURVE SMOOTH",
"474 1696 OFFCURVE",
"486 1698 OFFCURVE",
"490 1708 CURVE",
"493 1709 LINE",
"498 1706 OFFCURVE",
"507 1697 OFFCURVE",
"513 1697 CURVE SMOOTH",
"517 1697 OFFCURVE",
"521 1700 OFFCURVE",
"524 1702 CURVE SMOOTH",
"539 1715 OFFCURVE",
"562 1718 OFFCURVE",
"581 1722 CURVE SMOOTH",
"592 1725 OFFCURVE",
"599 1736 OFFCURVE",
"610 1739 CURVE",
"622 1735 OFFCURVE",
"641 1735 OFFCURVE",
"654 1735 CURVE SMOOTH",
"708 1735 OFFCURVE",
"714 1755 OFFCURVE",
"767 1755 CURVE SMOOTH",
"794 1755 OFFCURVE",
"830 1761 OFFCURVE",
"830 1797 CURVE SMOOTH",
"830 1806 OFFCURVE",
"827 1830 OFFCURVE",
"816 1830 CURVE SMOOTH",
"811 1830 OFFCURVE",
"805 1825 OFFCURVE",
"800 1825 CURVE SMOOTH",
"793 1825 OFFCURVE",
"786 1831 OFFCURVE",
"781 1836 CURVE SMOOTH",
"755 1858 OFFCURVE",
"736 1850 OFFCURVE",
"706 1855 CURVE",
"704 1854 OFFCURVE",
"701 1853 OFFCURVE",
"699 1852 CURVE",
"690 1852 LINE SMOOTH",
"688 1852 OFFCURVE",
"679 1858 OFFCURVE",
"677 1859 CURVE SMOOTH",
"622 1899 OFFCURVE",
"612 1876 OFFCURVE",
"560 1891 CURVE SMOOTH",
"545 1894 OFFCURVE",
"546 1912 OFFCURVE",
"517 1912 CURVE SMOOTH",
"506 1912 OFFCURVE",
"499 1907 OFFCURVE",
"490 1903 CURVE",
"477 1912 OFFCURVE",
"474 1934 OFFCURVE",
"461 1934 CURVE SMOOTH",
"435 1934 OFFCURVE",
"419 1921 OFFCURVE",
"396 1913 CURVE",
"393 1914 OFFCURVE",
"390 1917 OFFCURVE",
"388 1919 CURVE SMOOTH",
"372 1941 OFFCURVE",
"330 1951 OFFCURVE",
"306 1951 CURVE SMOOTH",
"292 1951 OFFCURVE",
"283 1942 OFFCURVE",
"270 1941 CURVE",
"246 1946 OFFCURVE",
"136 1980 OFFCURVE",
"127 1999 CURVE",
"131 2002 LINE",
"147 2010 OFFCURVE",
"159 2004 OFFCURVE",
"175 2004 CURVE SMOOTH",
"189 2004 OFFCURVE",
"256 2011 OFFCURVE",
"264 2017 CURVE SMOOTH",
"276 2026 OFFCURVE",
"305 2035 OFFCURVE",
"320 2035 CURVE SMOOTH",
"327 2035 OFFCURVE",
"334 2032 OFFCURVE",
"341 2032 CURVE SMOOTH",
"355 2032 OFFCURVE",
"370 2040 OFFCURVE",
"373 2054 CURVE",
"390 2054 OFFCURVE",
"414 2054 OFFCURVE",
"414 2080 CURVE SMOOTH",
"414 2108 OFFCURVE",
"391 2098 OFFCURVE",
"379 2104 CURVE",
"376 2107 OFFCURVE",
"297 2152 OFFCURVE",
"294 2152 CURVE SMOOTH",
"288 2152 OFFCURVE",
"284 2146 OFFCURVE",
"279 2144 CURVE",
"263 2150 OFFCURVE",
"213 2168 OFFCURVE",
"199 2168 CURVE SMOOTH",
"194 2168 OFFCURVE",
"143 2202 OFFCURVE",
"135 2208 CURVE SMOOTH",
"113 2224 OFFCURVE",
"76 2217 OFFCURVE",
"50 2217 CURVE SMOOTH",
"45 2217 OFFCURVE",
"41 2217 OFFCURVE",
"36 2218 CURVE",
"29 2223 OFFCURVE",
"18 2226 OFFCURVE",
"10 2226 CURVE",
"0 2226 LINE",
"0 -480 LINE"
);
},
{
closed = 1;
nodes = (
"0 2226 LINE",
"-100 2226 LINE",
"-100 -480 LINE",
"0 -480 LINE"
);
}
);
width = 1200;
}
);
note = uniE0C8;
unicode = E0C8;
},
{
color = 4;
glyphname = uniE0CA;
lastChange = "2021-10-18 18:05:05 +0000";
layers = (
{
background = {
paths = (
{
closed = 1;
nodes = (
"1200 2226 LINE",
"1190 2226 LINE",
"1182 2226 OFFCURVE",
"1171 2223 OFFCURVE",
"1164 2218 CURVE",
"1159 2217 OFFCURVE",
"1155 2217 OFFCURVE",
"1150 2217 CURVE SMOOTH",
"1124 2217 OFFCURVE",
"1087 2224 OFFCURVE",
"1065 2208 CURVE SMOOTH",
"1057 2202 OFFCURVE",
"1006 2168 OFFCURVE",
"1001 2168 CURVE SMOOTH",
"987 2168 OFFCURVE",
"937 2150 OFFCURVE",
"921 2144 CURVE",
"916 2146 OFFCURVE",
"912 2152 OFFCURVE",
"906 2152 CURVE SMOOTH",
"903 2152 OFFCURVE",
"824 2107 OFFCURVE",
"821 2104 CURVE",
"809 2098 OFFCURVE",
"786 2108 OFFCURVE",
"786 2080 CURVE SMOOTH",
"786 2054 OFFCURVE",
"810 2054 OFFCURVE",
"827 2054 CURVE",
"830 2040 OFFCURVE",
"845 2032 OFFCURVE",
"859 2032 CURVE SMOOTH",
"866 2032 OFFCURVE",
"873 2035 OFFCURVE",
"880 2035 CURVE SMOOTH",
"895 2035 OFFCURVE",
"924 2026 OFFCURVE",
"936 2017 CURVE SMOOTH",
"944 2011 OFFCURVE",
"1011 2004 OFFCURVE",
"1025 2004 CURVE SMOOTH",
"1041 2004 OFFCURVE",
"1053 2010 OFFCURVE",
"1069 2002 CURVE",
"1073 1999 LINE",
"1064 1980 OFFCURVE",
"954 1946 OFFCURVE",
"930 1941 CURVE",
"917 1942 OFFCURVE",
"908 1951 OFFCURVE",
"894 1951 CURVE SMOOTH",
"870 1951 OFFCURVE",
"828 1941 OFFCURVE",
"812 1919 CURVE SMOOTH",
"810 1917 OFFCURVE",
"807 1914 OFFCURVE",
"804 1913 CURVE",
"781 1921 OFFCURVE",
"765 1934 OFFCURVE",
"739 1934 CURVE SMOOTH",
"726 1934 OFFCURVE",
"723 1912 OFFCURVE",
"710 1903 CURVE",
"701 1907 OFFCURVE",
"694 1912 OFFCURVE",
"683 1912 CURVE SMOOTH",
"654 1912 OFFCURVE",
"655 1894 OFFCURVE",
"640 1891 CURVE SMOOTH",
"588 1876 OFFCURVE",
"578 1899 OFFCURVE",
"523 1859 CURVE SMOOTH",
"521 1858 OFFCURVE",
"512 1852 OFFCURVE",
"510 1852 CURVE SMOOTH",
"501 1852 LINE",
"499 1853 OFFCURVE",
"496 1854 OFFCURVE",
"494 1855 CURVE",
"464 1850 OFFCURVE",
"445 1858 OFFCURVE",
"419 1836 CURVE SMOOTH",
"414 1831 OFFCURVE",
"407 1825 OFFCURVE",
"400 1825 CURVE SMOOTH",
"395 1825 OFFCURVE",
"389 1830 OFFCURVE",
"384 1830 CURVE SMOOTH",
"373 1830 OFFCURVE",
"370 1806 OFFCURVE",
"370 1797 CURVE SMOOTH",
"370 1761 OFFCURVE",
"406 1755 OFFCURVE",
"433 1755 CURVE SMOOTH",
"486 1755 OFFCURVE",
"492 1735 OFFCURVE",
"546 1735 CURVE SMOOTH",
"559 1735 OFFCURVE",
"578 1735 OFFCURVE",
"590 1739 CURVE",
"601 1736 OFFCURVE",
"608 1725 OFFCURVE",
"619 1722 CURVE SMOOTH",
"638 1718 OFFCURVE",
"661 1715 OFFCURVE",
"676 1702 CURVE SMOOTH",
"679 1700 OFFCURVE",
"683 1697 OFFCURVE",
"687 1697 CURVE SMOOTH",
"693 1697 OFFCURVE",
"702 1706 OFFCURVE",
"707 1709 CURVE",
"710 1708 LINE",
"714 1698 OFFCURVE",
"726 1696 OFFCURVE",
"735 1696 CURVE SMOOTH",
"750 1696 OFFCURVE",
"765 1700 OFFCURVE",
"776 1710 CURVE",
"784 1713 LINE",
"798 1713 OFFCURVE",
"821 1690 OFFCURVE",
"838 1686 CURVE SMOOTH",
"857 1683 OFFCURVE",
"919 1670 OFFCURVE",
"938 1670 CURVE SMOOTH",
"965 1670 OFFCURVE",
"1025 1654 OFFCURVE",
"1025 1615 CURVE SMOOTH",
"1025 1601 OFFCURVE",
"1006 1590 OFFCURVE",
"994 1590 CURVE SMOOTH",
"955 1590 OFFCURVE",
"897 1551 OFFCURVE",
"861 1551 CURVE",
"843 1567 OFFCURVE",
"805 1511 OFFCURVE",
"796 1504 CURVE",
"790 1506 OFFCURVE",
"785 1514 OFFCURVE",
"779 1514 CURVE SMOOTH",
"775 1514 OFFCURVE",
"772 1511 OFFCURVE",
"769 1509 CURVE SMOOTH",
"758 1501 OFFCURVE",
"736 1496 OFFCURVE",
"723 1493 CURVE SMOOTH",
"712 1489 OFFCURVE",
"715 1484 OFFCURVE",
"708 1478 CURVE",
"701 1479 OFFCURVE",
"696 1484 OFFCURVE",
"688 1484 CURVE SMOOTH",
"635 1484 OFFCURVE",
"623 1453 OFFCURVE",
"603 1453 CURVE SMOOTH",
"575 1453 OFFCURVE",
"537 1461 OFFCURVE",
"537 1413 CURVE SMOOTH",
"537 1403 OFFCURVE",
"543 1395 OFFCURVE",
"552 1391 CURVE SMOOTH",
"586 1378 OFFCURVE",
"625 1379 OFFCURVE",
"659 1364 CURVE SMOOTH",
"672 1356 OFFCURVE",
"714 1335 OFFCURVE",
"725 1335 CURVE SMOOTH",
"741 1335 OFFCURVE",
"742 1345 OFFCURVE",
"755 1345 CURVE SMOOTH",
"772 1345 OFFCURVE",
"775 1326 OFFCURVE",
"790 1326 CURVE SMOOTH",
"797 1326 OFFCURVE",
"805 1329 OFFCURVE",
"812 1331 CURVE",
"821 1329 OFFCURVE",
"870 1315 OFFCURVE",
"873 1312 CURVE SMOOTH",
"885 1299 OFFCURVE",
"908 1304 OFFCURVE",
"921 1290 CURVE SMOOTH",
"952 1263 OFFCURVE",
"985 1235 OFFCURVE",
"985 1188 CURVE SMOOTH",
"985 1178 OFFCURVE",
"969 1144 OFFCURVE",
"965 1131 CURVE SMOOTH",
"944 1069 OFFCURVE",
"959 1052 OFFCURVE",
"877 1052 CURVE SMOOTH",
"859 1052 OFFCURVE",
"847 1041 OFFCURVE",
"828 1041 CURVE SMOOTH",
"810 1041 OFFCURVE",
"753 1032 OFFCURVE",
"753 1005 CURVE SMOOTH",
"753 989 OFFCURVE",
"784 980 OFFCURVE",
"795 979 CURVE SMOOTH",
"820 976 OFFCURVE",
"841 957 OFFCURVE",
"865 957 CURVE SMOOTH",
"880 957 OFFCURVE",
"922 964 OFFCURVE",
"932 947 CURVE",
"927 940 LINE",
"913 939 OFFCURVE",
"899 934 OFFCURVE",
"885 934 CURVE SMOOTH",
"881 934 OFFCURVE",
"878 937 OFFCURVE",
"874 938 CURVE SMOOTH",
"868 939 OFFCURVE",
"830 918 OFFCURVE",
"824 915 CURVE SMOOTH",
"815 912 OFFCURVE",
"771 903 OFFCURVE",
"762 903 CURVE SMOOTH",
"753 903 OFFCURVE",
"743 907 OFFCURVE",
"734 906 CURVE SMOOTH",
"713 903 OFFCURVE",
"697 888 OFFCURVE",
"675 887 CURVE SMOOTH",
"653 884 OFFCURVE",
"632 878 OFFCURVE",
"632 848 CURVE SMOOTH",
"632 839 OFFCURVE",
"637 833 OFFCURVE",
"643 832 CURVE SMOOTH",
"651 829 OFFCURVE",
"664 829 OFFCURVE",
"672 829 CURVE SMOOTH",
"683 829 OFFCURVE",
"696 816 OFFCURVE",
"709 816 CURVE SMOOTH",
"714 816 OFFCURVE",
"718 816 OFFCURVE",
"723 817 CURVE SMOOTH",
"740 820 OFFCURVE",
"754 797 OFFCURVE",
"767 791 CURVE SMOOTH",
"818 767 OFFCURVE",
"864 746 OFFCURVE",
"919 734 CURVE SMOOTH",
"924 733 OFFCURVE",
"940 730 OFFCURVE",
"943 725 CURVE",
"939 714 OFFCURVE",
"938 708 OFFCURVE",
"927 708 CURVE SMOOTH",
"893 708 OFFCURVE",
"858 705 OFFCURVE",
"823 705 CURVE SMOOTH",
"816 705 OFFCURVE",
"808 706 OFFCURVE",
"801 706 CURVE SMOOTH",
"794 706 OFFCURVE",
"787 701 OFFCURVE",
"781 701 CURVE SMOOTH",
"773 701 OFFCURVE",
"765 706 OFFCURVE",
"757 706 CURVE SMOOTH",
"749 706 OFFCURVE",
"745 697 OFFCURVE",
"738 693 CURVE SMOOTH",
"720 682 OFFCURVE",
"687 687 OFFCURVE",
"673 675 CURVE",
"669 674 OFFCURVE",
"664 674 OFFCURVE",
"660 674 CURVE SMOOTH",
"645 674 OFFCURVE",
"614 679 OFFCURVE",
"602 667 CURVE SMOOTH",
"598 663 OFFCURVE",
"593 659 OFFCURVE",
"588 659 CURVE SMOOTH",
"579 659 OFFCURVE",
"569 666 OFFCURVE",
"560 666 CURVE SMOOTH",
"538 666 OFFCURVE",
"519 651 OFFCURVE",
"497 651 CURVE SMOOTH",
"451 651 OFFCURVE",
"456 630 OFFCURVE",
"440 630 CURVE SMOOTH",
"406 630 OFFCURVE",
"389 624 OFFCURVE",
"364 598 CURVE SMOOTH",
"362 596 OFFCURVE",
"359 594 OFFCURVE",
"356 594 CURVE SMOOTH",
"347 594 OFFCURVE",
"338 600 OFFCURVE",
"329 600 CURVE SMOOTH",
"314 602 OFFCURVE",
"298 604 OFFCURVE",
"283 604 CURVE SMOOTH",
"262 604 OFFCURVE",
"245 592 OFFCURVE",
"226 588 CURVE",
"217 590 OFFCURVE",
"190 599 OFFCURVE",
"184 599 CURVE SMOOTH",
"154 599 OFFCURVE",
"127 583 OFFCURVE",
"95 583 CURVE",
"95 583 LINE",
"72 583 OFFCURVE",
"0 596 OFFCURVE",
"0 556 CURVE SMOOTH",
"0 527 OFFCURVE",
"11 522 OFFCURVE",
"36 522 CURVE SMOOTH",
"59 522 OFFCURVE",
"77 513 OFFCURVE",
"96 513 CURVE SMOOTH",
"116 513 OFFCURVE",
"134 508 OFFCURVE",
"154 505 CURVE SMOOTH",
"184 499 OFFCURVE",
"234 482 OFFCURVE",
"262 482 CURVE SMOOTH",
"268 482 OFFCURVE",
"275 485 OFFCURVE",
"281 485 CURVE SMOOTH",
"284 485 OFFCURVE",
"288 484 OFFCURVE",
"291 483 CURVE",
"301 484 OFFCURVE",
"310 486 OFFCURVE",
"320 486 CURVE SMOOTH",
"324 486 OFFCURVE",
"328 485 OFFCURVE",
"332 483 CURVE SMOOTH",
"343 474 OFFCURVE",
"414 464 OFFCURVE",
"430 464 CURVE SMOOTH",
"441 464 OFFCURVE",
"451 472 OFFCURVE",
"461 475 CURVE",
"469 471 OFFCURVE",
"470 463 OFFCURVE",
"480 463 CURVE SMOOTH",
"505 463 OFFCURVE",
"532 438 OFFCURVE",
"556 438 CURVE SMOOTH",
"564 438 OFFCURVE",
"572 441 OFFCURVE",
"580 441 CURVE SMOOTH",
"598 441 OFFCURVE",
"644 423 OFFCURVE",
"672 417 CURVE SMOOTH",
"730 408 OFFCURVE",
"787 402 OFFCURVE",
"845 388 CURVE SMOOTH",
"850 386 OFFCURVE",
"857 377 OFFCURVE",
"860 375 CURVE SMOOTH",
"867 367 OFFCURVE",
"875 361 OFFCURVE",
"885 361 CURVE SMOOTH",
"906 361 OFFCURVE",
"960 315 OFFCURVE",
"960 291 CURVE SMOOTH",
"960 275 OFFCURVE",
"875 231 OFFCURVE",
"860 231 CURVE SMOOTH",
"843 231 OFFCURVE",
"826 226 OFFCURVE",
"809 226 CURVE SMOOTH",
"792 226 OFFCURVE",
"777 218 OFFCURVE",
"761 218 CURVE SMOOTH",
"754 218 OFFCURVE",
"746 222 OFFCURVE",
"738 222 CURVE SMOOTH",
"724 222 OFFCURVE",
"665 201 OFFCURVE",
"665 186 CURVE SMOOTH",
"665 157 OFFCURVE",
"699 144 OFFCURVE",
"721 144 CURVE",
"732 140 OFFCURVE",
"740 144 OFFCURVE",
"751 136 CURVE SMOOTH",
"754 133 OFFCURVE",
"758 131 OFFCURVE",
"762 131 CURVE SMOOTH",
"768 131 OFFCURVE",
"780 137 OFFCURVE",
"785 141 CURVE",
"789 141 OFFCURVE",
"799 136 OFFCURVE",
"803 135 CURVE SMOOTH",
"825 125 OFFCURVE",
"847 123 OFFCURVE",
"866 104 CURVE SMOOTH",
"874 96 OFFCURVE",
"883 91 OFFCURVE",
"893 88 CURVE SMOOTH",
"911 82 OFFCURVE",
"962 84 OFFCURVE",
"976 74 CURVE",
"978 65 LINE SMOOTH",
"981 50 OFFCURVE",
"935 43 OFFCURVE",
"927 43 CURVE SMOOTH",
"878 43 OFFCURVE",
"881 56 OFFCURVE",
"837 23 CURVE SMOOTH",
"820 11 OFFCURVE",
"788 26 OFFCURVE",
"773 9 CURVE SMOOTH",
"771 7 OFFCURVE",
"769 3 OFFCURVE",
"766 2 CURVE",
"760 4 OFFCURVE",
"756 8 OFFCURVE",
"750 8 CURVE SMOOTH",
"737 8 OFFCURVE",
"721 5 OFFCURVE",
"712 -8 CURVE",
"709 -10 OFFCURVE",
"705 -12 OFFCURVE",
"702 -12 CURVE SMOOTH",
"692 -12 OFFCURVE",
"682 -5 OFFCURVE",
"672 -5 CURVE SMOOTH",
"662 -5 OFFCURVE",
"645 -18 OFFCURVE",
"638 -25 CURVE",
"637 -25 OFFCURVE",
"633 -27 OFFCURVE",
"632 -27 CURVE SMOOTH",
"619 -27 OFFCURVE",
"612 -24 OFFCURVE",
"598 -29 CURVE",
"582 -42 OFFCURVE",
"560 -30 OFFCURVE",
"560 -63 CURVE SMOOTH",
"560 -83 OFFCURVE",
"577 -88 OFFCURVE",
"593 -88 CURVE SMOOTH",
"607 -88 OFFCURVE",
"627 -92 OFFCURVE",
"640 -96 CURVE SMOOTH",
"668 -105 OFFCURVE",
"824 -104 OFFCURVE",
"837 -122 CURVE",
"833 -133 OFFCURVE",
"829 -143 OFFCURVE",
"829 -154 CURVE SMOOTH",
"829 -173 OFFCURVE",
"838 -176 OFFCURVE",
"854 -176 CURVE SMOOTH",
"861 -176 OFFCURVE",
"870 -175 OFFCURVE",
"876 -174 CURVE",
"886 -176 OFFCURVE",
"891 -186 OFFCURVE",
"899 -192 CURVE SMOOTH",
"911 -199 OFFCURVE",
"940 -204 OFFCURVE",
"953 -206 CURVE SMOOTH",
"968 -208 OFFCURVE",
"980 -224 OFFCURVE",
"996 -224 CURVE SMOOTH",
"1010 -224 OFFCURVE",
"1022 -228 OFFCURVE",
"1035 -232 CURVE SMOOTH",
"1040 -234 OFFCURVE",
"1056 -242 OFFCURVE",
"1056 -251 CURVE SMOOTH",
"1056 -275 OFFCURVE",
"1012 -257 OFFCURVE",
"1004 -278 CURVE",
"1002 -281 OFFCURVE",
"998 -284 OFFCURVE",
"996 -284 CURVE SMOOTH",
"974 -288 OFFCURVE",
"961 -299 OFFCURVE",
"941 -308 CURVE SMOOTH",
"929 -315 OFFCURVE",
"921 -328 OFFCURVE",
"912 -337 CURVE",
"889 -345 OFFCURVE",
"850 -325 OFFCURVE",
"850 -363 CURVE SMOOTH",
"850 -373 OFFCURVE",
"852 -386 OFFCURVE",
"862 -387 CURVE SMOOTH",
"879 -388 OFFCURVE",
"902 -388 OFFCURVE",
"918 -396 CURVE SMOOTH",
"920 -397 OFFCURVE",
"930 -403 OFFCURVE",
"932 -403 CURVE SMOOTH",
"980 -403 OFFCURVE",
"964 -405 OFFCURVE",
"1002 -428 CURVE SMOOTH",
"1031 -445 OFFCURVE",
"1049 -433 OFFCURVE",
"1070 -440 CURVE SMOOTH",
"1080 -445 OFFCURVE",
"1089 -452 OFFCURVE",
"1098 -457 CURVE SMOOTH",
"1137 -480 OFFCURVE",
"1155 -480 OFFCURVE",
"1200 -480 CURVE"
);
},
{
closed = 1;
nodes = (
"1300 -480 LINE",
"1300 2226 LINE",
"1200 2226 LINE",
"1200 -480 LINE"
);
}
);
};
layerId = "F8C3375C-B372-4BAE-A3FB-5A8DC7FA7AB9";
paths = (
{
closed = 1;
nodes = (
"1200 2226 LINE",
"1190 2226 LINE",
"1182 2226 OFFCURVE",
"1171 2223 OFFCURVE",
"1164 2218 CURVE",
"1159 2217 OFFCURVE",
"1155 2217 OFFCURVE",
"1150 2217 CURVE SMOOTH",
"1124 2217 OFFCURVE",
"1087 2224 OFFCURVE",
"1065 2208 CURVE SMOOTH",
"1057 2202 OFFCURVE",
"1006 2168 OFFCURVE",
"1001 2168 CURVE SMOOTH",
"987 2168 OFFCURVE",
"937 2150 OFFCURVE",
"921 2144 CURVE",
"916 2146 OFFCURVE",
"912 2152 OFFCURVE",
"906 2152 CURVE SMOOTH",
"903 2152 OFFCURVE",
"824 2107 OFFCURVE",
"821 2104 CURVE",
"809 2098 OFFCURVE",
"786 2108 OFFCURVE",
"786 2080 CURVE SMOOTH",
"786 2054 OFFCURVE",
"810 2054 OFFCURVE",
"827 2054 CURVE",
"830 2040 OFFCURVE",
"845 2032 OFFCURVE",
"859 2032 CURVE SMOOTH",
"866 2032 OFFCURVE",
"873 2035 OFFCURVE",
"880 2035 CURVE SMOOTH",
"895 2035 OFFCURVE",
"924 2026 OFFCURVE",
"936 2017 CURVE SMOOTH",
"944 2011 OFFCURVE",
"1011 2004 OFFCURVE",
"1025 2004 CURVE SMOOTH",
"1041 2004 OFFCURVE",
"1053 2010 OFFCURVE",
"1069 2002 CURVE",
"1073 1999 LINE",
"1064 1980 OFFCURVE",
"954 1946 OFFCURVE",
"930 1941 CURVE",
"917 1942 OFFCURVE",
"908 1951 OFFCURVE",
"894 1951 CURVE SMOOTH",
"870 1951 OFFCURVE",
"828 1941 OFFCURVE",
"812 1919 CURVE SMOOTH",
"810 1917 OFFCURVE",
"807 1914 OFFCURVE",
"804 1913 CURVE",
"781 1921 OFFCURVE",
"765 1934 OFFCURVE",
"739 1934 CURVE SMOOTH",
"726 1934 OFFCURVE",
"723 1912 OFFCURVE",
"710 1903 CURVE",
"701 1907 OFFCURVE",
"694 1912 OFFCURVE",
"683 1912 CURVE SMOOTH",
"654 1912 OFFCURVE",
"655 1894 OFFCURVE",
"640 1891 CURVE SMOOTH",
"588 1876 OFFCURVE",
"578 1899 OFFCURVE",
"523 1859 CURVE SMOOTH",
"521 1858 OFFCURVE",
"512 1852 OFFCURVE",
"510 1852 CURVE SMOOTH",
"501 1852 LINE",
"499 1853 OFFCURVE",
"496 1854 OFFCURVE",
"494 1855 CURVE",
"464 1850 OFFCURVE",
"445 1858 OFFCURVE",
"419 1836 CURVE SMOOTH",
"414 1831 OFFCURVE",
"407 1825 OFFCURVE",
"400 1825 CURVE SMOOTH",
"395 1825 OFFCURVE",
"389 1830 OFFCURVE",
"384 1830 CURVE SMOOTH",
"373 1830 OFFCURVE",
"370 1806 OFFCURVE",
"370 1797 CURVE SMOOTH",
"370 1761 OFFCURVE",
"406 1755 OFFCURVE",
"433 1755 CURVE SMOOTH",
"486 1755 OFFCURVE",
"492 1735 OFFCURVE",
"546 1735 CURVE SMOOTH",
"559 1735 OFFCURVE",
"578 1735 OFFCURVE",
"590 1739 CURVE",
"601 1736 OFFCURVE",
"608 1725 OFFCURVE",
"619 1722 CURVE SMOOTH",
"638 1718 OFFCURVE",
"661 1715 OFFCURVE",
"676 1702 CURVE SMOOTH",
"679 1700 OFFCURVE",
"683 1697 OFFCURVE",
"687 1697 CURVE SMOOTH",
"693 1697 OFFCURVE",
"702 1706 OFFCURVE",
"707 1709 CURVE",
"710 1708 LINE",
"714 1698 OFFCURVE",
"726 1696 OFFCURVE",
"735 1696 CURVE SMOOTH",
"750 1696 OFFCURVE",
"765 1700 OFFCURVE",
"776 1710 CURVE",
"784 1713 LINE",
"798 1713 OFFCURVE",
"821 1690 OFFCURVE",
"838 1686 CURVE SMOOTH",
"857 1683 OFFCURVE",
"919 1670 OFFCURVE",
"938 1670 CURVE SMOOTH",
"965 1670 OFFCURVE",
"1025 1654 OFFCURVE",
"1025 1615 CURVE SMOOTH",
"1025 1601 OFFCURVE",
"1006 1590 OFFCURVE",
"994 1590 CURVE SMOOTH",
"955 1590 OFFCURVE",
"897 1551 OFFCURVE",
"861 1551 CURVE",
"843 1567 OFFCURVE",
"805 1511 OFFCURVE",
"796 1504 CURVE",
"790 1506 OFFCURVE",
"785 1514 OFFCURVE",
"779 1514 CURVE SMOOTH",
"775 1514 OFFCURVE",
"772 1511 OFFCURVE",
"769 1509 CURVE SMOOTH",
"758 1501 OFFCURVE",
"736 1496 OFFCURVE",
"723 1493 CURVE SMOOTH",
"712 1489 OFFCURVE",
"715 1484 OFFCURVE",
"708 1478 CURVE",
"701 1479 OFFCURVE",
"696 1484 OFFCURVE",
"688 1484 CURVE SMOOTH",
"635 1484 OFFCURVE",
"623 1453 OFFCURVE",
"603 1453 CURVE SMOOTH",
"575 1453 OFFCURVE",
"537 1461 OFFCURVE",
"537 1413 CURVE SMOOTH",
"537 1403 OFFCURVE",
"543 1395 OFFCURVE",
"552 1391 CURVE SMOOTH",
"586 1378 OFFCURVE",
"625 1379 OFFCURVE",
"659 1364 CURVE SMOOTH",
"672 1356 OFFCURVE",
"714 1335 OFFCURVE",
"725 1335 CURVE SMOOTH",
"741 1335 OFFCURVE",
"742 1345 OFFCURVE",
"755 1345 CURVE SMOOTH",
"772 1345 OFFCURVE",
"775 1326 OFFCURVE",
"790 1326 CURVE SMOOTH",
"797 1326 OFFCURVE",
"805 1329 OFFCURVE",
"812 1331 CURVE",
"821 1329 OFFCURVE",
"870 1315 OFFCURVE",
"873 1312 CURVE SMOOTH",
"885 1299 OFFCURVE",
"908 1304 OFFCURVE",
"921 1290 CURVE SMOOTH",
"952 1263 OFFCURVE",
"985 1235 OFFCURVE",
"985 1188 CURVE SMOOTH",
"985 1178 OFFCURVE",
"969 1144 OFFCURVE",
"965 1131 CURVE SMOOTH",
"944 1069 OFFCURVE",
"959 1052 OFFCURVE",
"877 1052 CURVE SMOOTH",
"859 1052 OFFCURVE",
"847 1041 OFFCURVE",
"828 1041 CURVE SMOOTH",
"810 1041 OFFCURVE",
"753 1032 OFFCURVE",
"753 1005 CURVE SMOOTH",
"753 989 OFFCURVE",
"784 980 OFFCURVE",
"795 979 CURVE SMOOTH",
"820 976 OFFCURVE",
"841 957 OFFCURVE",
"865 957 CURVE SMOOTH",
"880 957 OFFCURVE",
"922 964 OFFCURVE",
"932 947 CURVE",
"927 940 LINE",
"913 939 OFFCURVE",
"899 934 OFFCURVE",
"885 934 CURVE SMOOTH",
"881 934 OFFCURVE",
"878 937 OFFCURVE",
"874 938 CURVE SMOOTH",
"868 939 OFFCURVE",
"830 918 OFFCURVE",
"824 915 CURVE SMOOTH",
"815 912 OFFCURVE",
"771 903 OFFCURVE",
"762 903 CURVE SMOOTH",
"753 903 OFFCURVE",
"743 907 OFFCURVE",
"734 906 CURVE SMOOTH",
"713 903 OFFCURVE",
"697 888 OFFCURVE",
"675 887 CURVE SMOOTH",
"653 884 OFFCURVE",
"632 878 OFFCURVE",
"632 848 CURVE SMOOTH",
"632 839 OFFCURVE",
"637 833 OFFCURVE",
"643 832 CURVE SMOOTH",
"651 829 OFFCURVE",
"664 829 OFFCURVE",
"672 829 CURVE SMOOTH",
"683 829 OFFCURVE",
"696 816 OFFCURVE",
"709 816 CURVE SMOOTH",
"714 816 OFFCURVE",
"718 816 OFFCURVE",
"723 817 CURVE SMOOTH",
"740 820 OFFCURVE",
"754 797 OFFCURVE",
"767 791 CURVE SMOOTH",
"818 767 OFFCURVE",
"864 746 OFFCURVE",
"919 734 CURVE SMOOTH",
"924 733 OFFCURVE",
"940 730 OFFCURVE",
"943 725 CURVE",
"939 714 OFFCURVE",
"938 708 OFFCURVE",
"927 708 CURVE SMOOTH",
"893 708 OFFCURVE",
"858 705 OFFCURVE",
"823 705 CURVE SMOOTH",
"816 705 OFFCURVE",
"808 706 OFFCURVE",
"801 706 CURVE SMOOTH",
"794 706 OFFCURVE",
"787 701 OFFCURVE",
"781 701 CURVE SMOOTH",
"773 701 OFFCURVE",
"765 706 OFFCURVE",
"757 706 CURVE SMOOTH",
"749 706 OFFCURVE",
"745 697 OFFCURVE",
"738 693 CURVE SMOOTH",
"720 682 OFFCURVE",
"687 687 OFFCURVE",
"673 675 CURVE",
"669 674 OFFCURVE",
"664 674 OFFCURVE",
"660 674 CURVE SMOOTH",
"645 674 OFFCURVE",
"614 679 OFFCURVE",
"602 667 CURVE SMOOTH",
"598 663 OFFCURVE",
"593 659 OFFCURVE",
"588 659 CURVE SMOOTH",
"579 659 OFFCURVE",
"569 666 OFFCURVE",
"560 666 CURVE SMOOTH",
"538 666 OFFCURVE",
"519 651 OFFCURVE",
"497 651 CURVE SMOOTH",
"451 651 OFFCURVE",
"456 630 OFFCURVE",
"440 630 CURVE SMOOTH",
"406 630 OFFCURVE",
"389 624 OFFCURVE",
"364 598 CURVE SMOOTH",
"362 596 OFFCURVE",
"359 594 OFFCURVE",
"356 594 CURVE SMOOTH",
"347 594 OFFCURVE",
"338 600 OFFCURVE",
"329 600 CURVE SMOOTH",
"314 602 OFFCURVE",
"298 604 OFFCURVE",
"283 604 CURVE SMOOTH",
"262 604 OFFCURVE",
"245 592 OFFCURVE",
"226 588 CURVE",
"217 590 OFFCURVE",
"190 599 OFFCURVE",
"184 599 CURVE SMOOTH",
"154 599 OFFCURVE",
"127 583 OFFCURVE",
"95 583 CURVE",
"95 583 LINE",
"72 583 OFFCURVE",
"0 596 OFFCURVE",
"0 556 CURVE SMOOTH",
"0 527 OFFCURVE",
"11 522 OFFCURVE",
"36 522 CURVE SMOOTH",
"59 522 OFFCURVE",
"77 513 OFFCURVE",
"96 513 CURVE SMOOTH",
"116 513 OFFCURVE",
"134 508 OFFCURVE",
"154 505 CURVE SMOOTH",
"184 499 OFFCURVE",
"234 482 OFFCURVE",
"262 482 CURVE SMOOTH",
"268 482 OFFCURVE",
"275 485 OFFCURVE",
"281 485 CURVE SMOOTH",
"284 485 OFFCURVE",
"288 484 OFFCURVE",
"291 483 CURVE",
"301 484 OFFCURVE",
"310 486 OFFCURVE",
"320 486 CURVE SMOOTH",
"324 486 OFFCURVE",
"328 485 OFFCURVE",
"332 483 CURVE SMOOTH",
"343 474 OFFCURVE",
"414 464 OFFCURVE",
"430 464 CURVE SMOOTH",
"441 464 OFFCURVE",
"451 472 OFFCURVE",
"461 475 CURVE",
"469 471 OFFCURVE",
"470 463 OFFCURVE",
"480 463 CURVE SMOOTH",
"505 463 OFFCURVE",
"532 438 OFFCURVE",
"556 438 CURVE SMOOTH",
"564 438 OFFCURVE",
"572 441 OFFCURVE",
"580 441 CURVE SMOOTH",
"598 441 OFFCURVE",
"644 423 OFFCURVE",
"672 417 CURVE SMOOTH",
"730 408 OFFCURVE",
"787 402 OFFCURVE",
"845 388 CURVE SMOOTH",
"850 386 OFFCURVE",
"857 377 OFFCURVE",
"860 375 CURVE SMOOTH",
"867 367 OFFCURVE",
"875 361 OFFCURVE",
"885 361 CURVE SMOOTH",
"906 361 OFFCURVE",
"960 315 OFFCURVE",
"960 291 CURVE SMOOTH",
"960 275 OFFCURVE",
"875 231 OFFCURVE",
"860 231 CURVE SMOOTH",
"843 231 OFFCURVE",
"826 226 OFFCURVE",
"809 226 CURVE SMOOTH",
"792 226 OFFCURVE",
"777 218 OFFCURVE",
"761 218 CURVE SMOOTH",
"754 218 OFFCURVE",
"746 222 OFFCURVE",
"738 222 CURVE SMOOTH",
"724 222 OFFCURVE",
"665 201 OFFCURVE",
"665 186 CURVE SMOOTH",
"665 157 OFFCURVE",
"699 144 OFFCURVE",
"721 144 CURVE",
"732 140 OFFCURVE",
"740 144 OFFCURVE",
"751 136 CURVE SMOOTH",
"754 133 OFFCURVE",
"758 131 OFFCURVE",
"762 131 CURVE SMOOTH",
"768 131 OFFCURVE",
"780 137 OFFCURVE",
"785 141 CURVE",
"789 141 OFFCURVE",
"799 136 OFFCURVE",
"803 135 CURVE SMOOTH",
"825 125 OFFCURVE",
"847 123 OFFCURVE",
"866 104 CURVE SMOOTH",
"874 96 OFFCURVE",
"883 91 OFFCURVE",
"893 88 CURVE SMOOTH",
"911 82 OFFCURVE",
"962 84 OFFCURVE",
"976 74 CURVE",
"978 65 LINE SMOOTH",
"981 50 OFFCURVE",
"935 43 OFFCURVE",
"927 43 CURVE SMOOTH",
"878 43 OFFCURVE",
"881 56 OFFCURVE",
"837 23 CURVE SMOOTH",
"820 11 OFFCURVE",
"788 26 OFFCURVE",
"773 9 CURVE SMOOTH",
"771 7 OFFCURVE",
"769 3 OFFCURVE",
"766 2 CURVE",
"760 4 OFFCURVE",
"756 8 OFFCURVE",
"750 8 CURVE SMOOTH",
"737 8 OFFCURVE",
"721 5 OFFCURVE",
"712 -8 CURVE",
"709 -10 OFFCURVE",
"705 -12 OFFCURVE",
"702 -12 CURVE SMOOTH",
"692 -12 OFFCURVE",
"682 -5 OFFCURVE",
"672 -5 CURVE SMOOTH",
"662 -5 OFFCURVE",
"645 -18 OFFCURVE",
"638 -25 CURVE",
"637 -25 OFFCURVE",
"633 -27 OFFCURVE",
"632 -27 CURVE SMOOTH",
"619 -27 OFFCURVE",
"612 -24 OFFCURVE",
"598 -29 CURVE",
"582 -42 OFFCURVE",
"560 -30 OFFCURVE",
"560 -63 CURVE SMOOTH",
"560 -83 OFFCURVE",
"577 -88 OFFCURVE",
"593 -88 CURVE SMOOTH",
"607 -88 OFFCURVE",
"627 -92 OFFCURVE",
"640 -96 CURVE SMOOTH",
"668 -105 OFFCURVE",
"824 -104 OFFCURVE",
"837 -122 CURVE",
"833 -133 OFFCURVE",
"829 -143 OFFCURVE",
"829 -154 CURVE SMOOTH",
"829 -173 OFFCURVE",
"838 -176 OFFCURVE",
"854 -176 CURVE SMOOTH",
"861 -176 OFFCURVE",
"870 -175 OFFCURVE",
"876 -174 CURVE",
"886 -176 OFFCURVE",
"891 -186 OFFCURVE",
"899 -192 CURVE SMOOTH",
"911 -199 OFFCURVE",
"940 -204 OFFCURVE",
"953 -206 CURVE SMOOTH",
"968 -208 OFFCURVE",
"980 -224 OFFCURVE",
"996 -224 CURVE SMOOTH",
"1010 -224 OFFCURVE",
"1022 -228 OFFCURVE",
"1035 -232 CURVE SMOOTH",
"1040 -234 OFFCURVE",
"1056 -242 OFFCURVE",
"1056 -251 CURVE SMOOTH",
"1056 -275 OFFCURVE",
"1012 -257 OFFCURVE",
"1004 -278 CURVE",
"1002 -281 OFFCURVE",
"998 -284 OFFCURVE",
"996 -284 CURVE SMOOTH",
"974 -288 OFFCURVE",
"961 -299 OFFCURVE",
"941 -308 CURVE SMOOTH",
"929 -315 OFFCURVE",
"921 -328 OFFCURVE",
"912 -337 CURVE",
"889 -345 OFFCURVE",
"850 -325 OFFCURVE",
"850 -363 CURVE SMOOTH",
"850 -373 OFFCURVE",
"852 -386 OFFCURVE",
"862 -387 CURVE SMOOTH",
"879 -388 OFFCURVE",
"902 -388 OFFCURVE",
"918 -396 CURVE SMOOTH",
"920 -397 OFFCURVE",
"930 -403 OFFCURVE",
"932 -403 CURVE SMOOTH",
"980 -403 OFFCURVE",
"964 -405 OFFCURVE",
"1002 -428 CURVE SMOOTH",
"1031 -445 OFFCURVE",
"1049 -433 OFFCURVE",
"1070 -440 CURVE SMOOTH",
"1080 -445 OFFCURVE",
"1089 -452 OFFCURVE",
"1098 -457 CURVE SMOOTH",
"1137 -480 OFFCURVE",
"1155 -480 OFFCURVE",
"1200 -480 CURVE"
);
},
{
closed = 1;
nodes = (
"1300 -480 LINE",
"1300 2226 LINE",
"1200 2226 LINE",
"1200 -480 LINE"
);
}
);
width = 1200;
}
);
note = uniE0CA;
unicode = E0CA;
},
{
color = 4;
glyphname = uniE0CC;
lastChange = "2021-10-18 18:07:28 +0000";
layers = (
{
layerId = "F8C3375C-B372-4BAE-A3FB-5A8DC7FA7AB9";
paths = (
{
closed = 1;
nodes = (
"1035 305 LINE",
"1200 854 LINE",
"1035 1403 LINE",
"704 1403 LINE",
"539 854 LINE",
"704 305 LINE"
);
},
{
closed = 1;
nodes = (
"331 -480 LINE",
"496 68 LINE",
"331 617 LINE",
"-100 617 LINE",
"-100 -480 LINE"
);
},
{
closed = 1;
nodes = (
"331 1129 LINE",
"496 1678 LINE",
"331 2226 LINE",
"-100 2226 LINE",
"-100 1129 LINE"
);
}
);
width = 1200;
}
);
note = uniE0CC;
unicode = E0CC;
},
{
color = 2;
glyphname = uniE0CD;
lastChange = "2020-07-23 18:20:43 +0000";
layers = (
{
layerId = "F8C3375C-B372-4BAE-A3FB-5A8DC7FA7AB9";
paths = (
{
closed = 1;
nodes = (
"1031 290 LINE",
"1200 854 LINE",
"1031 1419 LINE",
"692 1419 LINE",
"523 854 LINE",
"692 290 LINE"
);
},
{
closed = 1;
nodes = (
"345 -480 LINE",
"514 85 LINE",
"345 650 LINE",
"0 650 LINE",
"0 -480 LINE"
);
},
{
closed = 1;
nodes = (
"28 596 LINE",
"328 596 LINE",
"481 85 LINE",
"328 -425 LINE",
"28 -425 LINE"
);
},
{
closed = 1;
nodes = (
"555 854 LINE",
"708 1364 LINE",
"1014 1364 LINE",
"1167 854 LINE",
"1014 343 LINE",
"708 343 LINE"
);
},
{
closed = 1;
nodes = (
"345 1096 LINE",
"514 1661 LINE",
"345 2226 LINE",
"0 2226 LINE",
"0 1096 LINE"
);
},
{
closed = 1;
nodes = (
"28 2171 LINE",
"328 2171 LINE",
"481 1661 LINE",
"328 1150 LINE",
"28 1150 LINE"
);
}
);
width = 1200;
}
);
note = uniE0CD;
unicode = E0CD;
},
{
color = 2;
glyphname = uniE0CE;
lastChange = "2020-07-23 18:20:43 +0000";
layers = (
{
layerId = "F8C3375C-B372-4BAE-A3FB-5A8DC7FA7AB9";
paths = (
{
closed = 1;
nodes = (
"950 -149 LINE",
"891 -146 LINE",
"856 -76 OFFCURVE",
"836 71 OFFCURVE",
"836 218 CURVE SMOOTH",
"836 353 OFFCURVE",
"855 501 OFFCURVE",
"892 584 CURVE",
"971 579 LINE",
"936 490 OFFCURVE",
"919 342 OFFCURVE",
"919 209 CURVE SMOOTH",
"919 58 OFFCURVE",
"939 -93 OFFCURVE",
"971 -149 CURVE",
"976 -155 OFFCURVE",
"981 -158 OFFCURVE",
"986 -158 CURVE",
"987 -157 LINE",
"1011 -156 OFFCURVE",
"1034 -85 OFFCURVE",
"1046 27 CURVE SMOOTH",
"1052 84 OFFCURVE",
"1055 145 OFFCURVE",
"1055 212 CURVE SMOOTH",
"1055 234 OFFCURVE",
"1054 259 OFFCURVE",
"1053 286 CURVE",
"1108 515 LINE",
"1036 519 LINE",
"1002 589 OFFCURVE",
"981 737 OFFCURVE",
"981 883 CURVE SMOOTH",
"981 1019 OFFCURVE",
"1000 1166 OFFCURVE",
"1037 1249 CURVE",
"1106 1244 LINE",
"1052 1464 LINE",
"1053 1488 OFFCURVE",
"1053 1509 OFFCURVE",
"1053 1524 CURVE SMOOTH",
"1053 1625 OFFCURVE",
"1046 1721 OFFCURVE",
"1033 1787 CURVE SMOOTH",
"1020 1853 OFFCURVE",
"1003 1895 OFFCURVE",
"985 1895 CURVE SMOOTH",
"976 1895 OFFCURVE",
"967 1886 OFFCURVE",
"958 1867 CURVE",
"929 1777 OFFCURVE",
"916 1642 OFFCURVE",
"916 1517 CURVE SMOOTH",
"916 1502 OFFCURVE",
"916 1486 OFFCURVE",
"916 1471 CURVE SMOOTH",
"920 1336 OFFCURVE",
"940 1208 OFFCURVE",
"969 1164 CURVE",
"888 1167 LINE",
"866 1212 OFFCURVE",
"849 1288 OFFCURVE",
"840 1376 CURVE SMOOTH",
"836 1423 OFFCURVE",
"833 1477 OFFCURVE",
"833 1531 CURVE SMOOTH",
"833 1622 OFFCURVE",
"840 1709 OFFCURVE",
"856 1789 CURVE SMOOTH",
"865 1831 OFFCURVE",
"876 1868 OFFCURVE",
"888 1897 CURVE",
"946 1894 LINE",
"876 2177 LINE",
"558 863 LINE",
"878 -452 LINE"
);
},
{
closed = 1;
nodes = (
"786 -480 LINE",
"465 751 LINE",
"0 751 LINE",
"291 -480 LINE"
);
},
{
closed = 1;
nodes = (
"730 503 LINE",
"695 573 OFFCURVE",
"675 723 OFFCURVE",
"675 870 CURVE SMOOTH",
"675 1004 OFFCURVE",
"694 1148 OFFCURVE",
"731 1233 CURVE",
"810 1228 LINE",
"775 1138 OFFCURVE",
"758 990 OFFCURVE",
"758 856 CURVE SMOOTH",
"758 846 OFFCURVE",
"758 833 OFFCURVE",
"758 823 CURVE SMOOTH",
"762 682 OFFCURVE",
"782 547 OFFCURVE",
"811 499 CURVE"
);
},
{
closed = 1;
nodes = (
"469 995 LINE",
"776 2226 LINE",
"295 2226 LINE",
"4 995 LINE"
);
},
{
closed = 1;
nodes = (
"1132 505 LINE",
"1157 506 OFFCURVE",
"1179 576 OFFCURVE",
"1191 689 CURVE SMOOTH",
"1197 746 OFFCURVE",
"1200 807 OFFCURVE",
"1200 874 CURVE SMOOTH",
"1200 1007 OFFCURVE",
"1187 1129 OFFCURVE",
"1166 1195 CURVE SMOOTH",
"1155 1228 OFFCURVE",
"1144 1244 OFFCURVE",
"1131 1244 CURVE SMOOTH",
"1124 1244 OFFCURVE",
"1117 1238 OFFCURVE",
"1110 1228 CURVE",
"1080 1138 OFFCURVE",
"1064 998 OFFCURVE",
"1064 871 CURVE SMOOTH",
"1064 856 OFFCURVE",
"1064 842 OFFCURVE",
"1065 829 CURVE SMOOTH",
"1068 691 OFFCURVE",
"1089 563 OFFCURVE",
"1117 514 CURVE",
"1114 514 LINE",
"1120 507 OFFCURVE",
"1125 503 OFFCURVE",
"1131 503 CURVE"
);
}
);
width = 1200;
}
);
note = uniE0CE;
unicode = E0CE;
},
{
color = 2;
glyphname = uniE0CF;
lastChange = "2020-07-23 18:20:43 +0000";
layers = (
{
layerId = "F8C3375C-B372-4BAE-A3FB-5A8DC7FA7AB9";
paths = (
{
closed = 1;
nodes = (
"1188 1499 LINE",
"1053 1661 LINE",
"1052 1528 LINE",
"1021 1451 OFFCURVE",
"955 1405 OFFCURVE",
"890 1405 CURVE SMOOTH",
"830 1405 OFFCURVE",
"766 1449 OFFCURVE",
"728 1531 CURVE",
"731 1709 LINE",
"770 1630 OFFCURVE",
"836 1592 OFFCURVE",
"895 1592 CURVE SMOOTH",
"962 1592 OFFCURVE",
"1029 1637 OFFCURVE",
"1053 1710 CURVE SMOOTH",
"1056 1721 OFFCURVE",
"1058 1732 OFFCURVE",
"1058 1743 CURVE",
"1057 1745 LINE",
"1057 1830 OFFCURVE",
"984 1898 OFFCURVE",
"893 1898 CURVE SMOOTH",
"883 1898 OFFCURVE",
"873 1897 OFFCURVE",
"860 1895 CURVE",
"759 2018 LINE",
"757 1856 LINE",
"726 1779 OFFCURVE",
"660 1733 OFFCURVE",
"595 1733 CURVE SMOOTH",
"535 1733 OFFCURVE",
"471 1776 OFFCURVE",
"433 1858 CURVE",
"435 2015 LINE",
"338 1892 LINE",
"327 1894 OFFCURVE",
"318 1895 OFFCURVE",
"311 1895 CURVE SMOOTH",
"220 1895 OFFCURVE",
"147 1826 OFFCURVE",
"147 1739 CURVE SMOOTH",
"147 1720 OFFCURVE",
"151 1701 OFFCURVE",
"159 1682 CURVE",
"199 1617 OFFCURVE",
"259 1584 OFFCURVE",
"314 1584 CURVE SMOOTH",
"322 1584 OFFCURVE",
"328 1585 OFFCURVE",
"335 1586 CURVE SMOOTH",
"395 1595 OFFCURVE",
"451 1639 OFFCURVE",
"471 1704 CURVE",
"469 1521 LINE",
"439 1444 OFFCURVE",
"373 1397 OFFCURVE",
"308 1397 CURVE SMOOTH",
"248 1397 OFFCURVE",
"183 1441 OFFCURVE",
"146 1524 CURVE",
"147 1652 LINE",
"21 1495 LINE",
"21 1495 LINE",
"605 777 LINE"
);
},
{
closed = 1;
nodes = (
"546 578 LINE",
"3 1268 LINE",
"0 185 LINE",
"0 185 LINE",
"546 -470 LINE"
);
},
{
closed = 1;
nodes = (
"1200 176 LINE",
"1200 1292 LINE",
"654 568 LINE",
"654 568 LINE",
"654 -480 LINE"
);
},
{
closed = 1;
nodes = (
"543 1043 OFFCURVE",
"478 1085 OFFCURVE",
"441 1168 CURVE",
"443 1346 LINE",
"483 1267 OFFCURVE",
"549 1229 OFFCURVE",
"609 1229 CURVE SMOOTH",
"613 1229 OFFCURVE",
"618 1230 OFFCURVE",
"622 1230 CURVE SMOOTH",
"686 1237 OFFCURVE",
"745 1283 OFFCURVE",
"766 1349 CURVE",
"764 1166 LINE",
"734 1089 OFFCURVE",
"667 1043 OFFCURVE",
"603 1043 CURVE",
"603 1043 LINE"
);
},
{
closed = 1;
nodes = (
"607 1920 OFFCURVE",
"614 1920 OFFCURVE",
"620 1921 CURVE SMOOTH",
"681 1930 OFFCURVE",
"738 1974 OFFCURVE",
"759 2039 CURVE",
"759 2032 LINE",
"763 2044 OFFCURVE",
"764 2058 OFFCURVE",
"764 2071 CURVE SMOOTH",
"764 2072 LINE SMOOTH",
"763 2157 OFFCURVE",
"690 2226 OFFCURVE",
"599 2226 CURVE SMOOTH",
"509 2226 OFFCURVE",
"435 2156 OFFCURVE",
"435 2071 CURVE SMOOTH",
"435 2054 OFFCURVE",
"438 2039 OFFCURVE",
"443 2025 CURVE",
"443 2023 LINE",
"482 1955 OFFCURVE",
"544 1920 OFFCURVE",
"601 1920 CURVE",
"601 1920 LINE"
);
}
);
width = 1200;
}
);
note = uniE0CF;
unicode = E0CF;
},
{
color = 2;
glyphname = uniE0D0;
lastChange = "2020-07-23 18:20:43 +0000";
layers = (
{
layerId = "F8C3375C-B372-4BAE-A3FB-5A8DC7FA7AB9";
paths = (
{
closed = 1;
nodes = (
"1041 893 OFFCURVE",
"1122 962 OFFCURVE",
"1166 1071 CURVE SMOOTH",
"1188 1126 OFFCURVE",
"1200 1186 OFFCURVE",
"1200 1251 CURVE SMOOTH",
"1200 1347 OFFCURVE",
"1173 1438 OFFCURVE",
"1127 1504 CURVE SMOOTH",
"1078 1574 LINE SMOOTH",
"1032 1640 OFFCURVE",
"970 1679 OFFCURVE",
"903 1679 CURVE SMOOTH",
"813 1679 OFFCURVE",
"732 1610 OFFCURVE",
"688 1501 CURVE SMOOTH",
"666 1446 OFFCURVE",
"655 1386 OFFCURVE",
"655 1321 CURVE SMOOTH",
"655 1257 OFFCURVE",
"668 1193 OFFCURVE",
"689 1141 CURVE SMOOTH",
"700 1114 OFFCURVE",
"712 1090 OFFCURVE",
"727 1068 CURVE",
"727 1068 LINE",
"777 998 LINE SMOOTH",
"824 932 OFFCURVE",
"885 893 OFFCURVE",
"952 893 CURVE SMOOTH"
);
},
{
closed = 1;
nodes = (
"227 -155 OFFCURVE",
"180 -127 OFFCURVE",
"141 -76 CURVE",
"141 -76 LINE",
"173 -99 OFFCURVE",
"208 -110 OFFCURVE",
"245 -111 CURVE",
"279 -160 LINE"
);
},
{
closed = 1;
nodes = (
"47 86 OFFCURVE",
"28 149 OFFCURVE",
"25 222 CURVE",
"25 222 LINE",
"32 211 LINE",
"37 150 OFFCURVE",
"52 95 OFFCURVE",
"77 44 CURVE",
"81 31 LINE"
);
},
{
closed = 1;
nodes = (
"264 -110 LINE",
"388 -98 OFFCURVE",
"487 45 OFFCURVE",
"495 224 CURVE",
"531 172 LINE",
"530 52 OFFCURVE",
"487 -57 OFFCURVE",
"415 -116 CURVE",
"415 -116 LINE",
"380 -145 OFFCURVE",
"341 -160 OFFCURVE",
"300 -161 CURVE"
);
},
{
closed = 1;
nodes = (
"24 251 LINE",
"25 283 OFFCURVE",
"28 314 OFFCURVE",
"34 344 CURVE",
"34 344 LINE",
"46 403 OFFCURVE",
"71 453 OFFCURVE",
"102 493 CURVE",
"54 424 OFFCURVE",
"31 342 OFFCURVE",
"31 247 CURVE SMOOTH",
"31 241 LINE"
);
},
{
closed = 1;
nodes = (
"386 -181 OFFCURVE",
"468 -114 OFFCURVE",
"511 -4 CURVE SMOOTH",
"533 52 OFFCURVE",
"545 112 OFFCURVE",
"545 177 CURVE SMOOTH",
"545 273 OFFCURVE",
"518 364 OFFCURVE",
"472 430 CURVE",
"472 430 LINE",
"423 500 LINE SMOOTH",
"377 566 OFFCURVE",
"315 605 OFFCURVE",
"248 605 CURVE SMOOTH",
"158 605 OFFCURVE",
"77 536 OFFCURVE",
"33 427 CURVE SMOOTH",
"11 372 OFFCURVE",
"0 312 OFFCURVE",
"0 247 CURVE SMOOTH",
"0 151 OFFCURVE",
"25 60 OFFCURVE",
"72 -6 CURVE SMOOTH",
"122 -76 LINE SMOOTH",
"169 -142 OFFCURVE",
"230 -181 OFFCURVE",
"297 -181 CURVE SMOOTH"
);
},
{
closed = 1;
nodes = (
"203 -76 OFFCURVE",
"152 -41 OFFCURVE",
"113 16 CURVE",
"113 16 LINE",
"68 81 OFFCURVE",
"45 158 OFFCURVE",
"45 247 CURVE SMOOTH",
"45 339 OFFCURVE",
"74 426 OFFCURVE",
"114 481 CURVE SMOOTH",
"154 536 OFFCURVE",
"204 570 OFFCURVE",
"248 570 CURVE SMOOTH",
"292 570 OFFCURVE",
"343 536 OFFCURVE",
"383 479 CURVE SMOOTH",
"428 414 OFFCURVE",
"450 336 OFFCURVE",
"450 247 CURVE SMOOTH",
"450 156 OFFCURVE",
"422 69 OFFCURVE",
"382 14 CURVE SMOOTH",
"342 -41 OFFCURVE",
"291 -76 OFFCURVE",
"248 -76 CURVE SMOOTH"
);
},
{
closed = 1;
nodes = (
"437 65 OFFCURVE",
"460 139 OFFCURVE",
"464 224 CURVE",
"464 224 LINE",
"470 215 LINE",
"464 129 OFFCURVE",
"438 58 OFFCURVE",
"393 2 CURVE"
);
},
{
closed = 1;
nodes = (
"882 -155 OFFCURVE",
"835 -127 OFFCURVE",
"796 -76 CURVE",
"796 -76 LINE",
"829 -99 OFFCURVE",
"863 -110 OFFCURVE",
"900 -111 CURVE",
"934 -160 LINE"
);
},
{
closed = 1;
nodes = (
"464 251 LINE",
"464 301 OFFCURVE",
"456 348 OFFCURVE",
"441 393 CURVE",
"446 386 OFFCURVE",
"450 378 OFFCURVE",
"455 370 CURVE",
"455 370 LINE",
"466 331 OFFCURVE",
"471 290 OFFCURVE",
"471 247 CURVE SMOOTH",
"471 242 LINE"
);
},
{
closed = 1;
nodes = (
"495 252 LINE",
"495 304 OFFCURVE",
"487 354 OFFCURVE",
"471 401 CURVE",
"507 344 OFFCURVE",
"526 278 OFFCURVE",
"530 202 CURVE",
"530 202 LINE"
);
},
{
closed = 1;
nodes = (
"703 86 OFFCURVE",
"683 149 OFFCURVE",
"680 222 CURVE",
"680 222 LINE",
"687 211 LINE",
"692 150 OFFCURVE",
"707 95 OFFCURVE",
"732 44 CURVE",
"736 31 LINE"
);
},
{
closed = 1;
nodes = (
"398 486 OFFCURVE",
"396 488 OFFCURVE",
"396 488 CURVE",
"392 494 LINE",
"392 494 LINE",
"397 487 LINE SMOOTH"
);
},
{
closed = 1;
nodes = (
"919 -110 LINE",
"1043 -98 OFFCURVE",
"1142 45 OFFCURVE",
"1150 224 CURVE",
"1186 173 LINE",
"1185 52 OFFCURVE",
"1142 -57 OFFCURVE",
"1070 -116 CURVE",
"1070 -116 LINE",
"1035 -145 OFFCURVE",
"996 -160 OFFCURVE",
"955 -161 CURVE"
);
},
{
closed = 1;
nodes = (
"679 251 LINE",
"680 347 OFFCURVE",
"709 433 OFFCURVE",
"757 493 CURVE",
"757 493 LINE",
"709 424 OFFCURVE",
"686 342 OFFCURVE",
"686 247 CURVE SMOOTH",
"686 241 LINE"
);
},
{
closed = 1;
nodes = (
"1041 -181 OFFCURVE",
"1123 -114 OFFCURVE",
"1166 -4 CURVE SMOOTH",
"1188 52 OFFCURVE",
"1200 112 OFFCURVE",
"1200 177 CURVE SMOOTH",
"1200 241 OFFCURVE",
"1186 305 OFFCURVE",
"1166 358 CURVE SMOOTH",
"1156 384 OFFCURVE",
"1142 408 OFFCURVE",
"1127 430 CURVE",
"1127 430 LINE",
"1078 500 LINE SMOOTH",
"1032 566 OFFCURVE",
"970 605 OFFCURVE",
"903 605 CURVE SMOOTH",
"813 605 OFFCURVE",
"732 536 OFFCURVE",
"688 427 CURVE SMOOTH",
"666 372 OFFCURVE",
"655 312 OFFCURVE",
"655 247 CURVE SMOOTH",
"655 151 OFFCURVE",
"680 60 OFFCURVE",
"727 -6 CURVE SMOOTH",
"777 -76 LINE SMOOTH",
"824 -142 OFFCURVE",
"885 -181 OFFCURVE",
"952 -181 CURVE SMOOTH"
);
},
{
closed = 1;
nodes = (
"874 -76 OFFCURVE",
"842 -61 OFFCURVE",
"811 -34 CURVE SMOOTH",
"795 -20 OFFCURVE",
"781 -3 OFFCURVE",
"768 16 CURVE",
"768 16 LINE",
"723 81 OFFCURVE",
"700 158 OFFCURVE",
"700 247 CURVE SMOOTH",
"700 322 OFFCURVE",
"718 392 OFFCURVE",
"747 444 CURVE SMOOTH",
"761 469 OFFCURVE",
"777 492 OFFCURVE",
"794 511 CURVE SMOOTH",
"829 550 OFFCURVE",
"867 570 OFFCURVE",
"903 570 CURVE SMOOTH",
"947 570 OFFCURVE",
"998 536 OFFCURVE",
"1038 479 CURVE SMOOTH",
"1083 414 OFFCURVE",
"1106 336 OFFCURVE",
"1106 247 CURVE SMOOTH",
"1106 156 OFFCURVE",
"1077 69 OFFCURVE",
"1037 14 CURVE SMOOTH",
"997 -41 OFFCURVE",
"946 -76 OFFCURVE",
"903 -76 CURVE SMOOTH"
);
},
{
closed = 1;
nodes = (
"227 919 OFFCURVE",
"180 947 OFFCURVE",
"141 998 CURVE",
"141 998 LINE",
"173 975 OFFCURVE",
"208 964 OFFCURVE",
"245 963 CURVE",
"279 914 LINE"
);
},
{
closed = 1;
nodes = (
"1092 65 OFFCURVE",
"1115 139 OFFCURVE",
"1119 224 CURVE",
"1119 224 LINE",
"1125 215 LINE",
"1119 129 OFFCURVE",
"1094 58 OFFCURVE",
"1048 2 CURVE"
);
},
{
closed = 1;
nodes = (
"47 1160 OFFCURVE",
"28 1223 OFFCURVE",
"25 1296 CURVE",
"25 1296 LINE",
"32 1285 LINE",
"37 1224 OFFCURVE",
"52 1169 OFFCURVE",
"77 1118 CURVE",
"81 1105 LINE"
);
},
{
closed = 1;
nodes = (
"1119 252 LINE",
"1119 301 OFFCURVE",
"1111 348 OFFCURVE",
"1097 393 CURVE",
"1101 386 OFFCURVE",
"1106 378 OFFCURVE",
"1110 370 CURVE",
"1110 370 LINE",
"1121 331 OFFCURVE",
"1126 290 OFFCURVE",
"1126 247 CURVE SMOOTH",
"1126 242 LINE"
);
},
{
closed = 1;
nodes = (
"1151 252 LINE",
"1150 304 OFFCURVE",
"1142 354 OFFCURVE",
"1126 401 CURVE",
"1162 344 OFFCURVE",
"1181 278 OFFCURVE",
"1185 202 CURVE",
"1185 202 LINE"
);
},
{
closed = 1;
nodes = (
"264 964 LINE",
"388 976 OFFCURVE",
"487 1119 OFFCURVE",
"495 1298 CURVE",
"531 1247 LINE",
"530 1156 OFFCURVE",
"503 1071 OFFCURVE",
"462 1012 CURVE",
"462 1012 LINE",
"421 952 OFFCURVE",
"361 913 OFFCURVE",
"300 913 CURVE"
);
},
{
closed = 1;
nodes = (
"24 1325 LINE",
"25 1421 OFFCURVE",
"54 1507 OFFCURVE",
"102 1567 CURVE",
"102 1567 LINE",
"54 1498 OFFCURVE",
"31 1416 OFFCURVE",
"31 1321 CURVE SMOOTH",
"31 1315 LINE"
);
},
{
closed = 1;
nodes = (
"1053 486 OFFCURVE",
"1052 488 OFFCURVE",
"1051 488 CURVE",
"1049 492 LINE",
"1049 492 LINE",
"1052 487 LINE SMOOTH"
);
},
{
closed = 1;
nodes = (
"386 893 OFFCURVE",
"467 962 OFFCURVE",
"511 1071 CURVE SMOOTH",
"533 1126 OFFCURVE",
"545 1186 OFFCURVE",
"545 1251 CURVE SMOOTH",
"545 1347 OFFCURVE",
"518 1438 OFFCURVE",
"472 1504 CURVE",
"472 1504 LINE",
"423 1574 LINE SMOOTH",
"377 1640 OFFCURVE",
"315 1679 OFFCURVE",
"248 1679 CURVE SMOOTH",
"158 1679 OFFCURVE",
"77 1610 OFFCURVE",
"33 1501 CURVE SMOOTH",
"11 1446 OFFCURVE",
"0 1386 OFFCURVE",
"0 1321 CURVE SMOOTH",
"0 1225 OFFCURVE",
"25 1134 OFFCURVE",
"72 1068 CURVE SMOOTH",
"122 998 LINE SMOOTH",
"169 932 OFFCURVE",
"230 893 OFFCURVE",
"297 893 CURVE SMOOTH"
);
},
{
closed = 1;
nodes = (
"203 998 OFFCURVE",
"152 1033 OFFCURVE",
"113 1090 CURVE",
"113 1090 LINE",
"68 1155 OFFCURVE",
"45 1232 OFFCURVE",
"45 1321 CURVE SMOOTH",
"45 1413 OFFCURVE",
"74 1500 OFFCURVE",
"114 1555 CURVE SMOOTH",
"154 1610 OFFCURVE",
"204 1644 OFFCURVE",
"248 1644 CURVE SMOOTH",
"292 1644 OFFCURVE",
"343 1610 OFFCURVE",
"383 1553 CURVE SMOOTH",
"428 1488 OFFCURVE",
"450 1410 OFFCURVE",
"450 1321 CURVE SMOOTH",
"450 1230 OFFCURVE",
"422 1143 OFFCURVE",
"382 1088 CURVE SMOOTH",
"342 1033 OFFCURVE",
"291 998 OFFCURVE",
"248 998 CURVE SMOOTH"
);
},
{
closed = 1;
nodes = (
"437 1139 OFFCURVE",
"460 1213 OFFCURVE",
"464 1298 CURVE",
"464 1298 LINE",
"470 1289 LINE",
"464 1203 OFFCURVE",
"439 1132 OFFCURVE",
"393 1076 CURVE"
);
},
{
closed = 1;
nodes = (
"882 919 OFFCURVE",
"835 947 OFFCURVE",
"796 998 CURVE",
"796 998 LINE",
"829 975 OFFCURVE",
"863 964 OFFCURVE",
"900 963 CURVE",
"934 914 LINE"
);
},
{
closed = 1;
nodes = (
"464 1325 LINE",
"464 1375 OFFCURVE",
"456 1422 OFFCURVE",
"441 1467 CURVE",
"446 1460 OFFCURVE",
"450 1452 OFFCURVE",
"455 1444 CURVE",
"455 1444 LINE",
"466 1405 OFFCURVE",
"471 1364 OFFCURVE",
"471 1321 CURVE SMOOTH",
"471 1316 LINE"
);
},
{
closed = 1;
nodes = (
"495 1325 LINE",
"495 1378 OFFCURVE",
"487 1428 OFFCURVE",
"471 1475 CURVE",
"507 1418 OFFCURVE",
"526 1352 OFFCURVE",
"530 1276 CURVE",
"530 1276 LINE"
);
},
{
closed = 1;
nodes = (
"703 1160 OFFCURVE",
"683 1223 OFFCURVE",
"680 1296 CURVE",
"680 1296 LINE",
"687 1285 LINE",
"692 1224 OFFCURVE",
"707 1169 OFFCURVE",
"732 1118 CURVE",
"736 1105 LINE"
);
},
{
closed = 1;
nodes = (
"398 1560 OFFCURVE",
"396 1562 OFFCURVE",
"396 1562 CURVE",
"392 1567 LINE",
"392 1567 LINE",
"392 1568 LINE",
"397 1561 LINE SMOOTH"
);
},
{
closed = 1;
nodes = (
"919 964 LINE",
"1043 976 OFFCURVE",
"1142 1119 OFFCURVE",
"1150 1298 CURVE",
"1186 1247 LINE",
"1185 1126 OFFCURVE",
"1141 1018 OFFCURVE",
"1070 959 CURVE",
"1070 959 LINE",
"1035 930 OFFCURVE",
"996 914 OFFCURVE",
"955 913 CURVE"
);
},
{
closed = 1;
nodes = (
"679 1325 LINE",
"680 1421 OFFCURVE",
"709 1507 OFFCURVE",
"757 1567 CURVE",
"757 1567 LINE",
"709 1498 OFFCURVE",
"686 1416 OFFCURVE",
"686 1321 CURVE SMOOTH",
"686 1315 LINE"
);
},
{
closed = 1;
nodes = (
"858 998 OFFCURVE",
"807 1033 OFFCURVE",
"768 1090 CURVE SMOOTH",
"723 1155 OFFCURVE",
"700 1232 OFFCURVE",
"700 1321 CURVE SMOOTH",
"700 1413 OFFCURVE",
"729 1500 OFFCURVE",
"769 1555 CURVE",
"769 1555 LINE",
"809 1610 OFFCURVE",
"859 1644 OFFCURVE",
"903 1644 CURVE SMOOTH",
"947 1644 OFFCURVE",
"998 1610 OFFCURVE",
"1038 1553 CURVE SMOOTH",
"1083 1488 OFFCURVE",
"1106 1410 OFFCURVE",
"1106 1321 CURVE SMOOTH",
"1106 1230 OFFCURVE",
"1077 1143 OFFCURVE",
"1037 1088 CURVE SMOOTH",
"997 1033 OFFCURVE",
"946 998 OFFCURVE",
"903 998 CURVE SMOOTH"
);
},
{
closed = 1;
nodes = (
"1092 1139 OFFCURVE",
"1115 1213 OFFCURVE",
"1119 1298 CURVE",
"1125 1289 LINE",
"1119 1203 OFFCURVE",
"1094 1132 OFFCURVE",
"1048 1076 CURVE",
"1048 1076 LINE"
);
},
{
closed = 1;
nodes = (
"1119 1326 LINE",
"1119 1375 OFFCURVE",
"1111 1422 OFFCURVE",
"1097 1467 CURVE",
"1101 1460 OFFCURVE",
"1106 1452 OFFCURVE",
"1110 1444 CURVE",
"1110 1444 LINE",
"1121 1405 OFFCURVE",
"1126 1364 OFFCURVE",
"1126 1321 CURVE SMOOTH",
"1126 1316 LINE"
);
},
{
closed = 1;
nodes = (
"1151 1326 LINE",
"1150 1378 OFFCURVE",
"1142 1428 OFFCURVE",
"1126 1475 CURVE",
"1162 1418 OFFCURVE",
"1181 1352 OFFCURVE",
"1185 1276 CURVE",
"1185 1276 LINE"
);
},
{
closed = 1;
nodes = (
"1053 1560 OFFCURVE",
"1052 1562 OFFCURVE",
"1051 1562 CURVE",
"1047 1567 LINE",
"1049 1566 OFFCURVE",
"1049 1564 OFFCURVE",
"1052 1561 CURVE",
"1052 1561 LINE"
);
}
);
width = 1200;
}
);
note = uniE0D0;
unicode = E0D0;
},
{
color = 4;
glyphname = uniE0D1;
lastChange = "2021-10-18 18:04:16 +0000";
layers = (
{
layerId = "F8C3375C-B372-4BAE-A3FB-5A8DC7FA7AB9";
paths = (
{
closed = 1;
nodes = (
"913 -480 LINE",
"913 -88 LINE",
"1165 -88 LINE SMOOTH",
"1180 -88 OFFCURVE",
"1197 -64 OFFCURVE",
"1197 -32 CURVE SMOOTH",
"1197 646 LINE SMOOTH",
"1197 671 OFFCURVE",
"1183 699 OFFCURVE",
"1165 699 CURVE SMOOTH",
"913 699 LINE",
"913 1137 LINE",
"1167 1137 LINE SMOOTH",
"1183 1137 OFFCURVE",
"1200 1162 OFFCURVE",
"1200 1192 CURVE SMOOTH",
"1200 1876 LINE SMOOTH",
"1200 1903 OFFCURVE",
"1185 1932 OFFCURVE",
"1167 1932 CURVE SMOOTH",
"913 1932 LINE",
"913 2226 LINE",
"0 2226 LINE",
"0 -480 LINE"
);
},
{
closed = 1;
nodes = (
"917 590 LINE",
"1151 590 LINE",
"1151 447 LINE",
"917 447 LINE"
);
},
{
closed = 1;
nodes = (
"917 1836 LINE",
"1151 1836 LINE",
"1151 1692 LINE",
"917 1692 LINE"
);
},
{
closed = 1;
nodes = (
"0 2226 LINE",
"-100 2226 LINE",
"-100 -480 LINE",
"0 -480 LINE"
);
}
);
width = 1200;
}
);
note = uniE0D1;
unicode = E0D1;
},
{
color = 9;
glyphname = uniE0D2;
lastChange = "2021-10-18 18:07:15 +0000";
layers = (
{
layerId = "F8C3375C-B372-4BAE-A3FB-5A8DC7FA7AB9";
paths = (
{
closed = 1;
nodes = (
"1200 -480 LINE",
"371 753 LINE",
"-100 753 LINE",
"-100 -480 LINE"
);
},
{
closed = 1;
nodes = (
"381 993 LINE",
"1172 2226 LINE",
"-100 2226 LINE",
"-100 993 LINE"
);
}
);
width = 1200;
}
);
note = uniE0D2;
unicode = E0D2;
},
{
color = 9;
glyphname = uniE0D4;
lastChange = "2021-10-18 18:07:15 +0000";
layers = (
{
layerId = "F8C3375C-B372-4BAE-A3FB-5A8DC7FA7AB9";
paths = (
{
closed = 1;
nodes = (
"1300 -480 LINE",
"1300 753 LINE",
"829 753 LINE",
"0 -480 LINE"
);
},
{
closed = 1;
nodes = (
"1300 993 LINE",
"1300 2226 LINE",
"28 2226 LINE",
"819 993 LINE"
);
}
);
width = 1200;
}
);
note = uniE0D4;
unicode = E0D4;
},
{
color = 2;
glyphname = uniE0A0.stypo;
lastChange = "2020-07-23 18:20:43 +0000";
layers = (
{
layerId = "F8C3375C-B372-4BAE-A3FB-5A8DC7FA7AB9";
paths = (
{
closed = 1;
nodes = (
"444 -480 LINE",
"444 8 LINE SMOOTH",
"444 267 OFFCURVE",
"527 310 OFFCURVE",
"788 488 CURVE SMOOTH",
"946 596 OFFCURVE",
"1001 702 OFFCURVE",
"1001 894 CURVE SMOOTH",
"1001 1210 LINE",
"1210 1210 LINE",
"919 1552 LINE",
"626 1210 LINE",
"835 1210 LINE",
"835 950 LINE SMOOTH",
"835 825 OFFCURVE",
"798 737 OFFCURVE",
"669 662 CURVE SMOOTH",
"216 399 OFFCURVE",
"168 308 OFFCURVE",
"168 8 CURVE",
"168 -480 LINE"
);
},
{
closed = 1;
nodes = (
"444 820 LINE",
"444 1900 LINE",
"168 1900 LINE",
"168 642 LINE"
);
}
);
width = 1200;
}
);
note = uniE0A0;
},
{
color = 4;
glyphname = uniE0B0.stypo;
lastChange = "2021-10-18 18:01:26 +0000";
layers = (
{
layerId = "F8C3375C-B372-4BAE-A3FB-5A8DC7FA7AB9";
paths = (
{
closed = 1;
nodes = (
"1200 710 LINE",
"0 1900 LINE",
"0 -480 LINE"
);
},
{
closed = 1;
nodes = (
"0 -480 LINE",
"0 1900 LINE",
"-100 1900 LINE",
"-100 -480 LINE"
);
}
);
width = 1200;
}
);
note = uniE0B0;
},
{
color = 2;
glyphname = uniE0B1.stypo;
lastChange = "2020-07-23 18:20:43 +0000";
layers = (
{
layerId = "F8C3375C-B372-4BAE-A3FB-5A8DC7FA7AB9";
paths = (
{
closed = 1;
nodes = (
"1200 710 LINE",
"103 1900 LINE",
"0 1793 LINE",
"1000 710 LINE",
"0 -372 LINE",
"103 -480 LINE"
);
}
);
width = 1200;
}
);
note = uniE0B1;
},
{
color = 4;
glyphname = uniE0B2.stypo;
lastChange = "2021-10-18 18:01:26 +0000";
layers = (
{
layerId = "F8C3375C-B372-4BAE-A3FB-5A8DC7FA7AB9";
paths = (
{
closed = 1;
nodes = (
"1200 1900 LINE",
"0 710 LINE",
"1200 -480 LINE"
);
},
{
closed = 1;
nodes = (
"1300 -480 LINE",
"1300 1900 LINE",
"1200 1900 LINE",
"1200 -480 LINE"
);
}
);
width = 1200;
}
);
note = uniE0B2;
},
{
color = 2;
glyphname = uniE0B3.stypo;
lastChange = "2020-07-23 18:20:43 +0000";
layers = (
{
layerId = "F8C3375C-B372-4BAE-A3FB-5A8DC7FA7AB9";
paths = (
{
closed = 1;
nodes = (
"1200 -372 LINE",
"200 710 LINE",
"1200 1793 LINE",
"1097 1900 LINE",
"0 710 LINE",
"1097 -480 LINE"
);
}
);
width = 1200;
}
);
note = uniE0B3;
},
{
color = 4;
glyphname = uniE0B4.stypo;
lastChange = "2021-10-18 18:01:26 +0000";
layers = (
{
layerId = "F8C3375C-B372-4BAE-A3FB-5A8DC7FA7AB9";
paths = (
{
closed = 1;
nodes = (
"723 -480 OFFCURVE",
"1200 -8 OFFCURVE",
"1200 710 CURVE SMOOTH",
"1200 1427 OFFCURVE",
"723 1900 OFFCURVE",
"0 1900 CURVE",
"0 -480 LINE"
);
},
{
closed = 1;
nodes = (
"0 -480 LINE",
"0 1900 LINE",
"-100 1900 LINE",
"-100 -480 LINE"
);
}
);
width = 1200;
}
);
note = uniE0B4;
},
{
color = 2;
glyphname = uniE0B5.stypo;
lastChange = "2020-07-23 18:20:43 +0000";
layers = (
{
layerId = "F8C3375C-B372-4BAE-A3FB-5A8DC7FA7AB9";
paths = (
{
closed = 1;
nodes = (
"238 -480 LINE",
"850 -262 OFFCURVE",
"1200 171 OFFCURVE",
"1200 710 CURVE SMOOTH",
"1200 1246 OFFCURVE",
"850 1680 OFFCURVE",
"238 1900 CURVE",
"0 1900 LINE",
"612 1674 OFFCURVE",
"962 1241 OFFCURVE",
"962 710 CURVE SMOOTH",
"962 177 OFFCURVE",
"612 -256 OFFCURVE",
"0 -480 CURVE"
);
}
);
width = 1200;
}
);
note = uniE0B5;
},
{
color = 4;
glyphname = uniE0B6.stypo;
lastChange = "2021-10-18 18:01:26 +0000";
layers = (
{
layerId = "F8C3375C-B372-4BAE-A3FB-5A8DC7FA7AB9";
paths = (
{
closed = 1;
nodes = (
"1200 1900 LINE",
"477 1900 OFFCURVE",
"0 1427 OFFCURVE",
"0 710 CURVE SMOOTH",
"0 -8 OFFCURVE",
"477 -480 OFFCURVE",
"1200 -480 CURVE"
);
},
{
closed = 1;
nodes = (
"1300 -480 LINE",
"1300 1900 LINE",
"1200 1900 LINE",
"1200 -480 LINE"
);
}
);
width = 1200;
}
);
note = uniE0B6;
},
{
color = 2;
glyphname = uniE0B7.stypo;
lastChange = "2020-07-23 18:20:43 +0000";
layers = (
{
layerId = "F8C3375C-B372-4BAE-A3FB-5A8DC7FA7AB9";
paths = (
{
closed = 1;
nodes = (
"1200 -480 LINE",
"588 -256 OFFCURVE",
"238 177 OFFCURVE",
"238 710 CURVE SMOOTH",
"238 1241 OFFCURVE",
"588 1674 OFFCURVE",
"1200 1900 CURVE",
"962 1900 LINE",
"350 1680 OFFCURVE",
"0 1246 OFFCURVE",
"0 710 CURVE SMOOTH",
"0 171 OFFCURVE",
"350 -262 OFFCURVE",
"962 -480 CURVE"
);
}
);
width = 1200;
}
);
note = uniE0B7;
},
{
color = 4;
glyphname = uniE0B8.stypo;
lastChange = "2021-10-18 18:04:16 +0000";
layers = (
{
layerId = "F8C3375C-B372-4BAE-A3FB-5A8DC7FA7AB9";
paths = (
{
closed = 1;
nodes = (
"1200 -480 LINE",
"0 1900 LINE",
"0 -480 LINE"
);
},
{
closed = 1;
nodes = (
"0 1900 LINE",
"-100 1900 LINE",
"-100 -480 LINE",
"0 -480 LINE"
);
}
);
width = 1200;
}
);
note = uniE0B8;
},
{
color = 2;
glyphname = uniE0B9.stypo;
lastChange = "2020-07-23 18:20:43 +0000";
layers = (
{
layerId = "F8C3375C-B372-4BAE-A3FB-5A8DC7FA7AB9";
paths = (
{
closed = 1;
nodes = (
"1200 -480 LINE",
"56 1900 LINE",
"0 1900 LINE",
"1144 -480 LINE"
);
}
);
width = 1200;
}
);
note = uniE0B9;
},
{
color = 4;
glyphname = uniE0BA.stypo;
lastChange = "2021-10-18 18:04:16 +0000";
layers = (
{
layerId = "F8C3375C-B372-4BAE-A3FB-5A8DC7FA7AB9";
paths = (
{
closed = 1;
nodes = (
"1200 -480 LINE",
"1200 1900 LINE",
"0 -480 LINE"
);
},
{
closed = 1;
nodes = (
"1300 -480 LINE",
"1300 1900 LINE",
"1200 1900 LINE",
"1200 -480 LINE"
);
}
);
width = 1200;
}
);
note = uniE0BA;
},
{
color = 2;
glyphname = uniE0BB.stypo;
lastChange = "2020-07-23 18:20:43 +0000";
layers = (
{
layerId = "F8C3375C-B372-4BAE-A3FB-5A8DC7FA7AB9";
paths = (
{
closed = 1;
nodes = (
"56 -480 LINE",
"1200 1900 LINE",
"1144 1900 LINE",
"0 -480 LINE"
);
}
);
width = 1200;
}
);
note = uniE0BB;
},
{
color = 4;
glyphname = uniE0BC.stypo;
lastChange = "2021-10-18 18:04:16 +0000";
layers = (
{
layerId = "F8C3375C-B372-4BAE-A3FB-5A8DC7FA7AB9";
paths = (
{
closed = 1;
nodes = (
"1200 1900 LINE",
"0 1900 LINE",
"0 -480 LINE"
);
},
{
closed = 1;
nodes = (
"0 1900 LINE",
"-100 1900 LINE",
"-100 -480 LINE",
"0 -480 LINE"
);
}
);
width = 1200;
}
);
note = uniE0BC;
},
{
color = 2;
glyphname = uniE0BD.stypo;
lastChange = "2020-07-23 18:20:43 +0000";
layers = (
{
layerId = "F8C3375C-B372-4BAE-A3FB-5A8DC7FA7AB9";
paths = (
{
closed = 1;
nodes = (
"56 -480 LINE",
"1200 1900 LINE",
"1144 1900 LINE",
"0 -480 LINE"
);
}
);
width = 1200;
}
);
note = uniE0BD;
},
{
color = 4;
glyphname = uniE0BE.stypo;
lastChange = "2021-10-18 18:04:16 +0000";
layers = (
{
layerId = "F8C3375C-B372-4BAE-A3FB-5A8DC7FA7AB9";
paths = (
{
closed = 1;
nodes = (
"1200 1900 LINE",
"0 1900 LINE",
"1200 -480 LINE"
);
},
{
closed = 1;
nodes = (
"1300 -480 LINE",
"1300 1900 LINE",
"1200 1900 LINE",
"1200 -480 LINE"
);
}
);
width = 1200;
}
);
note = uniE0BE;
},
{
color = 2;
glyphname = uniE0BF.stypo;
lastChange = "2020-07-23 18:20:43 +0000";
layers = (
{
layerId = "F8C3375C-B372-4BAE-A3FB-5A8DC7FA7AB9";
paths = (
{
closed = 1;
nodes = (
"1200 -480 LINE",
"56 1900 LINE",
"0 1900 LINE",
"1144 -480 LINE"
);
}
);
width = 1200;
}
);
note = uniE0BF;
},
{
color = 4;
glyphname = uniE0C0.stypo;
lastChange = "2021-10-18 18:04:16 +0000";
layers = (
{
background = {
paths = (
{
closed = 1;
nodes = (
"31 -480 OFFCURVE",
"56 -448 OFFCURVE",
"79 -408 CURVE SMOOTH",
"92 -383 OFFCURVE",
"105 -361 OFFCURVE",
"119 -337 CURVE SMOOTH",
"141 -299 OFFCURVE",
"166 -270 OFFCURVE",
"187 -270 CURVE SMOOTH",
"191 -270 OFFCURVE",
"195 -271 OFFCURVE",
"199 -273 CURVE SMOOTH",
"208 -279 OFFCURVE",
"219 -283 OFFCURVE",
"230 -283 CURVE SMOOTH",
"249 -283 OFFCURVE",
"264 -275 OFFCURVE",
"284 -263 CURVE SMOOTH",
"295 -257 OFFCURVE",
"304 -250 OFFCURVE",
"313 -243 CURVE SMOOTH",
"330 -230 OFFCURVE",
"354 -215 OFFCURVE",
"371 -207 CURVE",
"364 -203 OFFCURVE",
"353 -199 OFFCURVE",
"338 -193 CURVE SMOOTH",
"308 -181 OFFCURVE",
"287 -170 OFFCURVE",
"268 -144 CURVE SMOOTH",
"244 -112 OFFCURVE",
"225 -93 OFFCURVE",
"206 -93 CURVE SMOOTH",
"190 -93 OFFCURVE",
"173 -106 OFFCURVE",
"152 -133 CURVE",
"152 -115 LINE SMOOTH",
"152 -7 OFFCURVE",
"188 87 OFFCURVE",
"225 122 CURVE SMOOTH",
"235 133 OFFCURVE",
"247 139 OFFCURVE",
"259 139 CURVE SMOOTH",
"288 139 OFFCURVE",
"309 119 OFFCURVE",
"337 92 CURVE SMOOTH",
"350 80 OFFCURVE",
"363 67 OFFCURVE",
"374 55 CURVE SMOOTH",
"397 28 OFFCURVE",
"427 9 OFFCURVE",
"448 9 CURVE SMOOTH",
"508 9 OFFCURVE",
"578 37 OFFCURVE",
"624 106 CURVE",
"596 86 OFFCURVE",
"570 75 OFFCURVE",
"547 75 CURVE SMOOTH",
"536 75 OFFCURVE",
"526 78 OFFCURVE",
"516 82 CURVE SMOOTH",
"491 92 OFFCURVE",
"471 124 OFFCURVE",
"461 155 CURVE SMOOTH",
"451 185 OFFCURVE",
"433 235 OFFCURVE",
"420 263 CURVE SMOOTH",
"414 276 LINE",
"430 289 OFFCURVE",
"439 298 OFFCURVE",
"450 315 CURVE SMOOTH",
"465 338 OFFCURVE",
"475 362 OFFCURVE",
"491 395 CURVE SMOOTH",
"496 405 OFFCURVE",
"503 409 OFFCURVE",
"511 409 CURVE SMOOTH",
"526 409 OFFCURVE",
"544 395 OFFCURVE",
"561 379 CURVE SMOOTH",
"572 369 OFFCURVE",
"582 359 OFFCURVE",
"591 349 CURVE SMOOTH",
"611 326 OFFCURVE",
"637 297 OFFCURVE",
"654 283 CURVE SMOOTH",
"666 273 OFFCURVE",
"677 268 OFFCURVE",
"688 265 CURVE SMOOTH",
"694 264 OFFCURVE",
"699 263 OFFCURVE",
"704 263 CURVE SMOOTH",
"722 263 OFFCURVE",
"739 269 OFFCURVE",
"746 269 CURVE SMOOTH",
"769 269 OFFCURVE",
"812 309 OFFCURVE",
"842 340 CURVE SMOOTH",
"858 356 OFFCURVE",
"890 391 OFFCURVE",
"905 408 CURVE SMOOTH",
"968 478 LINE",
"895 435 OFFCURVE",
"824 405 OFFCURVE",
"784 405 CURVE SMOOTH",
"774 405 OFFCURVE",
"766 407 OFFCURVE",
"760 411 CURVE",
"758 415 OFFCURVE",
"690 466 OFFCURVE",
"682 477 CURVE SMOOTH",
"674 489 OFFCURVE",
"659 513 OFFCURVE",
"638 547 CURVE SMOOTH",
"605 601 OFFCURVE",
"576 641 OFFCURVE",
"560 635 CURVE SMOOTH",
"546 630 LINE",
"556 655 LINE SMOOTH",
"564 675 OFFCURVE",
"570 692 OFFCURVE",
"578 707 CURVE SMOOTH",
"593 736 OFFCURVE",
"610 752 OFFCURVE",
"623 764 CURVE SMOOTH",
"636 774 OFFCURVE",
"659 779 OFFCURVE",
"671 781 CURVE SMOOTH",
"686 783 OFFCURVE",
"709 784 OFFCURVE",
"725 786 CURVE SMOOTH",
"769 793 OFFCURVE",
"801 819 OFFCURVE",
"847 872 CURVE",
"835 866 OFFCURVE",
"823 864 OFFCURVE",
"812 864 CURVE SMOOTH",
"801 864 OFFCURVE",
"792 866 OFFCURVE",
"782 871 CURVE",
"778 874 OFFCURVE",
"771 876 OFFCURVE",
"761 879 CURVE SMOOTH",
"752 882 OFFCURVE",
"744 886 OFFCURVE",
"736 889 CURVE SMOOTH",
"712 900 OFFCURVE",
"682 917 OFFCURVE",
"667 955 CURVE SMOOTH",
"661 970 LINE",
"685 985 OFFCURVE",
"701 1005 OFFCURVE",
"721 1030 CURVE SMOOTH",
"732 1044 OFFCURVE",
"766 1103 OFFCURVE",
"777 1119 CURVE SMOOTH",
"795 1150 OFFCURVE",
"815 1172 OFFCURVE",
"836 1187 CURVE SMOOTH",
"860 1201 OFFCURVE",
"881 1206 OFFCURVE",
"903 1206 CURVE SMOOTH",
"922 1206 OFFCURVE",
"941 1202 OFFCURVE",
"962 1197 CURVE SMOOTH",
"999 1188 OFFCURVE",
"1035 1177 OFFCURVE",
"1070 1177 CURVE SMOOTH",
"1075 1177 OFFCURVE",
"1081 1177 OFFCURVE",
"1085 1178 CURVE",
"1125 1182 OFFCURVE",
"1166 1217 OFFCURVE",
"1200 1291 CURVE",
"1174 1256 OFFCURVE",
"1146 1242 OFFCURVE",
"1121 1242 CURVE SMOOTH",
"1105 1242 OFFCURVE",
"1085 1248 OFFCURVE",
"1064 1267 CURVE SMOOTH",
"1031 1293 OFFCURVE",
"1009 1319 OFFCURVE",
"972 1366 CURVE SMOOTH",
"914 1440 OFFCURVE",
"858 1477 OFFCURVE",
"802 1477 CURVE SMOOTH",
"771 1477 OFFCURVE",
"741 1466 OFFCURVE",
"711 1443 CURVE SMOOTH",
"678 1418 OFFCURVE",
"636 1357 OFFCURVE",
"604 1317 CURVE SMOOTH",
"578 1282 OFFCURVE",
"544 1253 OFFCURVE",
"513 1253 CURVE SMOOTH",
"505 1253 OFFCURVE",
"497 1255 OFFCURVE",
"489 1259 CURVE SMOOTH",
"445 1279 OFFCURVE",
"417 1342 OFFCURVE",
"417 1414 CURVE SMOOTH",
"417 1474 OFFCURVE",
"437 1529 OFFCURVE",
"474 1561 CURVE",
"481 1569 OFFCURVE",
"493 1579 OFFCURVE",
"507 1591 CURVE SMOOTH",
"521 1603 OFFCURVE",
"532 1613 OFFCURVE",
"540 1618 CURVE SMOOTH",
"548 1625 OFFCURVE",
"557 1635 OFFCURVE",
"567 1646 CURVE SMOOTH",
"588 1669 OFFCURVE",
"605 1698 OFFCURVE",
"622 1738 CURVE",
"590 1692 OFFCURVE",
"562 1663 OFFCURVE",
"531 1663 CURVE SMOOTH",
"512 1663 OFFCURVE",
"492 1673 OFFCURVE",
"470 1697 CURVE SMOOTH",
"448 1723 OFFCURVE",
"427 1735 OFFCURVE",
"407 1735 CURVE SMOOTH",
"374 1735 OFFCURVE",
"346 1705 OFFCURVE",
"308 1638 CURVE SMOOTH",
"297 1619 OFFCURVE",
"254 1543 OFFCURVE",
"236 1523 CURVE SMOOTH",
"214 1498 LINE SMOOTH",
"205 1488 OFFCURVE",
"197 1482 OFFCURVE",
"190 1481 CURVE SMOOTH",
"184 1479 OFFCURVE",
"179 1477 OFFCURVE",
"174 1477 CURVE SMOOTH",
"158 1477 OFFCURVE",
"145 1488 OFFCURVE",
"133 1525 CURVE SMOOTH",
"130 1535 OFFCURVE",
"129 1545 OFFCURVE",
"129 1556 CURVE SMOOTH",
"129 1574 OFFCURVE",
"134 1591 OFFCURVE",
"143 1608 CURVE SMOOTH",
"149 1619 OFFCURVE",
"162 1637 OFFCURVE",
"182 1659 CURVE SMOOTH",
"201 1681 OFFCURVE",
"212 1698 OFFCURVE",
"216 1710 CURVE SMOOTH",
"226 1740 OFFCURVE",
"230 1754 OFFCURVE",
"230 1752 CURVE",
"241 1784 OFFCURVE",
"258 1835 OFFCURVE",
"271 1853 CURVE SMOOTH",
"285 1873 OFFCURVE",
"301 1885 OFFCURVE",
"321 1882 CURVE",
"303 1904 OFFCURVE",
"285 1916 OFFCURVE",
"266 1916 CURVE SMOOTH",
"241 1916 OFFCURVE",
"216 1896 OFFCURVE",
"190 1855 CURVE SMOOTH",
"181 1840 OFFCURVE",
"173 1828 OFFCURVE",
"166 1820 CURVE SMOOTH",
"152 1801 OFFCURVE",
"132 1778 OFFCURVE",
"115 1771 CURVE SMOOTH",
"109 1769 OFFCURVE",
"104 1768 OFFCURVE",
"98 1768 CURVE SMOOTH",
"78 1768 OFFCURVE",
"60 1784 OFFCURVE",
"42 1827 CURVE",
"36 1847 OFFCURVE",
"26 1876 OFFCURVE",
"22 1885 CURVE SMOOTH",
"18 1896 OFFCURVE",
"11 1898 OFFCURVE",
"0 1900 CURVE",
"0 -480 LINE",
"10 -480 LINE"
);
},
{
closed = 1;
nodes = (
"0 1900 LINE",
"-100 1900 LINE",
"-100 -480 LINE",
"0 -480 LINE"
);
}
);
};
layerId = "F8C3375C-B372-4BAE-A3FB-5A8DC7FA7AB9";
paths = (
{
closed = 1;
nodes = (
"31 -480 OFFCURVE",
"56 -448 OFFCURVE",
"79 -408 CURVE SMOOTH",
"92 -383 OFFCURVE",
"105 -361 OFFCURVE",
"119 -337 CURVE SMOOTH",
"141 -299 OFFCURVE",
"166 -270 OFFCURVE",
"187 -270 CURVE SMOOTH",
"191 -270 OFFCURVE",
"195 -271 OFFCURVE",
"199 -273 CURVE SMOOTH",
"208 -279 OFFCURVE",
"219 -283 OFFCURVE",
"230 -283 CURVE SMOOTH",
"249 -283 OFFCURVE",
"264 -275 OFFCURVE",
"284 -263 CURVE SMOOTH",
"295 -257 OFFCURVE",
"304 -250 OFFCURVE",
"313 -243 CURVE SMOOTH",
"330 -230 OFFCURVE",
"354 -215 OFFCURVE",
"371 -207 CURVE",
"364 -203 OFFCURVE",
"353 -199 OFFCURVE",
"338 -193 CURVE SMOOTH",
"308 -181 OFFCURVE",
"287 -170 OFFCURVE",
"268 -144 CURVE SMOOTH",
"244 -112 OFFCURVE",
"225 -93 OFFCURVE",
"206 -93 CURVE SMOOTH",
"190 -93 OFFCURVE",
"173 -106 OFFCURVE",
"152 -133 CURVE",
"152 -115 LINE SMOOTH",
"152 -7 OFFCURVE",
"188 87 OFFCURVE",
"225 122 CURVE SMOOTH",
"235 133 OFFCURVE",
"247 139 OFFCURVE",
"259 139 CURVE SMOOTH",
"288 139 OFFCURVE",
"309 119 OFFCURVE",
"337 92 CURVE SMOOTH",
"350 80 OFFCURVE",
"363 67 OFFCURVE",
"374 55 CURVE SMOOTH",
"397 28 OFFCURVE",
"427 9 OFFCURVE",
"448 9 CURVE SMOOTH",
"508 9 OFFCURVE",
"578 37 OFFCURVE",
"624 106 CURVE",
"596 86 OFFCURVE",
"570 75 OFFCURVE",
"547 75 CURVE SMOOTH",
"536 75 OFFCURVE",
"526 78 OFFCURVE",
"516 82 CURVE SMOOTH",
"491 92 OFFCURVE",
"471 124 OFFCURVE",
"461 155 CURVE SMOOTH",
"451 185 OFFCURVE",
"433 235 OFFCURVE",
"420 263 CURVE SMOOTH",
"414 276 LINE",
"430 289 OFFCURVE",
"439 298 OFFCURVE",
"450 315 CURVE SMOOTH",
"465 338 OFFCURVE",
"475 362 OFFCURVE",
"491 395 CURVE SMOOTH",
"496 405 OFFCURVE",
"503 409 OFFCURVE",
"511 409 CURVE SMOOTH",
"526 409 OFFCURVE",
"544 395 OFFCURVE",
"561 379 CURVE SMOOTH",
"572 369 OFFCURVE",
"582 359 OFFCURVE",
"591 349 CURVE SMOOTH",
"611 326 OFFCURVE",
"637 297 OFFCURVE",
"654 283 CURVE SMOOTH",
"666 273 OFFCURVE",
"677 268 OFFCURVE",
"688 265 CURVE SMOOTH",
"694 264 OFFCURVE",
"699 263 OFFCURVE",
"704 263 CURVE SMOOTH",
"722 263 OFFCURVE",
"739 269 OFFCURVE",
"746 269 CURVE SMOOTH",
"769 269 OFFCURVE",
"812 309 OFFCURVE",
"842 340 CURVE SMOOTH",
"858 356 OFFCURVE",
"890 391 OFFCURVE",
"905 408 CURVE SMOOTH",
"968 478 LINE",
"895 435 OFFCURVE",
"824 405 OFFCURVE",
"784 405 CURVE SMOOTH",
"774 405 OFFCURVE",
"766 407 OFFCURVE",
"760 411 CURVE",
"758 415 OFFCURVE",
"690 466 OFFCURVE",
"682 477 CURVE SMOOTH",
"674 489 OFFCURVE",
"659 513 OFFCURVE",
"638 547 CURVE SMOOTH",
"605 601 OFFCURVE",
"576 641 OFFCURVE",
"560 635 CURVE SMOOTH",
"546 630 LINE",
"556 655 LINE SMOOTH",
"564 675 OFFCURVE",
"570 692 OFFCURVE",
"578 707 CURVE SMOOTH",
"593 736 OFFCURVE",
"610 752 OFFCURVE",
"623 764 CURVE SMOOTH",
"636 774 OFFCURVE",
"659 779 OFFCURVE",
"671 781 CURVE SMOOTH",
"686 783 OFFCURVE",
"709 784 OFFCURVE",
"725 786 CURVE SMOOTH",
"769 793 OFFCURVE",
"801 819 OFFCURVE",
"847 872 CURVE",
"835 866 OFFCURVE",
"823 864 OFFCURVE",
"812 864 CURVE SMOOTH",
"801 864 OFFCURVE",
"792 866 OFFCURVE",
"782 871 CURVE",
"778 874 OFFCURVE",
"771 876 OFFCURVE",
"761 879 CURVE SMOOTH",
"752 882 OFFCURVE",
"744 886 OFFCURVE",
"736 889 CURVE SMOOTH",
"712 900 OFFCURVE",
"682 917 OFFCURVE",
"667 955 CURVE SMOOTH",
"661 970 LINE",
"685 985 OFFCURVE",
"701 1005 OFFCURVE",
"721 1030 CURVE SMOOTH",
"732 1044 OFFCURVE",
"766 1103 OFFCURVE",
"777 1119 CURVE SMOOTH",
"795 1150 OFFCURVE",
"815 1172 OFFCURVE",
"836 1187 CURVE SMOOTH",
"860 1201 OFFCURVE",
"881 1206 OFFCURVE",
"903 1206 CURVE SMOOTH",
"922 1206 OFFCURVE",
"941 1202 OFFCURVE",
"962 1197 CURVE SMOOTH",
"999 1188 OFFCURVE",
"1035 1177 OFFCURVE",
"1070 1177 CURVE SMOOTH",
"1075 1177 OFFCURVE",
"1081 1177 OFFCURVE",
"1085 1178 CURVE",
"1125 1182 OFFCURVE",
"1166 1217 OFFCURVE",
"1200 1291 CURVE",
"1174 1256 OFFCURVE",
"1146 1242 OFFCURVE",
"1121 1242 CURVE SMOOTH",
"1105 1242 OFFCURVE",
"1085 1248 OFFCURVE",
"1064 1267 CURVE SMOOTH",
"1031 1293 OFFCURVE",
"1009 1319 OFFCURVE",
"972 1366 CURVE SMOOTH",
"914 1440 OFFCURVE",
"858 1477 OFFCURVE",
"802 1477 CURVE SMOOTH",
"771 1477 OFFCURVE",
"741 1466 OFFCURVE",
"711 1443 CURVE SMOOTH",
"678 1418 OFFCURVE",
"636 1357 OFFCURVE",
"604 1317 CURVE SMOOTH",
"578 1282 OFFCURVE",
"544 1253 OFFCURVE",
"513 1253 CURVE SMOOTH",
"505 1253 OFFCURVE",
"497 1255 OFFCURVE",
"489 1259 CURVE SMOOTH",
"445 1279 OFFCURVE",
"417 1342 OFFCURVE",
"417 1414 CURVE SMOOTH",
"417 1474 OFFCURVE",
"437 1529 OFFCURVE",
"474 1561 CURVE",
"481 1569 OFFCURVE",
"493 1579 OFFCURVE",
"507 1591 CURVE SMOOTH",
"521 1603 OFFCURVE",
"532 1613 OFFCURVE",
"540 1618 CURVE SMOOTH",
"548 1625 OFFCURVE",
"557 1635 OFFCURVE",
"567 1646 CURVE SMOOTH",
"588 1669 OFFCURVE",
"605 1698 OFFCURVE",
"622 1738 CURVE",
"590 1692 OFFCURVE",
"562 1663 OFFCURVE",
"531 1663 CURVE SMOOTH",
"512 1663 OFFCURVE",
"492 1673 OFFCURVE",
"470 1697 CURVE SMOOTH",
"448 1723 OFFCURVE",
"427 1735 OFFCURVE",
"407 1735 CURVE SMOOTH",
"374 1735 OFFCURVE",
"346 1705 OFFCURVE",
"308 1638 CURVE SMOOTH",
"297 1619 OFFCURVE",
"254 1543 OFFCURVE",
"236 1523 CURVE SMOOTH",
"214 1498 LINE SMOOTH",
"205 1488 OFFCURVE",
"197 1482 OFFCURVE",
"190 1481 CURVE SMOOTH",
"184 1479 OFFCURVE",
"179 1477 OFFCURVE",
"174 1477 CURVE SMOOTH",
"158 1477 OFFCURVE",
"145 1488 OFFCURVE",
"133 1525 CURVE SMOOTH",
"130 1535 OFFCURVE",
"129 1545 OFFCURVE",
"129 1556 CURVE SMOOTH",
"129 1574 OFFCURVE",
"134 1591 OFFCURVE",
"143 1608 CURVE SMOOTH",
"149 1619 OFFCURVE",
"162 1637 OFFCURVE",
"182 1659 CURVE SMOOTH",
"201 1681 OFFCURVE",
"212 1698 OFFCURVE",
"216 1710 CURVE SMOOTH",
"226 1740 OFFCURVE",
"230 1754 OFFCURVE",
"230 1752 CURVE",
"241 1784 OFFCURVE",
"258 1835 OFFCURVE",
"271 1853 CURVE SMOOTH",
"285 1873 OFFCURVE",
"301 1885 OFFCURVE",
"321 1882 CURVE",
"303 1904 OFFCURVE",
"285 1916 OFFCURVE",
"266 1916 CURVE SMOOTH",
"241 1916 OFFCURVE",
"216 1896 OFFCURVE",
"190 1855 CURVE SMOOTH",
"181 1840 OFFCURVE",
"173 1828 OFFCURVE",
"166 1820 CURVE SMOOTH",
"152 1801 OFFCURVE",
"132 1778 OFFCURVE",
"115 1771 CURVE SMOOTH",
"109 1769 OFFCURVE",
"104 1768 OFFCURVE",
"98 1768 CURVE SMOOTH",
"78 1768 OFFCURVE",
"60 1784 OFFCURVE",
"42 1827 CURVE",
"36 1847 OFFCURVE",
"26 1876 OFFCURVE",
"22 1885 CURVE SMOOTH",
"18 1896 OFFCURVE",
"11 1898 OFFCURVE",
"0 1900 CURVE",
"0 -480 LINE",
"10 -480 LINE"
);
},
{
closed = 1;
nodes = (
"0 1900 LINE",
"-100 1900 LINE",
"-100 -480 LINE",
"0 -480 LINE"
);
}
);
width = 1200;
}
);
note = uniE0C0;
},
{
color = 2;
glyphname = uniE0C1.stypo;
lastChange = "2020-07-23 18:20:43 +0000";
layers = (
{
layerId = "F8C3375C-B372-4BAE-A3FB-5A8DC7FA7AB9";
paths = (
{
closed = 1;
nodes = (
"84 -481 OFFCURVE",
"135 -280 OFFCURVE",
"187 -280 CURVE SMOOTH",
"196 -280 OFFCURVE",
"207 -291 OFFCURVE",
"227 -291 CURVE SMOOTH",
"276 -291 OFFCURVE",
"339 -223 OFFCURVE",
"364 -220 CURVE",
"399 -113 LINE",
"360 -94 OFFCURVE",
"328 -89 OFFCURVE",
"301 -51 CURVE SMOOTH",
"288 -34 OFFCURVE",
"265 -2 OFFCURVE",
"240 -2 CURVE SMOOTH",
"220 -2 OFFCURVE",
"203 -17 OFFCURVE",
"191 -31 CURVE",
"191 -20 LINE SMOOTH",
"191 17 OFFCURVE",
"200 109 OFFCURVE",
"255 109 CURVE SMOOTH",
"310 109 OFFCURVE",
"372 -13 OFFCURVE",
"438 -13 CURVE SMOOTH",
"516 -13 OFFCURVE",
"573 27 OFFCURVE",
"617 88 CURVE SMOOTH",
"636 114 OFFCURVE",
"637 156 OFFCURVE",
"639 186 CURVE",
"618 171 OFFCURVE",
"593 159 OFFCURVE",
"566 159 CURVE SMOOTH",
"495 159 OFFCURVE",
"479 257 OFFCURVE",
"461 307 CURVE",
"471 328 OFFCURVE",
"481 347 OFFCURVE",
"491 367 CURVE",
"493 367 OFFCURVE",
"494 368 OFFCURVE",
"496 368 CURVE SMOOTH",
"544 368 OFFCURVE",
"613 229 OFFCURVE",
"685 229 CURVE SMOOTH",
"796 229 OFFCURVE",
"871 374 OFFCURVE",
"944 438 CURVE",
"953 473 OFFCURVE",
"961 508 OFFCURVE",
"971 543 CURVE",
"930 518 OFFCURVE",
"843 473 OFFCURVE",
"795 473 CURVE SMOOTH",
"788 473 OFFCURVE",
"780 473 OFFCURVE",
"774 478 CURVE SMOOTH",
"750 496 OFFCURVE",
"717 516 OFFCURVE",
"700 540 CURVE SMOOTH",
"675 574 OFFCURVE",
"623 673 OFFCURVE",
"592 691 CURVE",
"619 728 OFFCURVE",
"665 722 OFFCURVE",
"704 729 CURVE SMOOTH",
"755 737 OFFCURVE",
"796 778 OFFCURVE",
"828 815 CURVE SMOOTH",
"839 828 OFFCURVE",
"855 900 OFFCURVE",
"854 918 CURVE",
"843 916 OFFCURVE",
"834 912 OFFCURVE",
"822 912 CURVE SMOOTH",
"795 912 OFFCURVE",
"724 945 OFFCURVE",
"706 965 CURVE",
"741 1013 OFFCURVE",
"779 1114 OFFCURVE",
"849 1114 CURVE SMOOTH",
"902 1114 OFFCURVE",
"950 1090 OFFCURVE",
"1001 1090 CURVE SMOOTH",
"1097 1090 OFFCURVE",
"1146 1159 OFFCURVE",
"1182 1236 CURVE SMOOTH",
"1190 1253 OFFCURVE",
"1200 1277 OFFCURVE",
"1200 1295 CURVE SMOOTH",
"1200 1300 OFFCURVE",
"1200 1306 OFFCURVE",
"1196 1309 CURVE",
"1188 1311 LINE",
"1173 1291 OFFCURVE",
"1152 1273 OFFCURVE",
"1125 1273 CURVE SMOOTH",
"1019 1273 OFFCURVE",
"955 1497 OFFCURVE",
"813 1497 CURVE SMOOTH",
"673 1497 OFFCURVE",
"620 1283 OFFCURVE",
"538 1283 CURVE SMOOTH",
"473 1283 OFFCURVE",
"446 1374 OFFCURVE",
"446 1423 CURVE SMOOTH",
"446 1428 OFFCURVE",
"447 1447 OFFCURVE",
"449 1450 CURVE SMOOTH",
"455 1464 OFFCURVE",
"540 1533 OFFCURVE",
"559 1554 CURVE SMOOTH",
"588 1584 OFFCURVE",
"609 1630 OFFCURVE",
"626 1668 CURVE SMOOTH",
"633 1685 OFFCURVE",
"643 1707 OFFCURVE",
"643 1725 CURVE SMOOTH",
"643 1729 OFFCURVE",
"643 1735 OFFCURVE",
"638 1737 CURVE",
"629 1736 LINE",
"616 1713 OFFCURVE",
"582 1673 OFFCURVE",
"551 1673 CURVE SMOOTH",
"504 1673 OFFCURVE",
"486 1741 OFFCURVE",
"433 1741 CURVE SMOOTH",
"341 1741 OFFCURVE",
"279 1495 OFFCURVE",
"208 1495 CURVE SMOOTH",
"186 1495 OFFCURVE",
"173 1530 OFFCURVE",
"170 1547 CURVE",
"208 1585 OFFCURVE",
"224 1608 OFFCURVE",
"242 1660 CURVE SMOOTH",
"253 1690 OFFCURVE",
"260 1727 OFFCURVE",
"274 1756 CURVE SMOOTH",
"283 1774 OFFCURVE",
"295 1774 OFFCURVE",
"314 1774 CURVE",
"352 1881 LINE",
"338 1899 OFFCURVE",
"320 1914 OFFCURVE",
"296 1914 CURVE SMOOTH",
"224 1914 OFFCURVE",
"192 1772 OFFCURVE",
"134 1772 CURVE SMOOTH",
"77 1772 OFFCURVE",
"83 1900 OFFCURVE",
"41 1900 CURVE SMOOTH",
"23 1900 OFFCURVE",
"0 1817 OFFCURVE",
"0 1800 CURVE SMOOTH",
"0 1796 OFFCURVE",
"2 1793 OFFCURVE",
"5 1791 CURVE",
"40 1792 OFFCURVE",
"39 1664 OFFCURVE",
"99 1664 CURVE SMOOTH",
"162 1664 OFFCURVE",
"200 1807 OFFCURVE",
"262 1807 CURVE SMOOTH",
"264 1807 OFFCURVE",
"267 1806 OFFCURVE",
"269 1806 CURVE",
"251 1768 OFFCURVE",
"243 1720 OFFCURVE",
"224 1686 CURVE SMOOTH",
"208 1657 OFFCURVE",
"180 1633 OFFCURVE",
"163 1604 CURVE SMOOTH",
"142 1566 OFFCURVE",
"125 1518 OFFCURVE",
"125 1474 CURVE SMOOTH",
"125 1448 OFFCURVE",
"136 1390 OFFCURVE",
"171 1390 CURVE SMOOTH",
"256 1390 OFFCURVE",
"322 1634 OFFCURVE",
"397 1634 CURVE SMOOTH",
"437 1634 OFFCURVE",
"457 1588 OFFCURVE",
"489 1572 CURVE",
"433 1518 OFFCURVE",
"402 1410 OFFCURVE",
"402 1336 CURVE SMOOTH",
"402 1283 OFFCURVE",
"426 1175 OFFCURVE",
"498 1175 CURVE SMOOTH",
"603 1175 OFFCURVE",
"643 1389 OFFCURVE",
"778 1389 CURVE SMOOTH",
"876 1389 OFFCURVE",
"931 1283 OFFCURVE",
"989 1223 CURVE",
"973 1231 OFFCURVE",
"923 1238 OFFCURVE",
"904 1238 CURVE SMOOTH",
"791 1238 OFFCURVE",
"759 1063 OFFCURVE",
"673 1011 CURVE",
"661 987 OFFCURVE",
"636 942 OFFCURVE",
"636 916 CURVE SMOOTH",
"636 888 OFFCURVE",
"675 845 OFFCURVE",
"700 833 CURVE",
"608 825 OFFCURVE",
"578 744 OFFCURVE",
"549 669 CURVE SMOOTH",
"541 648 OFFCURVE",
"524 611 OFFCURVE",
"524 589 CURVE SMOOTH",
"524 586 OFFCURVE",
"524 580 OFFCURVE",
"529 580 CURVE SMOOTH",
"535 580 OFFCURVE",
"541 586 OFFCURVE",
"547 586 CURVE SMOOTH",
"566 586 OFFCURVE",
"643 458 OFFCURVE",
"660 435 CURVE SMOOTH",
"679 410 OFFCURVE",
"698 395 OFFCURVE",
"725 378 CURVE SMOOTH",
"737 370 OFFCURVE",
"744 364 OFFCURVE",
"760 364 CURVE SMOOTH",
"778 364 OFFCURVE",
"795 369 OFFCURVE",
"812 375 CURVE",
"781 347 OFFCURVE",
"758 338 OFFCURVE",
"715 338 CURVE SMOOTH",
"650 338 OFFCURVE",
"595 479 OFFCURVE",
"538 479 CURVE SMOOTH",
"499 479 OFFCURVE",
"482 400 OFFCURVE",
"462 374 CURVE SMOOTH",
"455 364 OFFCURVE",
"441 357 OFFCURVE",
"435 349 CURVE SMOOTH",
"421 329 OFFCURVE",
"398 279 OFFCURVE",
"398 255 CURVE SMOOTH",
"398 251 OFFCURVE",
"455 107 OFFCURVE",
"460 96 CURVE",
"404 112 OFFCURVE",
"360 219 OFFCURVE",
"295 219 CURVE SMOOTH",
"252 219 OFFCURVE",
"222 165 OFFCURVE",
"206 133 CURVE SMOOTH",
"169 58 OFFCURVE",
"147 -27 OFFCURVE",
"147 -111 CURVE SMOOTH",
"147 -120 OFFCURVE",
"145 -145 OFFCURVE",
"152 -149 CURVE",
"162 -145 OFFCURVE",
"176 -112 OFFCURVE",
"202 -112 CURVE SMOOTH",
"236 -112 OFFCURVE",
"257 -162 OFFCURVE",
"281 -179 CURVE",
"275 -181 OFFCURVE",
"268 -181 OFFCURVE",
"262 -181 CURVE SMOOTH",
"243 -181 OFFCURVE",
"232 -171 OFFCURVE",
"218 -171 CURVE SMOOTH",
"143 -171 OFFCURVE",
"107 -370 OFFCURVE",
"41 -370 CURVE SMOOTH",
"24 -370 OFFCURVE",
"0 -452 OFFCURVE",
"0 -468 CURVE SMOOTH",
"0 -471 OFFCURVE",
"2 -475 OFFCURVE",
"4 -478 CURVE",
"8 -480 OFFCURVE",
"12 -481 OFFCURVE",
"16 -481 CURVE",
"16 -481 LINE"
);
}
);
width = 1200;
}
);
note = uniE0C1;
},
{
color = 4;
glyphname = uniE0C2.stypo;
lastChange = "2021-10-18 18:04:16 +0000";
layers = (
{
layerId = "F8C3375C-B372-4BAE-A3FB-5A8DC7FA7AB9";
paths = (
{
closed = 1;
nodes = (
"1200 -480 LINE",
"1200 1900 LINE",
"1189 1898 OFFCURVE",
"1182 1896 OFFCURVE",
"1178 1885 CURVE SMOOTH",
"1174 1876 OFFCURVE",
"1164 1847 OFFCURVE",
"1158 1827 CURVE",
"1140 1784 OFFCURVE",
"1122 1768 OFFCURVE",
"1102 1768 CURVE SMOOTH",
"1096 1768 OFFCURVE",
"1091 1769 OFFCURVE",
"1085 1771 CURVE SMOOTH",
"1068 1778 OFFCURVE",
"1048 1801 OFFCURVE",
"1034 1820 CURVE SMOOTH",
"1027 1828 OFFCURVE",
"1019 1840 OFFCURVE",
"1010 1855 CURVE SMOOTH",
"984 1896 OFFCURVE",
"959 1916 OFFCURVE",
"934 1916 CURVE SMOOTH",
"915 1916 OFFCURVE",
"897 1904 OFFCURVE",
"879 1882 CURVE",
"899 1885 OFFCURVE",
"915 1873 OFFCURVE",
"929 1853 CURVE SMOOTH",
"942 1835 OFFCURVE",
"959 1784 OFFCURVE",
"970 1752 CURVE",
"970 1754 OFFCURVE",
"974 1740 OFFCURVE",
"984 1710 CURVE SMOOTH",
"988 1698 OFFCURVE",
"999 1681 OFFCURVE",
"1018 1659 CURVE SMOOTH",
"1038 1637 OFFCURVE",
"1051 1619 OFFCURVE",
"1057 1608 CURVE SMOOTH",
"1066 1591 OFFCURVE",
"1071 1574 OFFCURVE",
"1071 1556 CURVE SMOOTH",
"1071 1545 OFFCURVE",
"1070 1535 OFFCURVE",
"1067 1525 CURVE SMOOTH",
"1055 1488 OFFCURVE",
"1042 1477 OFFCURVE",
"1026 1477 CURVE SMOOTH",
"1021 1477 OFFCURVE",
"1016 1479 OFFCURVE",
"1010 1481 CURVE SMOOTH",
"1003 1482 OFFCURVE",
"995 1488 OFFCURVE",
"986 1498 CURVE SMOOTH",
"964 1523 LINE SMOOTH",
"946 1543 OFFCURVE",
"903 1619 OFFCURVE",
"892 1638 CURVE SMOOTH",
"854 1705 OFFCURVE",
"826 1735 OFFCURVE",
"793 1735 CURVE SMOOTH",
"773 1735 OFFCURVE",
"752 1723 OFFCURVE",
"730 1697 CURVE SMOOTH",
"708 1673 OFFCURVE",
"688 1663 OFFCURVE",
"669 1663 CURVE SMOOTH",
"638 1663 OFFCURVE",
"610 1692 OFFCURVE",
"578 1738 CURVE",
"595 1698 OFFCURVE",
"612 1669 OFFCURVE",
"633 1646 CURVE SMOOTH",
"643 1635 OFFCURVE",
"652 1625 OFFCURVE",
"660 1618 CURVE SMOOTH",
"668 1613 OFFCURVE",
"679 1603 OFFCURVE",
"693 1591 CURVE SMOOTH",
"707 1579 OFFCURVE",
"719 1569 OFFCURVE",
"726 1561 CURVE",
"763 1529 OFFCURVE",
"783 1474 OFFCURVE",
"783 1414 CURVE SMOOTH",
"783 1342 OFFCURVE",
"755 1279 OFFCURVE",
"711 1259 CURVE SMOOTH",
"703 1255 OFFCURVE",
"695 1253 OFFCURVE",
"687 1253 CURVE SMOOTH",
"656 1253 OFFCURVE",
"622 1282 OFFCURVE",
"596 1317 CURVE SMOOTH",
"564 1357 OFFCURVE",
"522 1418 OFFCURVE",
"489 1443 CURVE SMOOTH",
"459 1466 OFFCURVE",
"429 1477 OFFCURVE",
"398 1477 CURVE SMOOTH",
"342 1477 OFFCURVE",
"286 1440 OFFCURVE",
"228 1366 CURVE SMOOTH",
"191 1319 OFFCURVE",
"169 1293 OFFCURVE",
"136 1267 CURVE SMOOTH",
"115 1248 OFFCURVE",
"95 1242 OFFCURVE",
"79 1242 CURVE SMOOTH",
"54 1242 OFFCURVE",
"26 1256 OFFCURVE",
"0 1291 CURVE",
"34 1217 OFFCURVE",
"75 1182 OFFCURVE",
"115 1178 CURVE",
"119 1177 OFFCURVE",
"125 1177 OFFCURVE",
"130 1177 CURVE SMOOTH",
"165 1177 OFFCURVE",
"201 1188 OFFCURVE",
"238 1197 CURVE SMOOTH",
"259 1202 OFFCURVE",
"278 1206 OFFCURVE",
"297 1206 CURVE SMOOTH",
"319 1206 OFFCURVE",
"340 1201 OFFCURVE",
"364 1187 CURVE SMOOTH",
"385 1172 OFFCURVE",
"405 1150 OFFCURVE",
"423 1119 CURVE SMOOTH",
"434 1103 OFFCURVE",
"468 1044 OFFCURVE",
"479 1030 CURVE SMOOTH",
"499 1005 OFFCURVE",
"515 985 OFFCURVE",
"539 970 CURVE",
"533 955 LINE SMOOTH",
"518 917 OFFCURVE",
"488 900 OFFCURVE",
"464 889 CURVE SMOOTH",
"456 886 OFFCURVE",
"448 882 OFFCURVE",
"439 879 CURVE SMOOTH",
"429 876 OFFCURVE",
"422 874 OFFCURVE",
"418 871 CURVE",
"408 866 OFFCURVE",
"399 864 OFFCURVE",
"388 864 CURVE SMOOTH",
"377 864 OFFCURVE",
"365 866 OFFCURVE",
"353 872 CURVE",
"399 819 OFFCURVE",
"431 793 OFFCURVE",
"475 786 CURVE SMOOTH",
"491 784 OFFCURVE",
"514 783 OFFCURVE",
"529 781 CURVE SMOOTH",
"541 779 OFFCURVE",
"564 774 OFFCURVE",
"577 764 CURVE SMOOTH",
"590 752 OFFCURVE",
"607 736 OFFCURVE",
"622 707 CURVE SMOOTH",
"630 692 OFFCURVE",
"636 675 OFFCURVE",
"644 655 CURVE SMOOTH",
"654 630 LINE",
"640 635 LINE SMOOTH",
"624 641 OFFCURVE",
"595 601 OFFCURVE",
"562 547 CURVE SMOOTH",
"541 513 OFFCURVE",
"526 489 OFFCURVE",
"518 477 CURVE SMOOTH",
"510 466 OFFCURVE",
"442 415 OFFCURVE",
"440 411 CURVE",
"434 407 OFFCURVE",
"426 405 OFFCURVE",
"416 405 CURVE SMOOTH",
"376 405 OFFCURVE",
"305 435 OFFCURVE",
"232 478 CURVE",
"295 408 LINE SMOOTH",
"310 391 OFFCURVE",
"342 356 OFFCURVE",
"358 340 CURVE SMOOTH",
"388 309 OFFCURVE",
"431 269 OFFCURVE",
"454 269 CURVE SMOOTH",
"461 269 OFFCURVE",
"478 263 OFFCURVE",
"496 263 CURVE SMOOTH",
"501 263 OFFCURVE",
"506 264 OFFCURVE",
"512 265 CURVE SMOOTH",
"523 268 OFFCURVE",
"534 273 OFFCURVE",
"546 283 CURVE SMOOTH",
"563 297 OFFCURVE",
"589 326 OFFCURVE",
"609 349 CURVE SMOOTH",
"618 359 OFFCURVE",
"628 369 OFFCURVE",
"639 379 CURVE SMOOTH",
"656 395 OFFCURVE",
"674 409 OFFCURVE",
"689 409 CURVE SMOOTH",
"697 409 OFFCURVE",
"704 405 OFFCURVE",
"709 395 CURVE SMOOTH",
"725 362 OFFCURVE",
"735 338 OFFCURVE",
"750 315 CURVE SMOOTH",
"761 298 OFFCURVE",
"770 289 OFFCURVE",
"786 276 CURVE",
"780 263 LINE SMOOTH",
"767 235 OFFCURVE",
"749 185 OFFCURVE",
"739 155 CURVE SMOOTH",
"729 124 OFFCURVE",
"709 92 OFFCURVE",
"684 82 CURVE SMOOTH",
"674 78 OFFCURVE",
"664 75 OFFCURVE",
"653 75 CURVE SMOOTH",
"630 75 OFFCURVE",
"604 86 OFFCURVE",
"576 106 CURVE",
"622 37 OFFCURVE",
"692 9 OFFCURVE",
"752 9 CURVE SMOOTH",
"773 9 OFFCURVE",
"803 28 OFFCURVE",
"826 55 CURVE SMOOTH",
"837 67 OFFCURVE",
"850 80 OFFCURVE",
"863 92 CURVE SMOOTH",
"891 119 OFFCURVE",
"912 139 OFFCURVE",
"941 139 CURVE SMOOTH",
"953 139 OFFCURVE",
"965 133 OFFCURVE",
"975 122 CURVE SMOOTH",
"1012 87 OFFCURVE",
"1048 -7 OFFCURVE",
"1048 -115 CURVE SMOOTH",
"1048 -133 LINE",
"1027 -106 OFFCURVE",
"1010 -93 OFFCURVE",
"994 -93 CURVE SMOOTH",
"975 -93 OFFCURVE",
"956 -112 OFFCURVE",
"932 -144 CURVE SMOOTH",
"913 -170 OFFCURVE",
"892 -181 OFFCURVE",
"862 -193 CURVE SMOOTH",
"847 -199 OFFCURVE",
"836 -203 OFFCURVE",
"829 -207 CURVE",
"846 -215 OFFCURVE",
"870 -230 OFFCURVE",
"887 -243 CURVE SMOOTH",
"896 -250 OFFCURVE",
"905 -257 OFFCURVE",
"916 -263 CURVE SMOOTH",
"936 -275 OFFCURVE",
"951 -283 OFFCURVE",
"970 -283 CURVE SMOOTH",
"981 -283 OFFCURVE",
"992 -279 OFFCURVE",
"1001 -273 CURVE SMOOTH",
"1005 -271 OFFCURVE",
"1009 -270 OFFCURVE",
"1013 -270 CURVE SMOOTH",
"1034 -270 OFFCURVE",
"1059 -299 OFFCURVE",
"1081 -337 CURVE SMOOTH",
"1095 -361 OFFCURVE",
"1108 -383 OFFCURVE",
"1121 -408 CURVE SMOOTH",
"1144 -448 OFFCURVE",
"1169 -480 OFFCURVE",
"1190 -480 CURVE"
);
},
{
closed = 1;
nodes = (
"1300 -480 LINE",
"1300 1900 LINE",
"1200 1900 LINE",
"1200 -480 LINE"
);
}
);
width = 1200;
}
);
note = uniE0C2;
},
{
color = 2;
glyphname = uniE0C3.stypo;
lastChange = "2020-07-23 18:20:43 +0000";
layers = (
{
layerId = "F8C3375C-B372-4BAE-A3FB-5A8DC7FA7AB9";
paths = (
{
closed = 1;
nodes = (
"1189 -480 OFFCURVE",
"1193 -479 OFFCURVE",
"1197 -477 CURVE",
"1199 -474 OFFCURVE",
"1200 -469 OFFCURVE",
"1200 -467 CURVE SMOOTH",
"1200 -443 OFFCURVE",
"1181 -370 OFFCURVE",
"1154 -370 CURVE SMOOTH",
"1106 -370 OFFCURVE",
"1052 -171 OFFCURVE",
"983 -171 CURVE SMOOTH",
"969 -171 OFFCURVE",
"957 -179 OFFCURVE",
"939 -179 CURVE SMOOTH",
"933 -179 OFFCURVE",
"926 -179 OFFCURVE",
"920 -178 CURVE",
"943 -162 OFFCURVE",
"966 -110 OFFCURVE",
"998 -110 CURVE SMOOTH",
"1024 -110 OFFCURVE",
"1039 -144 OFFCURVE",
"1049 -148 CURVE",
"1050 -148 LINE",
"1056 -143 OFFCURVE",
"1054 -127 OFFCURVE",
"1054 -121 CURVE SMOOTH",
"1054 -110 LINE SMOOTH",
"1054 -28 OFFCURVE",
"1031 59 OFFCURVE",
"995 135 CURVE SMOOTH",
"979 166 OFFCURVE",
"948 220 OFFCURVE",
"905 220 CURVE SMOOTH",
"845 220 OFFCURVE",
"796 115 OFFCURVE",
"741 97 CURVE",
"746 107 OFFCURVE",
"803 254 OFFCURVE",
"803 256 CURVE SMOOTH",
"803 283 OFFCURVE",
"780 327 OFFCURVE",
"766 350 CURVE",
"752 361 OFFCURVE",
"738 371 OFFCURVE",
"731 388 CURVE SMOOTH",
"719 414 OFFCURVE",
"696 480 OFFCURVE",
"662 480 CURVE SMOOTH",
"607 480 OFFCURVE",
"552 339 OFFCURVE",
"485 339 CURVE SMOOTH",
"443 339 OFFCURVE",
"420 349 OFFCURVE",
"389 375 CURVE",
"405 370 OFFCURVE",
"423 366 OFFCURVE",
"440 366 CURVE SMOOTH",
"531 366 OFFCURVE",
"620 587 OFFCURVE",
"653 587 CURVE SMOOTH",
"657 587 OFFCURVE",
"666 581 OFFCURVE",
"672 580 CURVE",
"675 582 OFFCURVE",
"677 587 OFFCURVE",
"677 590 CURVE SMOOTH",
"677 636 OFFCURVE",
"614 766 OFFCURVE",
"578 804 CURVE SMOOTH",
"558 824 OFFCURVE",
"530 832 OFFCURVE",
"501 835 CURVE",
"526 845 OFFCURVE",
"565 891 OFFCURVE",
"565 917 CURVE SMOOTH",
"565 943 OFFCURVE",
"540 990 OFFCURVE",
"527 1013 CURVE",
"442 1067 OFFCURVE",
"411 1239 OFFCURVE",
"298 1239 CURVE SMOOTH",
"268 1239 OFFCURVE",
"240 1234 OFFCURVE",
"212 1224 CURVE",
"270 1285 OFFCURVE",
"325 1390 OFFCURVE",
"423 1390 CURVE SMOOTH",
"559 1390 OFFCURVE",
"598 1177 OFFCURVE",
"703 1177 CURVE SMOOTH",
"775 1177 OFFCURVE",
"799 1285 OFFCURVE",
"799 1337 CURVE SMOOTH",
"799 1408 OFFCURVE",
"767 1522 OFFCURVE",
"711 1574 CURVE",
"742 1589 OFFCURVE",
"765 1636 OFFCURVE",
"803 1636 CURVE SMOOTH",
"878 1636 OFFCURVE",
"947 1392 OFFCURVE",
"1023 1392 CURVE SMOOTH",
"1032 1392 OFFCURVE",
"1040 1396 OFFCURVE",
"1047 1403 CURVE",
"1047 1403 OFFCURVE",
"1047 1402 OFFCURVE",
"1048 1402 CURVE SMOOTH",
"1062 1402 OFFCURVE",
"1076 1461 OFFCURVE",
"1076 1476 CURVE SMOOTH",
"1076 1519 OFFCURVE",
"1059 1568 OFFCURVE",
"1038 1605 CURVE SMOOTH",
"1021 1636 OFFCURVE",
"993 1657 OFFCURVE",
"976 1687 CURVE SMOOTH",
"960 1715 OFFCURVE",
"948 1771 OFFCURVE",
"932 1807 CURVE",
"939 1808 LINE",
"1002 1808 OFFCURVE",
"1038 1665 OFFCURVE",
"1101 1665 CURVE SMOOTH",
"1153 1665 OFFCURVE",
"1160 1756 OFFCURVE",
"1180 1785 CURVE SMOOTH",
"1185 1792 OFFCURVE",
"1188 1792 OFFCURVE",
"1196 1792 CURVE",
"1199 1795 OFFCURVE",
"1200 1799 OFFCURVE",
"1200 1802 CURVE SMOOTH",
"1200 1819 OFFCURVE",
"1179 1901 OFFCURVE",
"1160 1901 CURVE SMOOTH",
"1117 1901 OFFCURVE",
"1124 1774 OFFCURVE",
"1067 1774 CURVE SMOOTH",
"1009 1774 OFFCURVE",
"976 1915 OFFCURVE",
"904 1915 CURVE SMOOTH",
"881 1915 OFFCURVE",
"862 1899 OFFCURVE",
"849 1882 CURVE",
"887 1776 LINE",
"906 1776 OFFCURVE",
"917 1777 OFFCURVE",
"926 1757 CURVE SMOOTH",
"965 1670 OFFCURVE",
"954 1625 OFFCURVE",
"1031 1547 CURVE",
"1026 1530 OFFCURVE",
"1018 1497 OFFCURVE",
"993 1497 CURVE SMOOTH",
"922 1497 OFFCURVE",
"859 1742 OFFCURVE",
"768 1742 CURVE SMOOTH",
"715 1742 OFFCURVE",
"696 1674 OFFCURVE",
"650 1674 CURVE SMOOTH",
"619 1674 OFFCURVE",
"586 1713 OFFCURVE",
"572 1737 CURVE",
"563 1738 LINE",
"558 1735 OFFCURVE",
"558 1730 OFFCURVE",
"558 1726 CURVE SMOOTH",
"558 1708 OFFCURVE",
"568 1686 OFFCURVE",
"575 1669 CURVE SMOOTH",
"593 1628 OFFCURVE",
"612 1588 OFFCURVE",
"642 1555 CURVE SMOOTH",
"662 1531 OFFCURVE",
"746 1467 OFFCURVE",
"752 1450 CURVE SMOOTH",
"754 1446 OFFCURVE",
"754 1431 OFFCURVE",
"754 1424 CURVE SMOOTH",
"754 1376 OFFCURVE",
"728 1285 OFFCURVE",
"664 1285 CURVE SMOOTH",
"580 1285 OFFCURVE",
"528 1498 OFFCURVE",
"388 1498 CURVE SMOOTH",
"246 1498 OFFCURVE",
"181 1275 OFFCURVE",
"78 1275 CURVE SMOOTH",
"51 1275 OFFCURVE",
"28 1291 OFFCURVE",
"13 1312 CURVE",
"5 1311 LINE",
"1 1307 OFFCURVE",
"0 1301 OFFCURVE",
"0 1296 CURVE SMOOTH",
"0 1279 OFFCURVE",
"12 1253 OFFCURVE",
"19 1237 CURVE SMOOTH",
"53 1164 OFFCURVE",
"102 1092 OFFCURVE",
"194 1092 CURVE SMOOTH",
"245 1092 OFFCURVE",
"293 1115 OFFCURVE",
"343 1115 CURVE SMOOTH",
"430 1115 OFFCURVE",
"451 1022 OFFCURVE",
"495 967 CURVE",
"476 946 OFFCURVE",
"406 913 OFFCURVE",
"379 913 CURVE SMOOTH",
"367 913 OFFCURVE",
"357 917 OFFCURVE",
"346 919 CURVE",
"350 894 OFFCURVE",
"358 835 OFFCURVE",
"373 816 CURVE SMOOTH",
"492 677 OFFCURVE",
"558 759 OFFCURVE",
"609 692 CURVE",
"576 676 OFFCURVE",
"527 575 OFFCURVE",
"501 542 CURVE SMOOTH",
"483 518 OFFCURVE",
"451 498 OFFCURVE",
"427 479 CURVE SMOOTH",
"421 475 OFFCURVE",
"413 475 OFFCURVE",
"406 475 CURVE SMOOTH",
"358 475 OFFCURVE",
"271 519 OFFCURVE",
"230 544 CURVE",
"241 509 OFFCURVE",
"249 474 OFFCURVE",
"256 439 CURVE",
"261 437 OFFCURVE",
"320 370 OFFCURVE",
"329 360 CURVE SMOOTH",
"379 304 OFFCURVE",
"434 231 OFFCURVE",
"518 231 CURVE SMOOTH",
"584 231 OFFCURVE",
"659 369 OFFCURVE",
"704 369 CURVE SMOOTH",
"706 369 OFFCURVE",
"707 368 OFFCURVE",
"709 368 CURVE",
"719 349 OFFCURVE",
"728 327 OFFCURVE",
"740 308 CURVE",
"722 258 OFFCURVE",
"704 161 OFFCURVE",
"635 161 CURVE SMOOTH",
"608 161 OFFCURVE",
"583 172 OFFCURVE",
"562 187 CURVE",
"562 157 OFFCURVE",
"566 115 OFFCURVE",
"584 89 CURVE SMOOTH",
"627 29 OFFCURVE",
"686 -12 OFFCURVE",
"763 -12 CURVE SMOOTH",
"831 -12 OFFCURVE",
"888 109 OFFCURVE",
"948 109 CURVE SMOOTH",
"1001 109 OFFCURVE",
"1010 15 OFFCURVE",
"1010 -21 CURVE SMOOTH",
"1010 -30 LINE",
"998 -16 OFFCURVE",
"981 -1 OFFCURVE",
"961 -1 CURVE SMOOTH",
"936 -1 OFFCURVE",
"913 -33 OFFCURVE",
"900 -49 CURVE SMOOTH",
"872 -87 OFFCURVE",
"841 -93 OFFCURVE",
"801 -111 CURVE",
"837 -219 LINE",
"864 -223 OFFCURVE",
"923 -290 OFFCURVE",
"975 -290 CURVE SMOOTH",
"993 -290 OFFCURVE",
"1005 -279 OFFCURVE",
"1014 -279 CURVE SMOOTH",
"1066 -279 OFFCURVE",
"1117 -480 OFFCURVE",
"1185 -480 CURVE",
"1185 -480 LINE"
);
}
);
width = 1200;
}
);
note = uniE0C3;
},
{
color = 2;
glyphname = uniE0C4.stypo;
lastChange = "2020-07-23 18:20:43 +0000";
layers = (
{
layerId = "F8C3375C-B372-4BAE-A3FB-5A8DC7FA7AB9";
paths = (
{
closed = 1;
nodes = (
"596 720 LINE SMOOTH",
"603 720 OFFCURVE",
"610 728 OFFCURVE",
"610 745 CURVE SMOOTH",
"610 929 LINE SMOOTH",
"610 940 OFFCURVE",
"604 954 OFFCURVE",
"596 954 CURVE",
"596 954 LINE",
"487 954 LINE SMOOTH",
"480 954 OFFCURVE",
"473 944 OFFCURVE",
"473 929 CURVE SMOOTH",
"473 745 LINE SMOOTH",
"473 732 OFFCURVE",
"479 720 OFFCURVE",
"487 720 CURVE SMOOTH"
);
},
{
closed = 1;
nodes = (
"108 -475 LINE",
"108 -290 LINE",
"0 -290 LINE",
"0 -290 LINE",
"0 -475 LINE"
);
},
{
closed = 1;
nodes = (
"273 -475 LINE",
"273 -290 LINE",
"165 -290 LINE",
"165 -290 LINE",
"165 -475 LINE"
);
},
{
closed = 1;
nodes = (
"108 -224 LINE",
"108 -40 LINE",
"0 -40 LINE",
"0 -40 LINE",
"0 -224 LINE"
);
},
{
closed = 1;
nodes = (
"273 -224 LINE",
"273 -40 LINE",
"165 -40 LINE",
"165 -40 LINE",
"165 -224 LINE"
);
},
{
closed = 1;
nodes = (
"596 -480 LINE SMOOTH",
"597 -480 OFFCURVE",
"599 -478 OFFCURVE",
"599 -475 CURVE SMOOTH",
"599 -290 LINE SMOOTH",
"599 -287 OFFCURVE",
"597 -285 OFFCURVE",
"596 -285 CURVE",
"596 -285 LINE",
"487 -285 LINE SMOOTH",
"486 -285 OFFCURVE",
"485 -287 OFFCURVE",
"485 -290 CURVE SMOOTH",
"485 -475 LINE SMOOTH",
"485 -478 OFFCURVE",
"486 -480 OFFCURVE",
"487 -480 CURVE SMOOTH"
);
},
{
closed = 1;
nodes = (
"490 -295 LINE",
"593 -295 LINE",
"593 -295 LINE",
"593 -470 LINE",
"490 -470 LINE"
);
},
{
closed = 1;
nodes = (
"108 23 LINE",
"108 207 LINE",
"0 207 LINE",
"0 207 LINE",
"0 23 LINE"
);
},
{
closed = 1;
nodes = (
"431 -224 LINE",
"431 -40 LINE",
"323 -40 LINE",
"323 -40 LINE",
"323 -224 LINE"
);
},
{
closed = 1;
nodes = (
"273 23 LINE",
"273 207 LINE",
"165 207 LINE",
"165 207 LINE",
"165 23 LINE"
);
},
{
closed = 1;
nodes = (
"108 271 LINE",
"108 456 LINE",
"0 456 LINE",
"0 456 LINE",
"0 271 LINE"
);
},
{
closed = 1;
nodes = (
"431 23 LINE",
"431 207 LINE",
"323 207 LINE",
"323 207 LINE",
"323 23 LINE"
);
},
{
closed = 1;
nodes = (
"273 271 LINE",
"273 456 LINE",
"165 456 LINE",
"165 456 LINE",
"165 271 LINE"
);
},
{
closed = 1;
nodes = (
"108 511 LINE",
"108 694 LINE",
"0 694 LINE",
"0 694 LINE",
"0 511 LINE"
);
},
{
closed = 1;
nodes = (
"596 19 LINE SMOOTH",
"597 19 OFFCURVE",
"599 21 OFFCURVE",
"599 23 CURVE SMOOTH",
"599 207 LINE SMOOTH",
"599 211 OFFCURVE",
"597 213 OFFCURVE",
"596 213 CURVE",
"596 213 LINE",
"487 213 LINE SMOOTH",
"486 213 OFFCURVE",
"485 211 OFFCURVE",
"485 207 CURVE SMOOTH",
"485 23 LINE SMOOTH",
"485 21 OFFCURVE",
"486 19 OFFCURVE",
"487 19 CURVE SMOOTH"
);
},
{
closed = 1;
nodes = (
"490 202 LINE",
"593 202 LINE",
"593 202 LINE",
"593 28 LINE",
"490 28 LINE"
);
},
{
closed = 1;
nodes = (
"273 511 LINE",
"273 694 LINE",
"165 694 LINE",
"165 694 LINE",
"165 511 LINE"
);
},
{
closed = 1;
nodes = (
"108 745 LINE",
"108 929 LINE",
"0 929 LINE",
"0 929 LINE",
"0 745 LINE"
);
},
{
closed = 1;
nodes = (
"900 19 LINE SMOOTH",
"902 19 OFFCURVE",
"903 21 OFFCURVE",
"903 23 CURVE SMOOTH",
"903 207 LINE SMOOTH",
"903 211 OFFCURVE",
"902 213 OFFCURVE",
"900 213 CURVE",
"900 213 LINE",
"792 213 LINE SMOOTH",
"790 213 OFFCURVE",
"789 211 OFFCURVE",
"789 207 CURVE SMOOTH",
"789 23 LINE SMOOTH",
"789 21 OFFCURVE",
"790 19 OFFCURVE",
"792 19 CURVE SMOOTH"
);
},
{
closed = 1;
nodes = (
"795 202 LINE",
"897 202 LINE",
"897 202 LINE",
"897 28 LINE",
"795 28 LINE"
);
},
{
closed = 1;
nodes = (
"431 511 LINE",
"431 694 LINE",
"323 694 LINE",
"323 694 LINE",
"323 511 LINE"
);
},
{
closed = 1;
nodes = (
"745 253 LINE SMOOTH",
"751 253 OFFCURVE",
"757 260 OFFCURVE",
"757 271 CURVE SMOOTH",
"757 456 LINE SMOOTH",
"757 465 OFFCURVE",
"752 476 OFFCURVE",
"745 476 CURVE",
"745 476 LINE",
"637 476 LINE SMOOTH",
"632 476 OFFCURVE",
"625 468 OFFCURVE",
"625 456 CURVE SMOOTH",
"625 271 LINE SMOOTH",
"625 263 OFFCURVE",
"630 253 OFFCURVE",
"637 253 CURVE SMOOTH"
);
},
{
closed = 1;
nodes = (
"649 436 LINE",
"734 436 LINE",
"734 436 LINE",
"734 292 LINE",
"649 292 LINE"
);
},
{
closed = 1;
nodes = (
"273 745 LINE",
"273 929 LINE",
"165 929 LINE",
"165 929 LINE",
"165 745 LINE"
);
},
{
closed = 1;
nodes = (
"108 977 LINE",
"108 1163 LINE",
"0 1163 LINE",
"0 1163 LINE",
"0 977 LINE"
);
},
{
closed = 1;
nodes = (
"596 511 LINE",
"596 511 LINE",
"596 694 LINE",
"487 694 LINE",
"487 511 LINE"
);
},
{
closed = 1;
nodes = (
"431 745 LINE",
"431 929 LINE",
"323 929 LINE",
"323 929 LINE",
"323 745 LINE"
);
},
{
closed = 1;
nodes = (
"273 977 LINE",
"273 1163 LINE",
"165 1163 LINE",
"165 1163 LINE",
"165 977 LINE"
);
},
{
closed = 1;
nodes = (
"745 511 LINE",
"745 694 LINE",
"637 694 LINE",
"637 694 LINE",
"637 511 LINE"
);
},
{
closed = 1;
nodes = (
"108 1205 LINE",
"108 1389 LINE",
"0 1389 LINE",
"0 1389 LINE",
"0 1205 LINE"
);
},
{
closed = 1;
nodes = (
"1047 267 LINE SMOOTH",
"1049 267 OFFCURVE",
"1050 268 OFFCURVE",
"1050 271 CURVE SMOOTH",
"1050 456 LINE SMOOTH",
"1050 459 OFFCURVE",
"1049 461 OFFCURVE",
"1047 461 CURVE",
"1047 461 LINE",
"939 461 LINE SMOOTH",
"938 461 OFFCURVE",
"936 459 OFFCURVE",
"936 456 CURVE SMOOTH",
"936 271 LINE SMOOTH",
"936 268 OFFCURVE",
"938 267 OFFCURVE",
"939 267 CURVE SMOOTH"
);
},
{
closed = 1;
nodes = (
"942 450 LINE",
"1045 450 LINE",
"1045 450 LINE",
"1045 277 LINE",
"942 277 LINE"
);
},
{
closed = 1;
nodes = (
"502 904 LINE",
"581 904 LINE",
"581 904 LINE",
"581 769 LINE",
"502 769 LINE"
);
},
{
closed = 1;
nodes = (
"431 977 LINE",
"431 1163 LINE",
"323 1163 LINE",
"323 1163 LINE",
"323 977 LINE"
);
},
{
closed = 1;
nodes = (
"273 1205 LINE",
"273 1389 LINE",
"165 1389 LINE",
"165 1389 LINE",
"165 1205 LINE"
);
},
{
closed = 1;
nodes = (
"745 745 LINE",
"745 745 LINE",
"745 929 LINE",
"637 929 LINE",
"637 745 LINE"
);
},
{
closed = 1;
nodes = (
"108 1446 LINE",
"108 1630 LINE",
"0 1630 LINE",
"0 1630 LINE",
"0 1446 LINE"
);
},
{
closed = 1;
nodes = (
"431 1205 LINE",
"431 1389 LINE",
"323 1389 LINE",
"323 1389 LINE",
"323 1205 LINE"
);
},
{
closed = 1;
nodes = (
"900 739 LINE SMOOTH",
"902 739 OFFCURVE",
"903 741 OFFCURVE",
"903 745 CURVE SMOOTH",
"903 929 LINE SMOOTH",
"903 932 OFFCURVE",
"902 934 OFFCURVE",
"900 934 CURVE",
"900 934 LINE",
"792 934 LINE SMOOTH",
"790 934 OFFCURVE",
"789 932 OFFCURVE",
"789 929 CURVE SMOOTH",
"789 745 LINE SMOOTH",
"789 741 OFFCURVE",
"790 739 OFFCURVE",
"792 739 CURVE SMOOTH"
);
},
{
closed = 1;
nodes = (
"795 924 LINE",
"897 924 LINE",
"897 924 LINE",
"897 750 LINE",
"795 750 LINE"
);
},
{
closed = 1;
nodes = (
"273 1446 LINE",
"273 1630 LINE",
"165 1630 LINE",
"165 1630 LINE",
"165 1446 LINE"
);
},
{
closed = 1;
nodes = (
"745 958 LINE SMOOTH",
"751 958 OFFCURVE",
"757 966 OFFCURVE",
"757 977 CURVE SMOOTH",
"757 1163 LINE SMOOTH",
"757 1171 OFFCURVE",
"752 1183 OFFCURVE",
"745 1183 CURVE",
"745 1183 LINE",
"637 1183 LINE SMOOTH",
"632 1183 OFFCURVE",
"625 1174 OFFCURVE",
"625 1163 CURVE SMOOTH",
"625 977 LINE SMOOTH",
"625 969 OFFCURVE",
"630 958 OFFCURVE",
"637 958 CURVE SMOOTH"
);
},
{
closed = 1;
nodes = (
"649 1141 LINE",
"734 1141 LINE",
"734 1141 LINE",
"734 998 LINE",
"649 998 LINE"
);
},
{
closed = 1;
nodes = (
"596 1205 LINE",
"596 1389 LINE",
"487 1389 LINE",
"487 1389 LINE",
"487 1205 LINE"
);
},
{
closed = 1;
nodes = (
"108 1700 LINE",
"108 1885 LINE",
"0 1885 LINE",
"0 1885 LINE",
"0 1700 LINE"
);
},
{
closed = 1;
nodes = (
"431 1446 LINE",
"431 1630 LINE",
"323 1630 LINE",
"323 1630 LINE",
"323 1446 LINE"
);
},
{
closed = 1;
nodes = (
"745 1186 LINE SMOOTH",
"751 1186 OFFCURVE",
"757 1194 OFFCURVE",
"757 1205 CURVE SMOOTH",
"757 1389 LINE SMOOTH",
"757 1398 OFFCURVE",
"752 1409 OFFCURVE",
"745 1409 CURVE",
"745 1409 LINE",
"637 1409 LINE SMOOTH",
"632 1409 OFFCURVE",
"625 1400 OFFCURVE",
"625 1389 CURVE SMOOTH",
"625 1205 LINE SMOOTH",
"625 1196 OFFCURVE",
"630 1186 OFFCURVE",
"637 1186 CURVE SMOOTH"
);
},
{
closed = 1;
nodes = (
"649 1369 LINE",
"734 1369 LINE",
"734 1369 LINE",
"734 1226 LINE",
"649 1226 LINE"
);
},
{
closed = 1;
nodes = (
"273 1700 LINE",
"273 1885 LINE",
"165 1885 LINE",
"165 1885 LINE",
"165 1700 LINE"
);
},
{
closed = 1;
nodes = (
"596 1446 LINE",
"596 1446 LINE",
"596 1630 LINE",
"487 1630 LINE",
"487 1446 LINE"
);
},
{
closed = 1;
nodes = (
"431 1700 LINE",
"431 1885 LINE",
"323 1885 LINE",
"323 1885 LINE",
"323 1700 LINE"
);
},
{
closed = 1;
nodes = (
"593 1686 LINE SMOOTH",
"597 1686 OFFCURVE",
"602 1693 OFFCURVE",
"602 1700 CURVE SMOOTH",
"602 1885 LINE SMOOTH",
"602 1892 OFFCURVE",
"598 1900 OFFCURVE",
"593 1900 CURVE SMOOTH",
"485 1900 LINE SMOOTH",
"481 1900 OFFCURVE",
"476 1893 OFFCURVE",
"476 1885 CURVE SMOOTH",
"476 1700 LINE SMOOTH",
"476 1694 OFFCURVE",
"480 1686 OFFCURVE",
"485 1686 CURVE",
"485 1686 LINE"
);
},
{
closed = 1;
nodes = (
"494 1870 LINE",
"585 1870 LINE",
"585 1715 LINE",
"494 1715 LINE",
"494 1715 LINE"
);
},
{
closed = 1;
nodes = (
"900 1446 LINE",
"900 1446 LINE",
"900 1630 LINE",
"792 1630 LINE",
"792 1446 LINE"
);
},
{
closed = 1;
nodes = (
"745 1700 LINE",
"745 1700 LINE",
"745 1885 LINE",
"637 1885 LINE",
"637 1700 LINE"
);
},
{
closed = 1;
nodes = (
"900 1700 LINE",
"900 1700 LINE",
"900 1885 LINE",
"792 1885 LINE",
"792 1700 LINE"
);
},
{
closed = 1;
nodes = (
"1197 1440 LINE SMOOTH",
"1199 1440 OFFCURVE",
"1200 1442 OFFCURVE",
"1200 1446 CURVE SMOOTH",
"1200 1630 LINE SMOOTH",
"1200 1633 OFFCURVE",
"1199 1634 OFFCURVE",
"1197 1634 CURVE",
"1197 1634 LINE",
"1089 1634 LINE SMOOTH",
"1087 1634 OFFCURVE",
"1086 1633 OFFCURVE",
"1086 1630 CURVE SMOOTH",
"1086 1446 LINE SMOOTH",
"1086 1442 OFFCURVE",
"1087 1440 OFFCURVE",
"1089 1440 CURVE SMOOTH"
);
},
{
closed = 1;
nodes = (
"1092 1625 LINE",
"1194 1625 LINE",
"1194 1625 LINE",
"1194 1451 LINE",
"1092 1451 LINE"
);
},
{
closed = 1;
nodes = (
"1197 1696 LINE SMOOTH",
"1199 1696 OFFCURVE",
"1200 1697 OFFCURVE",
"1200 1700 CURVE SMOOTH",
"1200 1885 LINE SMOOTH",
"1200 1888 OFFCURVE",
"1199 1890 OFFCURVE",
"1197 1890 CURVE",
"1197 1890 LINE",
"1089 1890 LINE SMOOTH",
"1087 1890 OFFCURVE",
"1086 1888 OFFCURVE",
"1086 1885 CURVE SMOOTH",
"1086 1700 LINE SMOOTH",
"1086 1697 OFFCURVE",
"1087 1696 OFFCURVE",
"1089 1696 CURVE SMOOTH"
);
},
{
closed = 1;
nodes = (
"1092 1880 LINE",
"1194 1880 LINE",
"1194 1880 LINE",
"1194 1704 LINE",
"1092 1704 LINE"
);
}
);
width = 1200;
}
);
note = uniE0C4;
},
{
color = 2;
glyphname = uniE0C5.stypo;
lastChange = "2020-07-23 18:20:43 +0000";
layers = (
{
layerId = "F8C3375C-B372-4BAE-A3FB-5A8DC7FA7AB9";
paths = (
{
closed = 1;
nodes = (
"713 720 LINE SMOOTH",
"721 720 OFFCURVE",
"727 732 OFFCURVE",
"727 745 CURVE SMOOTH",
"727 929 LINE SMOOTH",
"727 943 OFFCURVE",
"720 954 OFFCURVE",
"713 954 CURVE",
"713 954 LINE",
"604 954 LINE SMOOTH",
"596 954 OFFCURVE",
"590 940 OFFCURVE",
"590 929 CURVE SMOOTH",
"590 745 LINE SMOOTH",
"590 729 OFFCURVE",
"597 720 OFFCURVE",
"604 720 CURVE SMOOTH"
);
},
{
closed = 1;
nodes = (
"713 -480 LINE SMOOTH",
"714 -480 OFFCURVE",
"715 -478 OFFCURVE",
"715 -475 CURVE SMOOTH",
"715 -290 LINE SMOOTH",
"715 -287 OFFCURVE",
"714 -285 OFFCURVE",
"713 -285 CURVE",
"713 -285 LINE",
"604 -285 LINE SMOOTH",
"603 -285 OFFCURVE",
"601 -287 OFFCURVE",
"601 -290 CURVE SMOOTH",
"601 -475 LINE SMOOTH",
"601 -478 OFFCURVE",
"603 -480 OFFCURVE",
"604 -480 CURVE SMOOTH"
);
},
{
closed = 1;
nodes = (
"607 -295 LINE",
"710 -295 LINE",
"710 -295 LINE",
"710 -470 LINE",
"607 -470 LINE"
);
},
{
closed = 1;
nodes = (
"408 19 LINE SMOOTH",
"410 19 OFFCURVE",
"411 21 OFFCURVE",
"411 23 CURVE SMOOTH",
"411 208 LINE SMOOTH",
"411 211 OFFCURVE",
"410 213 OFFCURVE",
"408 213 CURVE",
"408 213 LINE",
"300 213 LINE SMOOTH",
"298 213 OFFCURVE",
"297 211 OFFCURVE",
"297 208 CURVE SMOOTH",
"297 23 LINE SMOOTH",
"297 21 OFFCURVE",
"298 19 OFFCURVE",
"300 19 CURVE SMOOTH"
);
},
{
closed = 1;
nodes = (
"303 203 LINE",
"405 203 LINE",
"405 203 LINE",
"405 28 LINE",
"303 28 LINE"
);
},
{
closed = 1;
nodes = (
"261 267 LINE SMOOTH",
"262 267 OFFCURVE",
"264 268 OFFCURVE",
"264 271 CURVE SMOOTH",
"264 456 LINE SMOOTH",
"264 459 OFFCURVE",
"262 461 OFFCURVE",
"261 461 CURVE",
"261 461 LINE",
"153 461 LINE SMOOTH",
"151 461 OFFCURVE",
"150 459 OFFCURVE",
"150 456 CURVE SMOOTH",
"150 271 LINE SMOOTH",
"150 268 OFFCURVE",
"151 267 OFFCURVE",
"153 267 CURVE SMOOTH"
);
},
{
closed = 1;
nodes = (
"155 451 LINE",
"258 451 LINE",
"258 451 LINE",
"258 277 LINE",
"155 277 LINE"
);
},
{
closed = 1;
nodes = (
"1035 -475 LINE",
"1035 -290 LINE",
"927 -290 LINE",
"927 -290 LINE",
"927 -475 LINE"
);
},
{
closed = 1;
nodes = (
"877 -224 LINE",
"877 -40 LINE",
"769 -40 LINE",
"769 -40 LINE",
"769 -224 LINE"
);
},
{
closed = 1;
nodes = (
"1200 -475 LINE",
"1200 -290 LINE",
"1092 -290 LINE",
"1092 -290 LINE",
"1092 -475 LINE"
);
},
{
closed = 1;
nodes = (
"713 19 LINE SMOOTH",
"714 19 OFFCURVE",
"715 21 OFFCURVE",
"715 23 CURVE SMOOTH",
"715 208 LINE SMOOTH",
"715 211 OFFCURVE",
"714 213 OFFCURVE",
"713 213 CURVE",
"713 213 LINE",
"604 213 LINE SMOOTH",
"603 213 OFFCURVE",
"601 211 OFFCURVE",
"601 208 CURVE SMOOTH",
"601 23 LINE SMOOTH",
"601 21 OFFCURVE",
"603 19 OFFCURVE",
"604 19 CURVE SMOOTH"
);
},
{
closed = 1;
nodes = (
"607 203 LINE",
"710 203 LINE",
"710 203 LINE",
"710 28 LINE",
"607 28 LINE"
);
},
{
closed = 1;
nodes = (
"1035 -224 LINE",
"1035 -40 LINE",
"927 -40 LINE",
"927 -40 LINE",
"927 -224 LINE"
);
},
{
closed = 1;
nodes = (
"563 252 LINE SMOOTH",
"570 252 OFFCURVE",
"575 263 OFFCURVE",
"575 271 CURVE SMOOTH",
"575 456 LINE SMOOTH",
"575 468 OFFCURVE",
"568 477 OFFCURVE",
"563 477 CURVE",
"563 477 LINE",
"455 477 LINE SMOOTH",
"448 477 OFFCURVE",
"443 465 OFFCURVE",
"443 456 CURVE SMOOTH",
"443 271 LINE SMOOTH",
"443 260 OFFCURVE",
"449 252 OFFCURVE",
"455 252 CURVE SMOOTH"
);
},
{
closed = 1;
nodes = (
"466 436 LINE",
"551 436 LINE",
"551 436 LINE",
"551 292 LINE",
"466 292 LINE"
);
},
{
closed = 1;
nodes = (
"877 23 LINE",
"877 208 LINE",
"769 208 LINE",
"769 208 LINE",
"769 23 LINE"
);
},
{
closed = 1;
nodes = (
"1200 -224 LINE",
"1200 -40 LINE",
"1092 -40 LINE",
"1092 -40 LINE",
"1092 -224 LINE"
);
},
{
closed = 1;
nodes = (
"1035 23 LINE",
"1035 208 LINE",
"927 208 LINE",
"927 208 LINE",
"927 23 LINE"
);
},
{
closed = 1;
nodes = (
"563 512 LINE",
"563 695 LINE",
"455 695 LINE",
"455 695 LINE",
"455 512 LINE"
);
},
{
closed = 1;
nodes = (
"408 739 LINE SMOOTH",
"410 739 OFFCURVE",
"411 741 OFFCURVE",
"411 745 CURVE SMOOTH",
"411 929 LINE SMOOTH",
"411 932 OFFCURVE",
"410 934 OFFCURVE",
"408 934 CURVE",
"408 934 LINE",
"300 934 LINE SMOOTH",
"298 934 OFFCURVE",
"297 932 OFFCURVE",
"297 929 CURVE SMOOTH",
"297 745 LINE SMOOTH",
"297 741 OFFCURVE",
"298 739 OFFCURVE",
"300 739 CURVE SMOOTH"
);
},
{
closed = 1;
nodes = (
"303 924 LINE",
"405 924 LINE",
"405 924 LINE",
"405 750 LINE",
"303 750 LINE"
);
},
{
closed = 1;
nodes = (
"1200 23 LINE",
"1200 208 LINE",
"1092 208 LINE",
"1092 208 LINE",
"1092 23 LINE"
);
},
{
closed = 1;
nodes = (
"713 512 LINE",
"713 512 LINE",
"713 695 LINE",
"604 695 LINE",
"604 512 LINE"
);
},
{
closed = 1;
nodes = (
"1035 271 LINE",
"1035 456 LINE",
"927 456 LINE",
"927 456 LINE",
"927 271 LINE"
);
},
{
closed = 1;
nodes = (
"563 745 LINE",
"563 745 LINE",
"563 929 LINE",
"455 929 LINE",
"455 745 LINE"
);
},
{
closed = 1;
nodes = (
"877 512 LINE",
"877 695 LINE",
"769 695 LINE",
"769 695 LINE",
"769 512 LINE"
);
},
{
closed = 1;
nodes = (
"619 904 LINE",
"698 904 LINE",
"698 904 LINE",
"698 769 LINE",
"619 769 LINE"
);
},
{
closed = 1;
nodes = (
"1200 271 LINE",
"1200 456 LINE",
"1092 456 LINE",
"1092 456 LINE",
"1092 271 LINE"
);
},
{
closed = 1;
nodes = (
"563 958 LINE SMOOTH",
"570 958 OFFCURVE",
"575 969 OFFCURVE",
"575 977 CURVE SMOOTH",
"575 1162 LINE SMOOTH",
"575 1174 OFFCURVE",
"568 1183 OFFCURVE",
"563 1183 CURVE",
"563 1183 LINE",
"455 1183 LINE SMOOTH",
"448 1183 OFFCURVE",
"443 1171 OFFCURVE",
"443 1162 CURVE SMOOTH",
"443 977 LINE SMOOTH",
"443 966 OFFCURVE",
"449 958 OFFCURVE",
"455 958 CURVE SMOOTH"
);
},
{
closed = 1;
nodes = (
"466 1142 LINE",
"551 1142 LINE",
"551 1142 LINE",
"551 998 LINE",
"466 998 LINE"
);
},
{
closed = 1;
nodes = (
"1035 512 LINE",
"1035 695 LINE",
"927 695 LINE",
"927 695 LINE",
"927 512 LINE"
);
},
{
closed = 1;
nodes = (
"111 1440 LINE SMOOTH",
"113 1440 OFFCURVE",
"114 1442 OFFCURVE",
"114 1446 CURVE SMOOTH",
"114 1630 LINE SMOOTH",
"114 1633 OFFCURVE",
"113 1635 OFFCURVE",
"111 1635 CURVE",
"111 1635 LINE",
"3 1635 LINE SMOOTH",
"1 1635 OFFCURVE",
"0 1633 OFFCURVE",
"0 1630 CURVE SMOOTH",
"0 1446 LINE SMOOTH",
"0 1442 OFFCURVE",
"1 1440 OFFCURVE",
"3 1440 CURVE SMOOTH"
);
},
{
closed = 1;
nodes = (
"6 1625 LINE",
"108 1625 LINE",
"108 1625 LINE",
"108 1451 LINE",
"6 1451 LINE"
);
},
{
closed = 1;
nodes = (
"877 745 LINE",
"877 929 LINE",
"769 929 LINE",
"769 929 LINE",
"769 745 LINE"
);
},
{
closed = 1;
nodes = (
"1200 512 LINE",
"1200 695 LINE",
"1092 695 LINE",
"1092 695 LINE",
"1092 512 LINE"
);
},
{
closed = 1;
nodes = (
"563 1185 LINE SMOOTH",
"570 1185 OFFCURVE",
"575 1196 OFFCURVE",
"575 1205 CURVE SMOOTH",
"575 1390 LINE SMOOTH",
"575 1400 OFFCURVE",
"568 1409 OFFCURVE",
"563 1409 CURVE",
"563 1409 LINE",
"455 1409 LINE SMOOTH",
"448 1409 OFFCURVE",
"443 1398 OFFCURVE",
"443 1390 CURVE SMOOTH",
"443 1205 LINE SMOOTH",
"443 1193 OFFCURVE",
"449 1185 OFFCURVE",
"455 1185 CURVE SMOOTH"
);
},
{
closed = 1;
nodes = (
"466 1369 LINE",
"551 1369 LINE",
"551 1369 LINE",
"551 1225 LINE",
"466 1225 LINE"
);
},
{
closed = 1;
nodes = (
"1035 745 LINE",
"1035 929 LINE",
"927 929 LINE",
"927 929 LINE",
"927 745 LINE"
);
},
{
closed = 1;
nodes = (
"111 1696 LINE SMOOTH",
"113 1696 OFFCURVE",
"114 1698 OFFCURVE",
"114 1701 CURVE SMOOTH",
"114 1885 LINE SMOOTH",
"114 1888 OFFCURVE",
"113 1890 OFFCURVE",
"111 1890 CURVE",
"111 1890 LINE",
"3 1890 LINE SMOOTH",
"1 1890 OFFCURVE",
"0 1888 OFFCURVE",
"0 1885 CURVE SMOOTH",
"0 1701 LINE SMOOTH",
"0 1698 OFFCURVE",
"1 1696 OFFCURVE",
"3 1696 CURVE SMOOTH"
);
},
{
closed = 1;
nodes = (
"6 1880 LINE",
"108 1880 LINE",
"108 1880 LINE",
"108 1705 LINE",
"6 1705 LINE"
);
},
{
closed = 1;
nodes = (
"408 1446 LINE",
"408 1446 LINE",
"408 1630 LINE",
"300 1630 LINE",
"300 1446 LINE"
);
},
{
closed = 1;
nodes = (
"877 977 LINE",
"877 1162 LINE",
"769 1162 LINE",
"769 1162 LINE",
"769 977 LINE"
);
},
{
closed = 1;
nodes = (
"713 1205 LINE",
"713 1390 LINE",
"604 1390 LINE",
"604 1390 LINE",
"604 1205 LINE"
);
},
{
closed = 1;
nodes = (
"1200 745 LINE",
"1200 929 LINE",
"1092 929 LINE",
"1092 929 LINE",
"1092 745 LINE"
);
},
{
closed = 1;
nodes = (
"1035 977 LINE",
"1035 1162 LINE",
"927 1162 LINE",
"927 1162 LINE",
"927 977 LINE"
);
},
{
closed = 1;
nodes = (
"877 1205 LINE",
"877 1390 LINE",
"769 1390 LINE",
"769 1390 LINE",
"769 1205 LINE"
);
},
{
closed = 1;
nodes = (
"408 1701 LINE",
"408 1701 LINE",
"408 1885 LINE",
"300 1885 LINE",
"300 1701 LINE"
);
},
{
closed = 1;
nodes = (
"713 1446 LINE",
"713 1446 LINE",
"713 1630 LINE",
"604 1630 LINE",
"604 1446 LINE"
);
},
{
closed = 1;
nodes = (
"1200 977 LINE",
"1200 1162 LINE",
"1092 1162 LINE",
"1092 1162 LINE",
"1092 977 LINE"
);
},
{
closed = 1;
nodes = (
"1035 1205 LINE",
"1035 1390 LINE",
"927 1390 LINE",
"927 1390 LINE",
"927 1205 LINE"
);
},
{
closed = 1;
nodes = (
"563 1701 LINE",
"563 1701 LINE",
"563 1885 LINE",
"455 1885 LINE",
"455 1701 LINE"
);
},
{
closed = 1;
nodes = (
"877 1446 LINE",
"877 1630 LINE",
"769 1630 LINE",
"769 1630 LINE",
"769 1446 LINE"
);
},
{
closed = 1;
nodes = (
"1200 1205 LINE",
"1200 1390 LINE",
"1092 1390 LINE",
"1092 1390 LINE",
"1092 1205 LINE"
);
},
{
closed = 1;
nodes = (
"715 1686 LINE SMOOTH",
"720 1686 OFFCURVE",
"724 1694 OFFCURVE",
"724 1701 CURVE SMOOTH",
"724 1885 LINE SMOOTH",
"724 1893 OFFCURVE",
"719 1900 OFFCURVE",
"715 1900 CURVE SMOOTH",
"607 1900 LINE SMOOTH",
"602 1900 OFFCURVE",
"598 1892 OFFCURVE",
"598 1885 CURVE SMOOTH",
"598 1701 LINE SMOOTH",
"598 1693 OFFCURVE",
"603 1686 OFFCURVE",
"607 1686 CURVE",
"607 1686 LINE"
);
},
{
closed = 1;
nodes = (
"615 1870 LINE",
"706 1870 LINE",
"706 1715 LINE",
"615 1715 LINE",
"615 1715 LINE"
);
},
{
closed = 1;
nodes = (
"1035 1446 LINE",
"1035 1630 LINE",
"927 1630 LINE",
"927 1630 LINE",
"927 1446 LINE"
);
},
{
closed = 1;
nodes = (
"877 1701 LINE",
"877 1885 LINE",
"769 1885 LINE",
"769 1885 LINE",
"769 1701 LINE"
);
},
{
closed = 1;
nodes = (
"1200 1446 LINE",
"1200 1630 LINE",
"1092 1630 LINE",
"1092 1630 LINE",
"1092 1446 LINE"
);
},
{
closed = 1;
nodes = (
"1035 1701 LINE",
"1035 1885 LINE",
"927 1885 LINE",
"927 1885 LINE",
"927 1701 LINE"
);
},
{
closed = 1;
nodes = (
"1200 1701 LINE",
"1200 1885 LINE",
"1200 1885 LINE",
"1092 1885 LINE",
"1092 1701 LINE"
);
}
);
width = 1200;
}
);
note = uniE0C5;
},
{
color = 2;
glyphname = uniE0C6.stypo;
lastChange = "2020-07-23 18:20:43 +0000";
layers = (
{
layerId = "F8C3375C-B372-4BAE-A3FB-5A8DC7FA7AB9";
paths = (
{
closed = 1;
nodes = (
"944 195 LINE SMOOTH",
"956 195 OFFCURVE",
"968 212 OFFCURVE",
"968 231 CURVE SMOOTH",
"968 498 LINE SMOOTH",
"968 515 OFFCURVE",
"957 534 OFFCURVE",
"944 534 CURVE",
"944 534 LINE",
"773 534 LINE SMOOTH",
"763 534 OFFCURVE",
"750 517 OFFCURVE",
"750 498 CURVE SMOOTH",
"750 231 LINE SMOOTH",
"750 214 OFFCURVE",
"760 195 OFFCURVE",
"773 195 CURVE SMOOTH"
);
},
{
closed = 1;
nodes = (
"172 -450 LINE",
"172 -184 LINE",
"0 -184 LINE",
"0 -184 LINE",
"0 -450 LINE"
);
},
{
closed = 1;
nodes = (
"433 -450 LINE",
"433 -184 LINE",
"261 -184 LINE",
"261 -184 LINE",
"261 -450 LINE"
);
},
{
closed = 1;
nodes = (
"172 -105 LINE",
"172 161 LINE",
"0 161 LINE",
"0 161 LINE",
"0 -105 LINE"
);
},
{
closed = 1;
nodes = (
"433 -105 LINE",
"433 161 LINE",
"261 161 LINE",
"261 161 LINE",
"261 -105 LINE"
);
},
{
closed = 1;
nodes = (
"172 231 LINE",
"172 498 LINE",
"0 498 LINE",
"0 498 LINE",
"0 231 LINE"
);
},
{
closed = 1;
nodes = (
"683 -129 LINE SMOOTH",
"690 -129 OFFCURVE",
"698 -119 OFFCURVE",
"698 -105 CURVE SMOOTH",
"698 161 LINE SMOOTH",
"698 172 OFFCURVE",
"691 184 OFFCURVE",
"683 184 CURVE",
"683 184 LINE",
"512 184 LINE SMOOTH",
"504 184 OFFCURVE",
"496 174 OFFCURVE",
"496 161 CURVE SMOOTH",
"496 -105 LINE SMOOTH",
"496 -117 OFFCURVE",
"502 -129 OFFCURVE",
"512 -129 CURVE SMOOTH"
);
},
{
closed = 1;
nodes = (
"527 137 LINE",
"667 137 LINE",
"667 137 LINE",
"667 -82 LINE",
"527 -82 LINE"
);
},
{
closed = 1;
nodes = (
"433 231 LINE",
"433 498 LINE",
"261 498 LINE",
"261 498 LINE",
"261 231 LINE"
);
},
{
closed = 1;
nodes = (
"1181 -480 LINE SMOOTH",
"1191 -480 OFFCURVE",
"1200 -468 OFFCURVE",
"1200 -450 CURVE SMOOTH",
"1200 -184 LINE SMOOTH",
"1200 -171 OFFCURVE",
"1192 -156 OFFCURVE",
"1181 -156 CURVE",
"1181 -156 LINE",
"1010 -156 LINE SMOOTH",
"1001 -156 OFFCURVE",
"992 -168 OFFCURVE",
"992 -184 CURVE SMOOTH",
"992 -450 LINE SMOOTH",
"992 -465 OFFCURVE",
"1000 -480 OFFCURVE",
"1010 -480 CURVE SMOOTH"
);
},
{
closed = 1;
nodes = (
"1029 -214 LINE",
"1163 -214 LINE",
"1163 -214 LINE",
"1163 -423 LINE",
"1029 -423 LINE"
);
},
{
closed = 1;
nodes = (
"172 569 LINE",
"172 836 LINE",
"0 836 LINE",
"0 836 LINE",
"0 569 LINE"
);
},
{
closed = 1;
nodes = (
"172 896 LINE",
"172 1164 LINE",
"0 1164 LINE",
"0 1164 LINE",
"0 896 LINE"
);
},
{
closed = 1;
nodes = (
"796 461 LINE",
"921 461 LINE",
"921 461 LINE",
"921 269 LINE",
"796 269 LINE"
);
},
{
closed = 1;
nodes = (
"683 569 LINE",
"683 836 LINE",
"512 836 LINE",
"512 836 LINE",
"512 569 LINE"
);
},
{
closed = 1;
nodes = (
"433 896 LINE",
"433 1164 LINE",
"261 1164 LINE",
"261 1164 LINE",
"261 896 LINE"
);
},
{
closed = 1;
nodes = (
"172 1244 LINE",
"172 1510 LINE",
"0 1510 LINE",
"0 1510 LINE",
"0 1244 LINE"
);
},
{
closed = 1;
nodes = (
"683 884 LINE SMOOTH",
"687 884 OFFCURVE",
"691 889 OFFCURVE",
"691 896 CURVE SMOOTH",
"691 1164 LINE SMOOTH",
"691 1168 OFFCURVE",
"688 1176 OFFCURVE",
"683 1176 CURVE SMOOTH",
"512 1176 LINE SMOOTH",
"508 1176 OFFCURVE",
"504 1168 OFFCURVE",
"504 1164 CURVE SMOOTH",
"504 896 LINE SMOOTH",
"504 891 OFFCURVE",
"507 884 OFFCURVE",
"512 884 CURVE",
"512 884 LINE"
);
},
{
closed = 1;
nodes = (
"519 1151 LINE",
"675 1151 LINE",
"675 909 LINE",
"519 909 LINE",
"519 909 LINE"
);
},
{
closed = 1;
nodes = (
"433 1244 LINE",
"433 1510 LINE",
"261 1510 LINE",
"261 1510 LINE",
"261 1244 LINE"
);
},
{
closed = 1;
nodes = (
"172 1612 LINE",
"172 1879 LINE",
"0 1879 LINE",
"0 1879 LINE",
"0 1612 LINE"
);
},
{
closed = 1;
nodes = (
"683 1244 LINE",
"683 1510 LINE",
"512 1510 LINE",
"512 1510 LINE",
"512 1244 LINE"
);
},
{
closed = 1;
nodes = (
"433 1612 LINE",
"433 1879 LINE",
"261 1879 LINE",
"261 1879 LINE",
"261 1612 LINE"
);
},
{
closed = 1;
nodes = (
"1181 868 LINE SMOOTH",
"1191 868 OFFCURVE",
"1200 881 OFFCURVE",
"1200 896 CURVE SMOOTH",
"1200 1164 LINE SMOOTH",
"1200 1177 OFFCURVE",
"1192 1191 OFFCURVE",
"1181 1191 CURVE",
"1181 1191 LINE",
"1010 1191 LINE SMOOTH",
"1002 1191 OFFCURVE",
"992 1179 OFFCURVE",
"992 1164 CURVE SMOOTH",
"992 896 LINE SMOOTH",
"992 883 OFFCURVE",
"1000 868 OFFCURVE",
"1010 868 CURVE SMOOTH"
);
},
{
closed = 1;
nodes = (
"1029 1134 LINE",
"1163 1134 LINE",
"1163 1134 LINE",
"1163 925 LINE",
"1029 925 LINE"
);
},
{
closed = 1;
nodes = (
"944 1232 LINE SMOOTH",
"949 1232 OFFCURVE",
"952 1237 OFFCURVE",
"952 1244 CURVE SMOOTH",
"952 1510 LINE SMOOTH",
"952 1517 OFFCURVE",
"949 1522 OFFCURVE",
"944 1522 CURVE",
"944 1522 LINE",
"773 1522 LINE SMOOTH",
"770 1522 OFFCURVE",
"765 1517 OFFCURVE",
"765 1510 CURVE SMOOTH",
"765 1244 LINE SMOOTH",
"765 1238 OFFCURVE",
"769 1232 OFFCURVE",
"773 1232 CURVE SMOOTH"
);
},
{
closed = 1;
nodes = (
"781 1498 LINE",
"937 1498 LINE",
"937 1498 LINE",
"937 1255 LINE",
"781 1255 LINE"
);
},
{
closed = 1;
nodes = (
"683 1600 LINE SMOOTH",
"687 1600 OFFCURVE",
"691 1606 OFFCURVE",
"691 1612 CURVE SMOOTH",
"691 1879 LINE SMOOTH",
"691 1884 OFFCURVE",
"688 1890 OFFCURVE",
"683 1890 CURVE SMOOTH",
"512 1890 LINE SMOOTH",
"508 1890 OFFCURVE",
"504 1884 OFFCURVE",
"504 1879 CURVE SMOOTH",
"504 1612 LINE SMOOTH",
"504 1606 OFFCURVE",
"507 1600 OFFCURVE",
"512 1600 CURVE",
"512 1600 LINE"
);
},
{
closed = 1;
nodes = (
"519 1866 LINE",
"675 1866 LINE",
"675 1624 LINE",
"519 1624 LINE",
"519 1624 LINE"
);
},
{
closed = 1;
nodes = (
"940 1590 LINE SMOOTH",
"947 1590 OFFCURVE",
"955 1600 OFFCURVE",
"955 1612 CURVE SMOOTH",
"955 1879 LINE SMOOTH",
"955 1889 OFFCURVE",
"949 1900 OFFCURVE",
"940 1900 CURVE SMOOTH",
"769 1900 LINE SMOOTH",
"763 1900 OFFCURVE",
"755 1890 OFFCURVE",
"755 1879 CURVE SMOOTH",
"755 1612 LINE SMOOTH",
"755 1602 OFFCURVE",
"761 1590 OFFCURVE",
"769 1590 CURVE",
"769 1590 LINE"
);
},
{
closed = 1;
nodes = (
"784 1856 LINE",
"927 1856 LINE",
"927 1634 LINE",
"784 1634 LINE",
"784 1634 LINE"
);
}
);
width = 1200;
}
);
note = uniE0C6;
},
